<mxfile host="app.diagrams.net" agent="Mozilla/5.0 (Windows NT 10.0; Win64; x64) AppleWebKit/537.36 (KHTML, like Gecko) Chrome/135.0.0.0 Safari/537.36" version="27.0.6">
  <diagram name="Trang-1" id="BdWvZuKBmiwHdqxm_ftR">
    <mxGraphModel dx="3871" dy="1580" grid="1" gridSize="10" guides="1" tooltips="1" connect="1" arrows="1" fold="1" page="1" pageScale="1" pageWidth="827" pageHeight="1169" math="0" shadow="0">
      <root>
        <mxCell id="0" />
        <mxCell id="1" parent="0" />
        <mxCell id="iIbCbDASA3NtXTrynj2I-5" value="" style="ellipse;whiteSpace=wrap;html=1;aspect=fixed;" parent="1" vertex="1">
          <mxGeometry width="20" as="geometry" />
        </mxCell>
        <mxCell id="iIbCbDASA3NtXTrynj2I-34" value="" style="group" parent="1" vertex="1" connectable="0">
          <mxGeometry x="-405" y="400" width="1494" height="525.85" as="geometry" />
        </mxCell>
        <mxCell id="iIbCbDASA3NtXTrynj2I-1" value="" style="shape=image;verticalLabelPosition=bottom;labelBackgroundColor=default;verticalAlign=top;aspect=fixed;imageAspect=0;image=data:image/png,iVBORw0KGgoAAAANSUhEUgAABbMAAAHCCAYAAADVSlRhAAAAAXNSR0IArs4c6QAAIABJREFUeF7s3WVgFMm+NvAHWdxdFnd3d7cQCE5wh110YVlkYWEXd3e3AMES3N3d3d3dFtn3/Rd3OElIMjPpmUlPz1Nf7j2HruqqX3UO4enqqjD//ffff2ChAAUoQAEKUIACFKAABShAAQpQgAIUoAAFKEABCuhYIAzDbB3PDrtGAQpQgAIUoAAFKEABClCAAhSgAAUoQAEKUIACSoBhNh8EClCAAhSgAAUoQAEKUIACFKAABShAAQpQgAIU0L0Aw2zdTxE7SAEKUIACFKAABShAAQpQgAIUoAAFKEABClCAAgyz+QxQgAIUoAAFKEABClCAAhSgAAUoQAEKUIACFKCA7gUYZut+ithBClCAAhSgAAUoQAEKUIACFKAABShAAQpQgAIUYJjNZ4ACFKAABShAAQpQgAIUoAAFKEABClCAAhSgAAV0L8AwW/dTxA5SgAIUoAAFKEABClCAAhSgAAUoQAEKUIACFKAAw2w+AxSgAAUoQAEKUIACFKAABShAAQpQgAIUoAAFKKB7AYbZup8idpACFKAABShAAQpQgAIUoAAFKEABClCAAhSgAAUYZvMZoAAFKEABClCAAhSgAAUoQAEKUIACFKAABShAAd0LMMzW/RSxgxSgAAUoQAEKUIACFKAABShAAQpQgAIUoAAFKMAwm88ABShAAQpQgAIUoAAFKEABClCAAhSgAAUoQAEK6F6AYbbup4gdpAAFKEABClCAAhSgAAUoQAEKUIACFKAABShAAYbZfAYoQAEKUIACFKAABShAAQpQgAIUoAAFKEABClBA9wIMs3U/RewgBShAAQpQgAIUoAAFKEABClCAAhSgAAUoQAEKMMzmM0ABClCAAhSgAAUoQAEKUIACFKAABShAAQpQgAK6F2CYrfspYgcpQAEKUIACFKAABShAAQpQgAIUoAAFKEABClCAYTafAQpQgAIUoAAFKEABClCAAhSgAAUoQAEKUIACFNC9AMNs3U8RO0gBClCAAhSgAAUoQAEKUIACFKAABShAAQpQgAIMs/kMUIACFKAABShAAQpQgAIUoAAFKEABClCAAhSggO4FGGbrforYQQpQgAIUoAAFKEABClCAAhSgAAUoQAEKUIACFGCYzWeAAhSgAAUoQAEKUIACFKAABShAAQpQgAIUoAAFdC/AMFv3U8QOUoACFKAABShAAQpQgAIUoAAFKEABClCAAhSgAMNsPgMUoAAFKEABClCAAhSgAAUoQAEKUIACFKAABSigewGG2bqfInaQAhSgAAUoQAEKUIACFKAABShAAQpQgAIUoAAFGGbzGaAABShAAQpQgAIUoAAFKEABClCAAhSgAAUoQAHdCzDM1v0UsYMUoAAFKEABClCAAhSgAAUoQAEKUIACFKAABSjAMJvPAAUoQAEKUIACFKAABShAAQpQgAIUoAAFKEABCuhegGG27qeIHaQABShAAQpQgAIUoAAFKEABClCAAhSgAAUoQAGG2XwGKEABClCAAhSgAAUoQAEKUIACFKAABShAAQpQQPcCDLN1P0XsoCMEtu87jva9xqJArkyYMKgTokSOFOLbbtp5BD0GTlX1B/ZoiYql8iNMmDAhbi+0K870WodRU5eiWoUiGNSzVWh3R7f3f/D4GTr3nYDT56+hUN4sGN3vV0SPFkW3/WXHKEABClCAAhSgAAUoQAEKUIACFKCAswkwzLZixnoNng6fjXt/qBExwk9IlTwxqpYvjFpVSiBa1Mj+rjl78QZadh2GV2/e/VA3buwYKJA7ExrVLI9smVIHG3p++fIVJ89dhdeqLThy8iKePHuJr1//Q9iwYRAvTkxVv0TBnChTNDdixYxmxchCdqkp5EyWJAHmj++F+HFjhawhHdSyVZh95fpdtOw2HE+fv0SX1rXRrG4lf3Ma3LMgAXrKZInQsGY5VCiZD5EiRtCBDBCSMPvx0xdo1GEQbt97ZPUYTC8Urt968P3nRl4wlCqcy+q2HF3h3oMnaPvHKFy/fT/Q+Xd0f3g/ClCAAhSgAAUoQAEKUIACFKAABShgJAGG2VbMZlBhtt8mJNAd83d75MyS9vt/HVyAabpIAulabiXxx6/1Aw0xL169Dbn/hSu3zPY4XLiwqFmlBHq094QE7fYqDLP9y376/EWtyN6w/RBqu5VE786N8FP4cP4usuRZkAryYkKeo0Tx49hr+ixul2G2xVTqwqOnLqFdj1EIFzYsZozsjiwZUlrXAK+mAAUoQAEKUIACFKAABShAAQpQgAIUCFSAYbYVD4YpzA643cK79x+wdfcxDJ3ohecvXyPFzwkxfcTvSJoonmrdFGDK/+833JKV1rJydcz0Zdi656haZd25VS209KzibzXvzv0nVUgqK7tjx4yO5vUrwa1sYcSPG1NdJyGqrAjdd+QMFq7Yguu37ttkuwwraJz+UluszBZ/2aokTqzomDX6DyRPmvAHl6CeBblQnp1la3Zi8lwffPz3k9qeZEjvNj8E4o7GDkmYHVQf5WdFjA4eP4/f2tRBi/qVHT0cu9/vv//+U/9bMH/ZJt3Mod0HzRtQgAIUoAAFKEABClCAAhSgAAUoQAEHCDDMtgI5qDDb1MSpc1fRpvtIFTr7DeqCCzClroTR/UfOwcr1u5E8aQLMGdMTCePHVs2atq2QbRvy5cyIEX3bqS1FgioSpElQuHbLAfTs4Klp72craJz+Uq1h9oeP/6Jz3/HYffB0sCGtuWdB5m/GorXqBYdsFTNzZHdkTJs8VH0ZZlvPf+vuQzTvMlT9b8G04d38falhfWusQQEKUIACFKAABShAAQpQgAIUoAAFKCACDLOteA7MhdmymrbLXxMgK6n9rt42F2BKF/YfOau2JogcKeL31dufv3xBr0HTsXbrgR9We1vRbV5qgYDWMPvE2Sto/fsIxIoRTa3K/jlx/EDvasmz4HcrEj3sFc0w24IHKMAl8lJi/KwVmDp/NTw9yqBXx4ZOfQio9QKsQQEKUIACFKAABShAAQpQgAIUoAAFbC/AMNsKU3NhtjQV2DXWBJjShmkrkqs376nVnXLQY+9OjVQoZs8i257sOXQasxavw7lLNyFbQshe3okSxEX+nBnVPtw5MqeB7MktxVwAbGpv+sI1OHX+KuQ/y4rzSqUKIEmieBg0bsEP26H43YZCgtx8OTJizpIN8Nm0V22lInuA58iSBn92aoQ0KZP+wPHy1VssXLEZ2/edwN0HjyH/WYrpcMVGtcqhUumCP2zdYW4s5txlJbWM01xwac2zIKt6gwqz37x9r1zWbt2PO/cfqy1qTLZN61YM9DDOvYfPYPnanZAvCB49faHmw3R4aJF82dC6YVX1ZUDAElphtukQyZev3vyw97TfPklQvHT1dniv3qEspKRKngTtm3mgXPE8ykae65lea3HmwnW1hYtsBVOjcnG0aVQ1yK8XxGfrnmOYs2S92qte6slzJAdUtm7oZvbAVtMLDjnk1e/XFuaeJf45BShAAQpQgAIUoAAFKEABClCAAhSgQOACDLOteDLMhdl+g9iaVYrj79+bq9YtCTC37T2OTn3GIUb0qN+3llizeT/+GDhVbSsiq33TpEhiRW+tu1S2Ohk8fiG8V29X4V9gJVmSBJg/vtf3oDS4APj1m3f4a8QcbNxxKNiOSDAoga2EhFL8GkrYuP3/u8he0gGLhJGTBndRgaLfYskBi8UKZMfwPm0RPVqU71W1hNnv3n9Exz7jcPDYOYz9pyNKF8kV5JgteRZMq/SjRo0c6DYjB46dQ4+B0yBhb2BFDiEV06wZUvn7Y3MHmMocDOrZEuWK5/VXT89hthyQKSFzYM+IBPUNa5aHhMoS4AdW3MoWwoAeLX94uSEvkHoMmqa+mAisyAsd2UqoSe0KQa64fvn6rdp26MLlm5g85DcUypvFuh9KXk0BClCAAhSgAAUoQAEKUIACFKAABSjgT4BhthUPhLkwe9POI+qgxq9fv2L8wM4oViCbat1cgCnBb5d+E1VwJnXG/N0BkSJGgClElMB26rCuiBk9qhW9te7SdVsP4o+BU9Q2GbLStXTR3GoVtN/DJSVYHtijpdkw2+8BeBKQyurXuu6lVHgswaOsjh03czmOnLwY7MpsGUGWDCnRtpE7iuTPhgg/hcela3eUsfzfEoVyYHT/9qqfpnL+8k2MnuYNeZmQN0dGtQJXDsmU+x46fgEDxszDvYdPMLR3W1QuU+B7PS1h9oPHz9C4wyC10nnO2B6Q0D+oYu5ZEG8Z34bth/w9C6b2THuoP33+EjUrl0Crhm5IkjCu+mM5THT45CXYtucYsmdOg8mDu6h9t01l4Nj5CBcunLKRwynFTebq8dOXmDrfV61uzp4pDaYM/c1f0K/nMFvGJoeidmldG+VL5FX9ltXZfw6dicMnLqihS/AsAX2nljXV3Hz+8hWrNuzG4HELET58uB/2tJb9z3//ezLkBZM8fz3aeyJbpjQq8Jaf1cU+29QhnVJXQuo82dMHOd+Dxi1UXwp0/7W+Cr5ZKEABClCAAhSgAAUoQAEKUIACFKAABUIuwDDbCrvAwmxTGLhs7U7MXrxerSyWlbnD+7ZTgbSUoAJMU7A7YsoStXJUwkVZUVs4b1ZVz3S/gKuXreiyxZf2HT4Ly9fu8rfXt7nKQQXAl6/fUdujSPA3uFdrVCr9v9DY1KYpIA1uZXaH5jXQqoHb921NTHVNq9iTJorvb6W4uf7Kn09bsBpjZyxXga5p5bz891rCbNP8pk+TTK0Wjxrl2yrzwEpQz4IE4RJGy3YlW/ccVS8VAq48l2dNtmZZtHKrchEf05YvpnuZVrYfO33J3wsVczamQP7t+w8/rAbXc5idN0cGjPunI2LG8P+iR8Yve5iHDx8eQ3u3QfGC2f2toPb7BUDAoFkO8ezQewwypkuh5kBeiAQsJhNz28os9d2O/qPmokGNcujVsYG5aeCfU4ACFKAABShAAQpQgAIUoAAFKEABCgQjwDDbisfD3DYN0pRsJTCkV2u1NYipWLL1haxg/rNzI7iXL/w9dDMXZpv2FJYQNGCxNgA37fksW5lIoC4rd82VoAJgS1aUWxJmB7VftLnVzdLv+4+eYfeBkzh04gLOXbqB9x8+qr3HTVuo+D2gU67XEmabtgUpnC/rDyvFAxpa8iykSp4Yf/3WBPlyZvRX/eHj52jaeTBkW5Pgtp0xBfayDUaL+pX9tSErv4+euoi9h85AAl8xefbitXoJIyVGtCjB7k89qGer7+2ZzAJ7TgJuSWO6xm+IHFj//LZl6Z7Zfvtkqm/ab/7ffz/9MB7TNaafL1mxLfuFS5EXBn2GzcLK9bvVHNRxLxXoj8HpC9fRqttwZE6Xwt82OQEvNhkFfN7M/WzxzylAAQpQgAIUoAAFKEABClCAAhSgAAV+FGCYbcVTEVSYLUF05vQp0LxeZRTNn+2H1bJBBZimwxXLF8+LwA7tMwW+6VP/rMJL2U4hsLDPFmG2bM8hK1kl2JTVvpnTp0TRfNmQK1s6NbaA95Z+BBUAm9uORepqCbODCzklnB0wZr5a3RzU3t9yf1uG2dYElubC7J8Tx1fbXqT4+ceXCebqBnyU/Y5RQlrZumTg2AWB7i9tqmuUMDu4ZyRgmO3XyW/Ybsn/NAQV2pvqWvNsWHI/XkMBClCAAhSgAAUoQAEKUIACFKAABVxZgGG2FbNvSUgbWHOWrCQOrJ7pAEjZ5kDC7HSpfjbb26BCYrMVAUig/ffoeThz4doPQbDsHdy/WzNkSpfie1PmwuzgVt7aI8yWILJz3wnYe/iMCuRluxaPSkWRLWNqRIwYQW3dMWfpBoyaujTUw2xBnDGyu9qTWcq9B0/Q9o9RkBXFsrp/dL9f/e1bLddoCbNla5Zu/SepvcMTxIuFuu6lUSRfViRKEEdti/L23Qc06jAIL1+9sXhltiXPVMBrHLUym2F2SGaHdShAAQpQgAIUoAAFKEABClCAAhSggL4FGGZbMT+ODrNNWyXIamNzWzKYhqElzDa1IYHjmQs3cObiNcihlrJNh+zpHD9uLMwY8TvSpkqqLjUXZge3T7A9wmzTdh9hw4bFkN5t1IGAAUtQ+z/bYpsROTRzWJ+2CB8uXJBPVXAvNk6fv4Zfeo5Wq+Nru5VE786N1KGDpmKqGzNGNKv2CpcAu8tfE7Bz/8kgg3ItW3pY8SOktjNp32ssDh4/b/aZ1tInW4TZQW1zY814uTLbGi1eSwEKUIACFKAABShAAQpQgAIUoAAFghdgmG3FE+LoMPvzly/oNWg61m49gMQJ4qjV2eb2srZFmB2Q5Oadh2jXYxTk//rdRzioAHjQuIVYuGIzKpTMF2S4a48w29SfbJlSY+qwrogZ3f+hgDIue4TZtjgA0mQuLw96DJyKT58/o0vr2mhWt9L3PdRlO5mmnYbg5es3aiuS3NnSW/T0+g2Q5TBEt3KFfqinJTi2qBP/d5Hew2z5mev+zxRs3HFYHbLZuVUta4b3w7U8AFITHytTgAIUoAAFKEABClCAAhSgAAUoQAF/AgyzrXggHB1mS9f8rtaVkHbkX78gaaJ4QfY6pGH21PmrUbJwTmRIk+yHtv0GkN1/rY8mtSuoa4IKs9dtPYg/Bk5R23oEtj2K7N88Zb4vJsxaiYAHVfq9V1ArY4MKXk39SZ40AeaM6YmE8WP7G4usLh81bSnmLNlg021GHjx+hsYdBqnV63PG9oDsoxxUMbfljBzQOHDMfHiv2YGIEX7yt8Lc78uNoLYikfuK7/Z9JxAtSmTkz5XRotXQ8hVAy67D8OHDvy69zYj4+X1+Jw3uAvm5C6zcffAEW3Yf/f7zENg1phc7fn9urPifHF5KAQpQgAIUoAAFKEABClCAAhSgAAUo4EeAYbYVj0NohNnSPdNqXdkuQg6blDDZvUIRFWrL3tASgD55+gL7jpzFXO+NuHrj7g8hsblhytjWbNmPKmUKoUmdCkiTMqna4uL1m3fw3bQXI6csRfjw4dSK4JxZ0gYbZj99/gqtug3Hxau31Z7Q/3RvATnE8vOXr6pvU+b5YtveYyr8tWWYff3WfbToOgwSdtepWgodmtdArJjR1D7Rew+dVgG6hMlSbHkA5Lv3H9GxzzgcPHYOY//piNJFcoU4zJaKYt6l30TItimyX7rfQNXvyw158dC+mQcK5smsngsZ55kL1zF6mjdOnruCcQM6olThb30ZPmmx2i9cDpj8q2sTFMiVGXIA6b2HT7Fw+WZ4r9mpQm9rDoA090wF9ud6X5kd0F88WnhWgXv5IogfN6baS15C7HneG7Fi3S5ULJUfg3q2CpTi5eu3aNN9JC5cvonJQ35TW7ywUIACFKAABShAAQpQgAIUoAAFKEABCoRcgGG2FXahFWZLFw+fuID+o+ZCAltzJXq0KGp7ihaelYPdv9lvO32Hz8LytbuCbFpCc9m3W4L0MGHCqOuC22fab+gasFFZcZwgXmzIthklCuXA6P7t1SpkKVpWZsuK5NlL1qswV0LHgEWC3JTJEmHPodM2DbPlPhNnr8SkuT7w9CiDXh0bfjcK2AdzK7NN1/s9EDJNiiSYMvQ3JPm/FfkHjp1Dj4HTVGgfVJH5mjioC4oVyKYu8dtewDoSapcsnAsnzlzG589fXH5ltvjIPvU9Bk1TLxSCK3XcS6mtdwIrJ85eQevfRyBu7BiBfilg7ueYf04BClCAAhSgAAUoQAEKUIACFKAABSjgX4BhthVPRGiG2dJNWYF96Ph5rNqwG0dOXlSBm4S2ElzKXtpF8mVF5TIFkTl9Sn8HB1oyRFklffLcVXit2oKDx85DVldLiRkjqmq3paebWl1tCrLlz8wdmnjj9gOMmLxEHfYnIbWsHi5WIDs6NPfAtr3HMWrq0h9CZS1htvRJAu3Nu45iwuyVuH7rnhqDhNhyGGWNysXgtWpboPc1NxZzhqbg0rS1itwzsGJpmC11/b4QCLityJu377Fs7U6s3rRPveCQVdnyHKRNmVTtiV2pdEG1z7rfIs/L+Fkr1DYapvmQlfEdWtRQW8I06TQYL1+9YZj9f2jyMyEvPuRn4tT5a3j56q36E9m+pkShnPCoWBRZMqRS7gGLPIeDxi3AopVbzb7gMPds8c8pQAEKUIACFKAABShAAQpQgAIUoAAFvgkwzOaTECoC0xasxtgZy1XI3Ktjg1Dpgy1v+uHjv+jcdzx2HzytVrC3qF/Zls2zLScTuHX3IZp3GYpXb97525rHyYbB7lKAAhSgAAUoQAEKUIACFKAABShAAV0JMMzW1XS4RmdkT+gOf47D0VMXze4x7Uwi+46cQfteY5EoQRxMH/F7sAd1OtO42FfrBGRV9tCJXpi/bJPaU3tI7zZWfylh3R15NQUoQAEKUIACFKAABShAAQpQgAIUcA0BhtmuMc8OH+WuAyfVFguy8jpHljTqYEHZtkH2yR45dSm27TkGOcBQQl/ZU9gIRbaB6TFwKjZsP4TabiXRu3MjhphGmFgrx3D01CW06zEK4cKG/WHLFiub4uUUoAAFKEABClCAAhSgAAUoQAEKUIACfgQYZvNxsIuAaQ/qoBqPHzcWJgzqhKwZUtnl/qHV6JXrd9Gy23A8ff4SXVrXVgdx+t1nPLT6xfs6RsB00Ob12/c5/44h510oQAEKUIACFKAABShAAQpQgAIUcCEBhtkuNNmOHKqswJ4yzxeySvXewydqVbbpoMqKJfOjYc1yiBUzmiO75LB7bdp5RK3QljKwR0u11QQDbYfxh9qNHjx+hs59J6iDOwMe2BlqneKNKUABClCAAhSgAAUoQAEKUIACFKCAgQQYZhtoMjkUClCAAhSgAAUoQAEKUIACFKAABShAAQpQgAJGFWCYbdSZ5bgoQAEKUIACFKAABShAAQpQgAIUoAAFKEABChhIgGG2gSaTQ6EABShAAQpQgAIUoAAFKEABClCAAhSgAAUoYFQBhtlGnVmOiwIUoAAFKEABClCAAhSgAAUoQAEKUIACFKCAgQQYZhtoMjkUClCAAhSgAAUoQAEKUIACFKAABShAAQpQgAJGFWCYbdSZ5bgoQAEKUIACFKAABShAAQpQgAIUoAAFKEABChhIgGG2gSaTQ6EABShAAQpQgAIUoAAFKEABClCAAhSgAAUoYFQBhtlGnVmOiwIUoAAFKEABClCAAhSgAAUoQAEKUIACFKCAgQQYZhtoMjkUClCAAhSgAAUoQAEKUIACFKAABShAAQpQgAJGFWCYbdSZ5bgoQAEKUIACFKAABShAAQpQgAIUoAAFKEABChhIgGG2gSaTQ6EABShAAQpQgAIUoAAFKEABClCAAhSgAAUoYFQBhtlGnVmOiwIUoAAFKEABClCAAhSgAAUoQAEKUIACFKCAgQQYZhtoMjkUClCAAhSgAAUoQAEKUIACFKAABShAAQpQgAJGFWCYbdSZ5bgoQAEKUIACFKAABShAAQpQgAIUoAAFKEABChhIgGG2gSaTQ6EABShAAQpQgAIUoAAFKEABClCAAhSgAAUoYFQBhtlGnVmOiwIUoAAFKEABClCAAhSgAAUoQAEKUIACFKCAgQQYZhtoMjkUClCAAhSgAAUoQAEKUIACFKAABShAAQpQgAJGFWCYbdSZ5bgoQAEKUIACFKAABShAAQpQgAIUoAAFKEABChhIgGG2gSaTQ6EABShAAQpQgAIUoAAFKEABClCAAhSgAAUoYFQBhtlGnVmOiwIUoAAFKEABClCAAhSgAAUoQAEKUIACFKCAgQQYZhtoMjkUClCAAhSgAAUoQAEKUIACFKAABShAAQpQgAJGFWCYbdSZ5bgoQAEKUIACFKAABShAAQpQgAIUoAAFKEABChhIgGG2gSaTQ6EABShAAQpQgAIUoAAFKEABClCAAhSgAAUoYFQBhtlGnVmOiwIUoAAFKEABClCAAhSgAAUoQAEKUIACFKCAgQQYZhtoMjkUClCAAhSgAAUoQAEKUIACFKAABShAAQpQgAJGFWCYbdSZ5bgoQAEKUIACFKAABShAAQpQgAIUoAAFKEABChhIgGG2gSaTQ6EABShAAQpQgAIUoAAFKEABClCAAhSgAAUoYFQBhtlGnVmOiwIUoAAFKEABClCAAhSgAAUoQAEKUIACFKCAgQQYZhtoMjkUClCAAhSgAAUoQAEKUIACFKAABShAAQpQgAJGFWCYbdSZ5bgoQAEKUIACFKAABShAAQpQgAIUoAAFKEABChhIgGG2gSaTQ6EABShAAQpQgAIUoAAFKEABClCAAhSgAAUoYFQBhtlGnVmOiwIUoAAFKEABClCAAhSgAAUoQAEKUIACFKCAgQQYZhtoMjkUClCAAhSgAAUoQAEKUIACFKAABShAAQpQgAJGFWCYbdSZ5bgoQAEKUIACFKAABShAAQpQgAIUoAAFKEABChhIgGG2gSaTQ6EABShAAQpQgAIUoAAFKEABClCAAhSgAAUoYFQBhtlGnVmOiwIUoAAFKEABClCAAhSgAAUoQAEKUIACFKCAgQQYZhtoMjkUClCAAhSgAAUoQAEKUIACFKAABShAAQpQgAJGFWCYbdSZ5bgoQAEKUIACFKAABShAAQpQgAIUoAAFKEABChhIgGG2gSaTQ6EABShAAQpQgAIUoAAFKEABClCAAhSgAAUoYFQBhtlGnVmOiwIUoAAFKEABClCAAhSgAAUoQAEKUIACFKCAgQQYZhtoMjkUClCAAhSgAAUoQAEKUIACFKAABShAAQpQgAJGFWCYbdSZ5bgoQAEKUIACFKAABShAAQpQgAIUoAAFKEABChhIgGG2gSaTQ6EABShAAQpQgAIUoAAFKEABClCAAhSgAAUoYFQBhtlGnVmOiwIUoAAFKEABClCAAhSgAAUoQAEKUIACFKCAgQQYZhtoMjkUClCAAhSgAAUoQAEKUIACFKAABShAAQpQgAJGFWCYrXFm7z19r7EFVqcABUJbIF7MiHjl7W0oAAAgAElEQVT59hM+ff4a2l3h/SlAAQ0C4cKGgfw8P3z+QUMrrEoBCuhBIHrk8ECYMHj97pMeusM+UIACGgQSxo6EJy8/4svX/zS0wqoUoEBoC/wULgxiRYuAxy8/hnZXnP7+SeJGdvoxhOYAGGZr1GeYrRGQ1SmgAwGG2TqYBHaBAjYQYJhtA0Q2QQGdCDDM1slEsBsUsIEAw2wbILIJCuhAgGG27SaBYbY2S4bZ2vzAMFsjIKtTQAcCDLN1MAnsAgVsIMAw2waIbIICOhFgmK2TiWA3KGADAYbZNkBkExTQgQDDbNtNAsNsbZYMs7X5MczW6MfqFNCDAMNsPcwC+0AB7QIMs7UbsgUK6EWAYbZeZoL9oIB2AYbZ2g3ZAgX0IMAw23azwDBbmyXDbG1+DLM1+rE6BfQgwDBbD7PAPlBAuwDDbO2GbIECehFgmK2XmWA/KKBdgGG2dkO2QAE9CDDMtt0sMMzWZskwW5sfw2yNfqxOAT0IMMzWwyywDxTQLsAwW7shW6CAXgQYZutlJtgPCmgXYJit3ZAtUEAPAgyzbTcLDLO1WTLM1ubHMFujH6tTQA8CDLP1MAvsAwW0CzDM1m7IFiigFwGG2XqZCfaDAtoFGGZrN2QLFNCDAMNs280Cw2xtlgyztfkxzNbox+oU0IMAw2w9zAL7QAHtAgyztRuyBQroRYBhtl5mgv2ggHYBhtnaDdkCBfQgwDDbdrPAMFubJcNsbX4MszX6sToF9CDAMFsPs8A+UEC7AMNs7YZsgQJ6EWCYrZeZYD8ooF2AYbZ2Q7ZAAT0IMMy23SwwzNZmyTBbmx/DbI1+rE4BPQgwzNbDLLAPFNAuwDBbuyFboIBeBBhm62Um2A8KaBdgmK3dkC1QQA8CDLNtNwsMs7VZMszW5scwW6Mfq1NADwIMs/UwC+wDBbQLMMzWbsgWKKAXAYbZepkJ9oMC2gUYZms3ZAsU0IMAw2zbzQLDbG2WDLO1+THM1ujH6hTQgwDDbD3MAvtAAe0CDLO1G7IFCuhFgGG2XmaC/aCAdgGG2doN2QIF9CDAMNt2s8AwW5slw2xtfroMs//9+hF9dnZDjoS54Zm5mcYRsjoFjC/AMNv4c8wRuoYAw2zXmGeO0jUEGGa7xjxzlK4hwDDbNeaZozS+AMNs280xw2xtlgyztfnpLsy++uIyWq2vj4tPzyFy+CjY1uAIkkdPqXGUrE4BYwswzDb2/HJ0riPAMNt15pojNb4Aw2zjzzFH6DoCDLNdZ645UmMLMMy23fwyzNZmyTBbm5+uwuz5Z2agx46O/kaUO1F+rK61Q+MoWZ0CxhZgmG3s+eXoXEeAYbbrzDVHanwBhtnGn2OO0HUEGGa7zlxzpMYWYJhtu/llmK3NkmG2Nj9dhNlvP71B163tsPrKcjWaBlmao1vBP1HBqzAevXuAnoX+Rvs83TSOlNUpYFwBhtnGnVuOzLUEGGa71nxztMYWYJht7Pnl6FxLgGG2a803R2tcAYbZtptbhtnaLBlma/ML9TD77uvbqO/jBtleJHqEGBhbbgYqpHJTo9p9ezvq+VRR//+megeQJV52jaNldQoYU4BhtjHnlaNyPQGG2a435xyxcQUYZht3bjky1xNgmO16c84RG1OAYbbt5pVhtjZLhtna/EI1zL7x8ipqrayI+2/uImfCvJhVeQkSRk3sb0Q9d3TCvDPTkSZWOmyufxARw0XSOGJWp4DxBBhmG29OOSLXFGCY7ZrzzlEbU4BhtjHnlaNyTQGG2a457xy18QQYZttuThlma7NkmK3NL9TC7PNPz6D2yop4/uEZssfPhaUeGxA9QvQfRvPxyweUWpgXN19dQ6uc7dGv6DCNI2Z1ChhPgGG28eaUI3JNAYbZrjnvHLUxBRhmG3NeOSrXFGCY7ZrzzlEbT4Bhtu3mlGG2NkuG2dr8QiXMPvbgEDx9q+L1v68hBzwuqb4WUcJHDXIkpx4fR5WlxfD1v69Y5rERhZIW0zhqVqeAsQQYZhtrPjka1xVgmO26c8+RG0+AYbbx5pQjcl0BhtmuO/ccubEEGGbbbj4ZZmuzZJitzc/hYfa+u7vQZHVNvPv8FoWTFse8qisQOXwUs6MYfuBvjDkyBImiJsGeRqcsqmO2UV5AAYMIMMw2yERyGC4vwDDb5R8BAhhIgGG2gSaTQ3F5AYbZLv8IEMAgAgyzbTeRDLO1WTLM1ubn0DB70/W1aLa2tupx+VRVMLuKt1W9L7EwJ648vwTfWtuRJ1EBq+ryYgoYWYBhtpFnl2NzJQGG2a402xyr0QUYZht9hjk+VxJgmO1Ks82xGlmAYbbtZpdhtjZLhtna/BwWZq+5ugK/bmyKz18/o0IqN0yrtAjhw4a3qvdSf9XlpRhXbiZqZqhvVV1eTAEjCzDMNvLscmyuJMAw25Vmm2M1ugDDbKPPMMfnSgIMs11ptjlWIwswzLbd7DLM1mbJMFubn0PC7MXn56Hb1nb4D//BLU0NTK44D2HDhLW650MP9MO4I8Pwe4E+6Jyvp9X1WYECRhVgmG3UmeW4XE2AYbarzTjHa2QBhtlGnl2OzdUEGGa72oxzvEYVYJhtu5llmK3NkmG2Nj+7h9kzTk7AX7u7q156pK+L8eVnIQzChKjXi87Oxu/bf0XdTI0xqsyUELXBShQwogDDbCPOKsfkigIMs11x1jlmowowzDbqzHJcrijAMNsVZ51jNqIAw2zbzSrDbG2WDLO1+dk1zJ5yfCz+2fttBXWTbK0xqMQYTb2VwyNrr6yIQkmLY5nHBk1tsTIFjCTAMNtIs8mxuLIAw2xXnn2O3WgCDLONNqMcjysLMMx25dnn2I0kwDDbdrPJMFubJcNsbX52CbO9LyzE6EODcfPVNdW7drk6488igzT2FLj1+gYKzc2Mn6Mnx8EmFzS3xwYoYBQBhtlGmUmOw9UFGGa7+hPA8RtJgGG2kWaTY3F1AYbZrv4EcPxGEWCYbbuZZJitzZJhtjY/m4bZKy8twahDg3DtxWXVq3SxM6BTvh5qexFblaQToqim7rZ/Z6sm2Q4FnF6AYbbTTyEHQAElwDCbDwIFjCPAMNs4c8mRUMBZwuw7r2/hxcfnyBovByeNAhQIRIBhtu0eC4bZ2iwZZmvzs0mY/eHLe7Re1wBbb37b+qNw0uL4NU9XlExeTmPvfqxecF4m3H51E/ubnEPy6Clt3j4bpIAzCjDMdsZZY59tIXDw3h5sur4WpVNURJGfS9iiyVBtg2F2qPLz5hSwqQDDbJtyWtXYsQeH1KHxc9yWWVWPF1MgKAFnCLOnnRiHIfv7IUK4CFhSfS1yJMjDCaUABQIIMMy23SPBMFubJcNsbX6aw+xXH1+i0WoPHHlwAAmjJsaiar7IGCeLxl4FXb3OqkrYe2cnllRfh6I/l7TbfdgwBZxJgGG2M80W+6pF4OXHF9h2cyM2X1+H7bc2Qf4OklIhlRtmVVmqpWld1GWYrYtpYCcoYBMBhtk2YbS6kXFHh2Ho/n6qnrfHBrXIhoUCWgX0HGZfeX4JXba2hrzEMZXI4aNgYTUfFEhcROvQWZ8ChhJgmG276WSYrc2SYbY2P01h9qN3D1DPxw0Xn55DyphpsLj6GiSLnkJjj4Kv3m1rO3idn4sRpSehfuamdr0XG6eAswgwzHaWmWI/tQiMPzocQ/b/5a+JNLHS4er/bW11osUNxI+cQMstQr0uw+xQnwJ2gAI2E2CYbTNKixp6+PY+ft3UDPvv7vp+fbmUlbk62yI9XmROQK9htt+XN+njZMLoMlMx+dgYrLm6AhJoz3Vbbogv18zND/+cApYKMMy2VMr8dQyzzRsFdwXDbG1+IQ6zr7+8gjorK+PemzvIEDezWvkQN1I8jb0xX33skaEYdqA/OuT5HT0K9TdfgVdQwAUEGGa7wCS78BCPPzyM37a2xaVn55VCjQz1UCp5efWPM/kiqOPmFlh+0Qu9Cv2jtrhy5sIw25lnj32ngH8BhtmOeyK23FiPTlta4sWH5+qg+HHlZqDJmlp4/e8r7Gl0CqlipnVcZ3gnQwroMcyuvbIi9v3fy5tOef9A94L/e+HfflMzyHlWUuZXXYnSKSoYcl44KApYK8Aw21qxoK9nmK3NkmG2Nr8QhdmnHh+Hp09VPP/wDHkTFcQC91WIHiGGxp5YVl3+Upa/nOVQyQnlZ1tWiVdRwOACDLMNPsEuOrw3n95g6L6/MOv0ZCUgK46Gl56o/t7xW2Tf7BoryqsvhPY2Ou3UWgyznXr62HkK+BNgmO2YB2LO6anovbOLulmlNNXUylT5d8mAvb0w+fgYNMveFgOKj3JMZ3gXwwroLcyef2YGeuzoqF7qS1idJV72H+y7bm2Lxefnqf9+ZuUlqJi6qmHnhwOjgKUCDLMtlTJ/HcNs80bBXcEwW5uf1WH2njs70HxtHbz99Ea94Z1eeREihYussReWV5e9wKouK4ncifJjda0dllfklRQwsADDbANProsO7dbrG6i5vLz6+kf+julWsA/a5eocpEaxBTlw7cVlLK+xEQWTFHNaNYbZTjt17DgFfhBgmG3/h0LO7Km2rLS6kQTWElybyu3XN1Fwbib1d8ix5lcRM2Is+3eIdzCsgJ7CbNnqs9j87JCX/tMqLUSVNB5BukvgLcF3giiJcLz5NcPODwdGAUsFGGZbKmX+OobZ5o0YZmszCrb2vafvLW599ZXlaLuhkbreI30dTCg/x+K6trrw8buHyDkrldoXVfZHZaEABQCG2XwKjCQg/0ir5l0aEmiXTVkJQ0qOQ+JoSYMdoqy+k1V4sgXJ+HKznJaDYbbTTp3DOz7l+Fjcf3MXORLkRtb4OZE+TkaH94E3DF6AYbZ9n5CnH56gvFdBPHh7D7/l64WuBf784YYt1tXDhmu+6F14IH7J/W31NgsFQiKgpzC71XpPrLu6Si0sk1XZ5kq6KfHx7vNbXGj9ENEjRDd3Of+cAoYWYJhtu+llmK3NkiuztflZvDJ73pnp6Lmjk7pb02xtMLDEaI13Dnn1pBOiqMpX2z116KrwkPeYNSlgXwGG2fb1ZeuOE5BwwmNZGXWoY9W0NTGl4nyLbv7k/WPkmJkCEcNFwonm1xEjYkyL6untIobZepsRffbH9JWa395F+ykacibMC7e0NdAoa0t9dtzFesUw274TXs+nCnbf3o4CSYpiRY1Ngd7MtA1VoqhJcLTZFft2iK0bWkAvYbbsD99kTU31+86uhifUHvHmSjmvAjj39DTW1t6l/p5goYArCzDMtt3sM8zWZskwW5ufRWH28AN/Y8yRIepOQa180NgNq6qXXJgLl59fxM4GJ5A2dnqr6vJiChhRgGG2EWfV9cb08uML1FheDheenUWxZKWwuNpaqxBarq+P9Vd91MtWeenqjIVhtjPOmmP7/OHLe5RdVAByEHetjJ6I8VNMHH90BHJQqqmsq7NHrdhmCV0Bhtn28x9x8B+MPjwYcSLFxZb6h9S+wUGVMovyqb9X5ItS+bKUhQIhEdBDmC3bfBZfkFN9jWDNodftNjSG75VlGFt2hvp7g4UCrizAMNt2s88wW5slw2xtfmbDbPmM9Z+9PdVd/ikxEs2ztdN4R+3VG632wLabGzHXbbn6BJ2FAq4uwDDb1Z8A5x+/7PtYa0V5nH58Atni58TyGpsQ9adoVg1M/l6Qvx8yxc2qwg1nLAyznXHWHNvnvrt+x8xTE5E/cWGsrLnF380l3JOQT1beyQo8ltAVYJhtH/8dt7eggY+7atyr2hoUT/Ztz+ygitf5uei2tZ36u2VD3X326RRbNbyAHsLsPju7qkOxZTGXLOqytIw8OACjDg/Cr3m6qhCchQKuLMAw23azzzBbmyXDbG1+wYbZO25tRgPfauoOkyvOg3vaWhrvZpvqcmK5nFwe8KAX27TOVijgfAIMs51vztjj/wlcenYeLdfVU1uLpIqZFr61t6vVdiEp+eakV4dGSmAhwYWzFYbZzjZjju3vgXu7UXNFBfV5+TbPw0gZM80PHSg0N7Pab3502Wmok7GhYzvIu/kTYJht+wfi5KNjqO/jBvmSp2Oe7vijUD+zN/n45QPyzE6L5x+ewafWNuRNVNBsHV5AgYACoR1mn3h4BFW8i6tu+dbajjyJClg8SbIqW1ZnV0ztjpmVF1tcjxdSwIgCDLNtN6sMs7VZMszW5hdkmH3l+SW4eRfD639fY1CJMWiSrbXGO9muumm1eJucndC36GDbNcyWKOCkAgyznXTi2G2MOzoMQ/d/CyPiR0mINbV3WrT/Y1B0pk/PG2dthcElxzqdMMNsp5syh3VYDu8qvSgvbr+6iT+LDEK7XJ0DvbccdieH3sWLHB97G5+F7KXNEjoCDLNt5y6H0M84MRFHHhxQjQa3T3Zgdx28vy8mHB3BMM92U+JyLYV2mF17ZUXsu7sLnpmbYXjpiVb5n396BmW98lu9otuqm/BiCjiJAMNs200Uw2xtlgyztfkFGma/+vgSlZYWxY2XV9EwSwsMLTVe411sW930D7VKaaphRiUv2zbO1ijghAIMs51w0ly8y7Iau9Pmljj1+LiSkMMe/y4+HAmiJNIkc+f1LRSYmxHRI8TAiRbXne6QYIbZmqbf0JX/2N4BC87OVHthy57YwRVZvS2ruFvl6IB+xYYa2kXPg2OYrX12Jh4didmnp+D+m7uqsSjho6Je5ibonL8H4kaKZ/ENZI9hWZ0t5VKbR1ZvY2XxjXihYQVCM8zusLk5VlxcDDnIdJvnEcSMGMsqZ/k6IfXkOKrO3fbvrKrLiylgNAGG2babUYbZ2iwZZmvzCzTMls/3dt3eZvWqB41dsbj6mScnUWFxIWSOmw2b6x+0uB4vpIBRBRhmG3VmjTmuuaenodfOb6tKk0dPicGlxqJk8nI2G6ynb1XsvLUV48rNRM0M9W3WriMaYpjtCGXnu8fu29tRz6eK6vi2+keQIW7mYAdx7ulplPP69gn6jgbHkS52BucbtAF6zDBb2yTK3vCyR7yUZDFSoEWOX1AvU1NEjxA9RA2bDoLc7nkU6eNkClEbrOS6AqEVZk86NhoD9/VWL+dX1doa4i3UTFtQyV7bsuc2CwVcVYBhtu1mnmG2NkuG2dr8fgizu25ti8Xn56lfGtfX2YvYkb69xdVTkZXjmaYnVr/MXmj9UE9dY18oYHOB9puaYuWlpYgRMaZakRQ5fBRE+SkKYkWKjaXV16v7Mcy2OTsbtJPAqstL8evGpqr1Dnl+R49C/W1+J1MA0jpnR/xVdIjN27dngwyz7anrnG0//fAEdVdWhnwm3q1AH3TJ9+1QbnPl922/YtG52SiUtDiWeWwwdzn/3A4CDLNDjirPfeG5mSGHA48tOwO1MnqGvLH/q9l4dQ1svbkBC919bPoCVXPH2IBTCIRGmL3lxno0WVNT+cjXyPJVckiLHJAtB2XPrLwEFVNXDWkzrEcBpxdgmG27KWSYrc2SYbY2P39htgQMEjRIYCb7lppb+aPx1pqqZ5yWUO3nfb7VfRXysVDAiAKt1zfA2qsrgxzayppbkD9xYYbZRpx8A47JdHidDE0O7ZLDu+xR1l/1Qcv19eGWpgamVlpgj1vYrU2G2XajdcqG5dPwGivKQw7+ypEgD9bV2W3xOJ68f4zC87Lg7ac3mFZpIaqk8bC4Li+0jQDD7JA7ml7G2PJ/x00HyA8pOQ6NsrYMeedY0yUFHB1mX3h2FlWXloScl9C94F/olPcPTe5/7+mJqSfGolehf/Brnq6a2mJlCoSmgJy1c/ThQcyq4h2ic0EYZttu9hhma7NkmK3NT4XZ8g+dJmtqYf/dXWoPudlVvFHk5xIaW7Zv9YpLCuP04xPYUHdfiD+3sm8P2ToFtAk0XVMLm2+sU3v/jiozBbEjxf3eoNe5OVh+0Qu/5P4NvQsPYJitjZq1HSBw+flFVPUugdf/vrL7WQwS/FXxLo7cifJjda0dDhid7W7BMNt2lkZoybTIQA5H3VzvgDok1Zoy+fgYDNjbS/2eJL8vsThWgGF2yLzlLIVKS4qobRV2NzqJJNF+DllDAWqZtmuQIE8CPRYKWCPgyDD72YenakvNe2/uwD1tLUyuOM+argZ6rXypIy+J5CsH+dqBhQLOJnD0wUF02twK119eUV3PGCcLFldfY/XvRgyzbTfzDLO1WTLM1uaH03dvw3NVVcg+1HLyvVf1NWovar0XWXUnq++42kjvM8X+WSvw4ct7SJAte6SathLJEi+7v2b23tmJOqsqIVPcrNhS/xDDbGuReb1DBR6/fwS3pcUhhzPKp63yias9y6N3D5BrVmp1UNLRZt9+4XWWwjDbWWbK/v0cc2QIhh/4W91ofd29yB4/l9U3lZdHGaclUqHg1XZPra7PCtoEGGaHzK/y0mI4+eiozb/g8bnsjV82NoFH+jqYUH5OyDrHWi4r4Mgw23SIrxz4K19hRgwXSbP7ofv74LG8LHImzIu1tXdpbo8NUMBRAvJ1woC9vSFn7gQssjXuQndfpImVzuLuMMy2mMrshQyzzRIFewHDbG1+SDk6DW6+uqa2FFlY1QeJoyXV2KJjqps+lepTZDDa5urkmJvyLhSws4B8JdFodQ0cvLcHCaIkgrfHhiAPaUk/NYH6qkLCuqxJUuHl20/49PmrnXvI5ilgnYD8AuqxrKx6YZo3UUEs9Vhnk3+UmetF0glR1CV3278zd6mu/pxhtq6mI9Q6I9tLyTZTUiZWmIPq6eqEuC+ZpyfBy48vcLrlbcTx84VPiBtkRYsFGGZbTPX9QvnqrOPmFkgeIxX2Nz5rfQPB1Dj24BCqLiuJfIkKqYP0WChgjYCjwmx5iSkvM+NGiofN9Q8iYdTE1nQzyGtltXe2GcnUtgwX2zyySZtshAL2Fth/dzc6bG6O+2/uqlvJeThdC/yJr1+/oOHq6pDV2rL4S3IseVFjSWGYbYmSZdcwzLbMKairGGZr80OY/mHUliIzKy8N8engGrsQouqzT03Bn7t+Q9NsbTCwxOgQtcFKFNCLgKxYnXJ8DLzOzoWszP45enJ419iA5NFTBtlF09cJw0tPRMdCbRlm62Uy2Q9/AqYDh9LHyYhVNbchZsRYDhEqOC8Tbr+6iSNNLzvNS1qBYZjtkMdD1ze58fIqyizKr/4usMV2CLJdg2zbICvxLP2Hnq6BnKhzDLOtmyx5QV9kfjY8fvcQ86uuROkUFaxrwMzVD97eQ57ZadW2JYebXrJp22zM+AKOCLN33N6CBj7uClMOebf1tp9ZZ/yM5x+e4VizqzYLyY0/8xxhaAncen0DZRflV4u35DDrwSXHIl3sDN+7I78ntdvQGJuur0Xk8FHUOTllUlQ0212G2WaJLL6AYbbFVIFeyDBbmx9WndmqDpBztrLj1mY08K2GUsnLY4H7KmfrPvtLASUg+75POjoKvleWfReRv4QloDa3EkP2ze627RdUSOUGX08fhtl8pnQnYDrAS/b5lYPrbLXvqSUDlU9p5ZNa31rbkSdRAUuq6OIahtm6mIZQ64RsrdDQtzpkBZ0EeRLoaS1t1jfEmqsrMKnCXFRLV1trc6xvhQDDbCuwALW/u+zzXi5lZcxx+9/vRda1EvzVzvrVji0N2FbIBOwdZsv+2GW98qsvaX4v2Bed8/YIWUeDqVVjeTkcvL/XLkG5zTvLBl1ewH1ZKbXyun6mJhhRZnKQHn9s74AFZ2davL0gw2zbPVoMs7VZMszW5qcOgHTGcuX5JZRYmFPtj7Sr4UlnHAL77OICY48MxbAD/b8r1MvUGG1zd/H3xjk4oodv7yP37DTq0NZn3V8yzHbx50lvw594dCQG7e+jDjCVQDl9nEwO7aLp4LwpFeejatqaDr23lpsxzNai59x1t9xYDwmeZaWRrMabVcVbfQ6utQzc9ycmHRulDryTld4sjhNgmG25tQQREkhI2d/kXLBfplne6o9XFp6XVW2veKDJeSSLnkJLU6zrYgL2DrNlCxzZCqdYslJYXG2tXXRNiwwGlRiDJtla2+UebJQCthAYeXAARh0epLac2up5CFHCRw222ewzkuPphye40Pqh2d0GGGbbYoa+tcEwW5slw2xtfk4bZss/9tJMjqtG72x7omqcMlY3gECfnV0x6/RktXdwixy/oHXODlafxCwM5RcXxNknp7DecxPyJCjOPbMN8GwYYQgrLy1B+03N1FDk4KLQ+PrHtMLvr6JD1P56zlIYZjvLTNm2n3KoUa+dnVWjDbO0wNBS4212g/lnZqDHjo5mVzbZ7IZs6LsAw2zLHoYlF+bjty1t1MX2fgFpOlhvRY1NKJCkqGUd5FUUAGDPMLvvrt8x89REtbJUDnaPHSmOXcynnRiH/nt6oFn2thhQfJRd7sFGKaBV4PjDw3DzLqGaWVN7J3IlzGe2yWrLSuPIgwNYXWsHcifKH+z1DLPNclp8AcNsi6kCvZBhtjY/pw2zZdg5Z6VS++odb35NHZbHQgFnEJCQT8K+GBFjqk/I5VC8kJYh+//C+KPD0alAF/QuNJhhdkghWc9mAnvv7ESdVZVUezMqeaFSmmo2a9uahuRlkbw0apmjPfoXG2ZN1VC9lmF2qPKHys1NB1rLzeUMEDkLxJZl1+1tqO/jplZ7yx6sLI4TYJht3nrFxcXqcC8pkyvOg3vaWuYrabii05aWWHZhEcaVm4maGepraIlVXU3AXmH2uqur0Gq9p+K09wKA7bc2qa2s7Ln629WeC47XtgJvPr1BWa986tyb3/L1Uoc9WlK6bW0Hr/NzMarsVNTN2CjYKgyzLRG17BqG2ZY5BXUVw2xtfk4dZldfVgaHH+xXJ5LLyeQsFNCzwPvP79BybT3I4S6JoyXFIvfVkEPxtBR5/uXnIH2cDNjT+CTDbC2YrKtZQJ7HRr7V8frf1+qQlsZZW2luM6QNbLi2Gi3W1UXlNNUxvdKikDbj8HoMsx1OHqo3NB1mLS83Z+cDyDgAACAASURBVFRabPPDvmRwcqCkHKonBwrL9g0sjhNgmB289eory9F2w7fQwRFBttxnxMF/MPrwYHQv+Bc65f3DcQ8D7+T0AvYIs+V8hOILcqhDGfsUGYy2uTrZ1en265soODeTxXsL27UzbJwCgQiYXjjK6mpZZW1pMX118EvuLuhdeGCw1RhmW6pq/jqG2eaNgruCYbY2P6cOs00rXMeXm4UaGepplGB1CthPQMK9Br7u6hAL2Tt4kbuvCrRtUTJNT4xXH1/iSPMLSBwluS2aZBsUsEpAnr+/9/RQKyKkdMjzO3oU+t9+8FY1ZqOLTz0+jkpLiqhPE+UTRWcpDLOdZaa091O+LCs6PxtkFdKsKkvVYb72Kjz0zl6ywbfLMDtonw3XfNFi3bff3SeUnwOP9HUcMkmmw7M9MzdTh22zUMBSAXuE2fJVgnyd4MgX76knx8HHLx9wsc0jm5zLYKkfr6OAOYGB+3pj0rHRiBw+CrZ5Hlb7ZVtadtzajAa+1VA2ZSXMdVsebDWG2Zaqmr+OYbZ5o+CuYJitzc+pw+yh+/th3NFhXF2h8RlgdfsL1F1VGXvu7FBfEMx3X6kOxbNV+WVjE/hc9sbgUqPROIttP0+3VR/ZjnEF5PPYXjs64/H7R2rrnH7Fhpn9vM8RGk/eP0aOmSmQMGpiHGt21RG3tMk9GGbbhNEpGjG9kC+erDS8qq2xa58LzM2IO69v8dA7uyr/2DjD7MDB/a7InlB+NjzS13XYzOy+vR31fKqgZLKyWFjN12H35Y2cX8DWYbYpfJOD3Hc3PKl+X3FEKedVAOeensa6OnuQI0FuR9yS96CAWYE+u7ph1qlJ6roxZaejdsYGZuv4vcD01UGKGKmxr/GZYOsyzLaKNtiLGWZrs2SYrc3PqcNsWQUo+yPVy9QYI8tM0SjB6hSwj4ApsJBPvNfX3YtYkWLb9EbLL3qh4+YWKJWiHBZU9bFp22yMAkEJvPz4Ap23tMKm62vVJbKqdGjpCYgfOYFu0JxxNSrDbN08PnbtyL67u1B7ZUV1D9n6Q/5+sGcxHXq3pPo6FP25pD1vxbb9CDDM/vFx8L6wUP3dIWV02Wmok7GhQ5+Zqy8uq20d0sRKh10NTzr03ryZcwvYMsyWrQeLL8iJe2/uqIMY5UBGR5V2GxrD98oy7hvvKHDex6yA6d/KcqF8MSNfzoSkmL46uNbuGSKGixRkEwyzQ6IbeB2G2dosGWZr83PqMNv0j8GCSYpheY2NGiVYnQK2FzAd0CgrVtfW3oXUsdLZ/CZPPzxB9hnfthe52u4pIoWLbPN7sEEKBBTosrU1lp5fgHiR42NAiVGomram7pAKzc2MW69v4FCTi0gaPZnu+hdYhxhmO8U0ae6khGkSqjlq396uW9ti8fl5GFF6Eupnbqq5/2zAMgGG2f6dTFt8yH8bWs/ihy/vkWZyXPW7kvzOxEIBSwVsGWb33fU7Zp6aqFZGywppR5ZRhwdh5MEButgSzpHj5r30J+D3PCnp3czKi1ExtXuIO1pxSWGcfnwCm+odQJZ42YNsh2F2iIl/qMgwW5slw2xtfk4dZps+J/k5enIcbHJBowSrU8C2AvPPzECPHR1Vo94eG1A4aXHb3sBPa9VXlMDhe4fVHmGyVxgLBewpcOLhEVTx/vY86zkorrGiPA7e2+NUhwQzzLbnk6uPtscfHQ550Sl7Qe5vfNYhnRp7ZCiGHeiP9nm6oWehvx1yT94EYJj9v6dAgjsJ8KQMKjEGTbK1DrVHRLagkq2oTrW8hbiR4oVaP3hj5xKwVZh9/OFhuHmXUIM3F7rZQ0hWZcvq7EppqmFGJS973IJtUsCsgJy34+nrDvl5iB4hOua7r1LbcWopphXeEyvMQfV0QZ/DwDBbi7L/ugyztVkyzNbm59RhtgzdGT8j1zhlrO4EAltvbkDj1TVUTx3xGe2UU0Pxz67+aJy1FQaXHOsEQuyiMwtUXloMJx8dxa95uqJXoX90OxTTL7WTKsxFtXS1ddtPvx1jmO0U0xTiTt59fRv552ZQ9Zd5bEShpMVC3JY1FVdeWgL5eXBPWwuTK86zpiqv1SDAMPsbnuyDKvuhSvm7+HC0yP6rBlXtVeVwYDkkmHsGa7d0pRZsEWa/+PAc7stKqi9z2uTshL5FBzuc8PzTMyjrlR/pYmfAjgbHHX5/3pACcvC1nCcli2PiR0mIxdXXIGOcLJph5Cw1OVOtc94e+L1g3yDbY5itmfp7AwyztVkyzNbm5/Rhdt456XD/zV0caXoZiaMl1ajB6hTQLmBadSctOSrsu/nuDArPyg9+paB9/thC8AKyVYFsWSAHFe1tdFqdOK7XMmh/H0w8OhJ9igxG21yd9NpNf/1imO0U0xTiTspLTnnZWSujJ8aWnRHidqyteOzBIVRdVhK5EubDmto7ra3O60MowDAbOPrgINyXlVKCEtxJgBfapdV6T8jhxbIqVVanslDAEgFbhNl1VlXC3js7kSTaz9jV8ESo/A718csHyN7CUu62f2fJ0HkNBWwm8O7zW9RfVRVHHhxQX8b41N6GVDHT2qT9Ddd80WJdPVROUx3TKy0Ksk2G2TbhVo0wzNZmyTBbm5/Th9mm1RVysF72+Lk0arA6BUIucOPlVXTY3AISGkhx5Aq4eDEjIuGIuHjx8QXOtLyD2JG+/ZLKQgFbCshKiiLzsqjPs51htfPc09PQa2dntQpQVgM6Q2GY7QyzZH0fH7y9h/67e6hDt+QMhd0NT6n95h1VHr97iJyzUiFOpLg43fK2o27r8vdx9TD79b+v1ArQO69vOezlviUP3d97emLqibHoX2wYWuZob0kVXkMBaA2zW6yriw3XVquD6byqr0aBxEVCTbXwvKy4+eoadjc8aZfzfEJtYLyxrgXkzAJPn2pqC0D5XWhFjc3IFDerzfp85fkllFiYE+njZMR2z2NBtssw22bkDLM1UjLM1gh47+l7jS2EbvVGqz2w7eZGLHBfhVLJy4duZ3h3lxWYfWoK/tz1mxq/7PvVv/gI1M3YyGEeEmbnnZYbpx+fxOb6B5E5bjaH3Zs3ch0B04FF8g+wFTU3637gm66vRbO1tdVhMnKojDMUhtnOMEvW9XHK8bEYfuBvyD/ipIwpOx21MzawrhEbXJ12SjzIYUuX2jxC1J+i2aBFNmFOwNXD7Jbr62P9VR/kTJhXHYKtlzLj5AT8tbu7U73o1IudK/dDS5ht2vZM/PRwvo3p38+zq3ijfKoqrjytHLuDBOSLAHnu5MsE+R1kWY2NdlmIaMkWtAyzbTfpXJmtzZJhtjY/p1+Z3XlLa3hfWICRpSejXuYmGjVYnQLWCchqu06bW2LPnR2qorxQGVlmstqCwZFFwmy3RW7YfH095lZZhrKpKjvy9ryXCwhcfn4RZRblVSPd6nlE7bWo93L60XFUXFoEORLkVnujOkNhmO0Ms2RZH2UvyC5bW+PSs28HVJdIXgb9i40ItZ+dUovy4NKz86Fy4JhlYsa7ypXD7HlnZqDnjo6I9lM0bPE8jGTRU+hmgtdd9UGr9fVRMXVVzKy8RDf9Ykf0LRDSMFsOg5dD4cOGCYvx5WcFezCdowT67+2BacfHqQOB5WBgFgrYU+DTl3/RdG1t7Li1+duXCdV8USBJUbvcssTCXLjy/CJ2NDiGdLEzBnoPhtm2o2eYrc3SJcLsXoOnw2fj3u9Sv7Wpgxb1/xdWPX76Ao06DMLte4/UNRMGdUKpwv/bcmOm1zqMmrpU/VmBXJnUn0eJHEn9Z2dfmT1wX29MOjZaHUIm+xOzUMBRAj6XvSG/oMppzDEjxsKA4qNQI0M9R93e330kzG69ui3mnpqOYaUmoEGW5qHSD97UuAK1VlbE/ru70Dz7L/in+AinGOjTD0+QfUZydbjMiebXnaLPDLOdYprMdlK+GJMVSFLkUKN+xYahWLJv+waHVmmypia23FivwjsJ8VjsL+CqYba8wKm4pDBkJZ4cOCrbrumpnH58QvUvW/yc2FB3n566xr7oWCAkYfbAfX9i0rFRalR6+v3c69wcdNv2C+pkaojRZabpWJ1dM4LAqMODMPLgADWUhe4+KJm8nN2GZfoiSL7IlC8zAysMs23HzzBbm6Xhw+x37z9gwJj56NK6NuLHjYWzF2+gZddhGNSrlQqs5c/b9xqLIvmzqYBb/vy3fhMxqt+vyJIhJbbvO46hE7wwf3wvVV+CcSmDerZS/9fZw+xpJ8ah/54eaJ2zI/4qOkTb08TaFLBAQE4i7769PdZeXamulr8oh5QcqwKz0CoSZvfb/g8G7+uHLvl6oluBPqHVFd7XYAJLLszHmIODcev1DXVQy55Gp9U+d85SLPncUE9jYZitp9kIWV8kyHPzLo63n96oFz/yAkgPxbRNEPcJdtxsuGKYLdvpyHk28nNQL1NjjCwzxXHgFt7p2YenyDYjmTpfRM4ZYaGAJQLWhtmmrc6k7T+LDEK7XJ0tuY1Drjl4fy9qLC+H/IkLY2XNLQ65J2/imgKP3j1AoblZ1FZr48vNsvvCr2EH+mPskaH4o1A/dMzTPVB0htm2exYZZmuzNHyYHZAnsPC638g5mDS4swqrA/65hNdpUib9vpI7YLjt7GH2yktLIPuQeaSviwnlZ2t7mlibAmYE5PMo2dpGDtOSfwQNLDEa1dLVDnU3CbOnHJ6JTpta6/Yfj6GOxA5YJaBC7ENDcOvVtxXN8rJmROlJKJuyklXthPbFReZngxzOeqDJeV195h6UC8Ps0H5itN1fXnZKkCcvf37J3QW9Cw/U1qANa5v2CW6Wva36kojF/gKuFma/+/wWtVZUxMlHR9Whcpvq7Ufk8FHsDx2CO6SbEh/S36vtniJSuMghaIFVXE3AmjBbvtqU7Q4kyJMvh+ULYj0V+d2u0LwsSBEjNfY1PqOnrrEvBhPotKUlll1YpA48dcR5OysvLUX7TU2DzYYYZtvuIWOYrc3S5cJs05Yif7Svr1ZmBwynhdO0+vrPzo38rdqWPwu4ctvZw+zdt7ejnk8V9fnu4mprtT1NrE2BYATkEK9/9vZUV0iALUG2BNp6KBJm+5xbjzor3VAyWVksrOarh26xD04oIKfby0njEgBLSRwtqdpPsWm2Nk44GqD2yorYd3eXWnkkK5D0Xhhm632Ggu9fzRUVcODebpROUQHzq377ekcvZfONdWi6phbKpKiIeVVX6KVbhu6HK4XZEgw39KkOWfEp+2SvqrUNmeJm1e38llyYC3IWxM4GJ5A2dnrd9pMd04+ANWF2161tsfj8PN2e2SGHAcuhwPKy6UrbJ/pBZk8MJXDq8XH1gl/K+rp77XLgY0Cws09OofzigsgaLwc21tsfqCfDbNs9ZgyztVm6XJgdcJsQCbPne2/ytw92wDC7Ue3y3/fQDhhmP3v9r7YZCOXaZ5+cRvF5eZE5Xlbsbnw0lHvD2xtVoMumdph3ZpYa3ujyk9E4q772pI4R9Sccu3saBWblQKZ4WbCn8TGjTgXHZUeBy88uopp3eTx8+wDJY6RAl4I9dPesWzv8XzY0x5JzCzGjynx4ZKhjbXWHXx82bBjEiPITXrxx7r+bHQ6ngxt23NQaC8/MRZrY6bC1wT5EjxBDB736XxfOPzmLovNyI2PczNjb5Liu+mbUzkSOEA4IEwbvP3426hDVuCQYq7XcDQfu7kXUn6JhRa31yJs4v67HXHu5G7bd3IylNVajTMryuu4rO6cPgVjRIuDV20/4+t9/wXZo561tqLHs21ds8vu4/F6ux5JifDy8+fQaN9o/1t3fV3r0Yp+sF6iypBQO3N2HOpk8MbmSY76g//D5PZKOi4VI4SPjbscXgXY6fNgwiBo5PF6+/WT9oFjDn0Cc6BEookHApcJsCakfPHrmL7jWujL7w79fNPCHftX7b+4j9fhkiB8lPm51uh/6HWIPDCUgnwl6LHXHvjt7EeWnKFhccxnKpdLfP3oihA+LR2+fIfGoeIgZMSYe/PbUUPPgqMF8+fofZGWsK5bzT86j7PySkL1EiycvAd966xAxXESnp+i7408M3z8EA0oNQteCge+dp6dBytMX4aew+Pjpq566xb6YERh/eCy6b+mq9pPf3XQ/0sfR30rPD58/IPbwaAgXJhze9Pho0Zy68v8mWgRk5qLw4b79ffL5S/Dhly3uFVptvPv0DlUXV/r+e9KGBluQT+dBtlj9sr4NZp+YifEVJ6Flrtahxcf7OpFAxJ/C4v2/XxHcr4nvP79H1skZce/NXfQu2hd/Fuur2xFmm5IJV55fxsk2Z5E+Tgbd9pMdc06BlRdXwHNFHUQKHwnn2l1C4mhJHDaQjJPT4uaLGzjX9hJSxU79w33DhAF+ChcW/37m79paJyWSvLRnCbGAy4TZgQXZoiYrrV15z2wxcLYDvkL8tLOiQwVkP7kGvtVx7cVlxIscX23dIZ8s6bHINiPydjnFhDhqhdTlto8RJXxUPXaVfdKhgOxvWs/HDfLypujPJdUWBBHDRdJhT63v0rwz09FzRyc4yz7B3GbE+jkO7Rrbb21C582t8OT9YyxyX40SycuEdpeCvH+OmSlUP483v4YEURLptp9G6ZjRtxmR3zca+nqorXVk32mv6qudYjsneb7GHR2Gofu/HRAmB4WxUMCcgCXbjPTZ2RWzTk9G+jiZsN1T318Mm7bFWl5jIwomKWZu+PxzClglUGhuZnV+SKe8f6B7wb+sqqv14karPbDt5kb17xnZWi1g4TYjWoX/V5/bjGizdIkwO+DWIn7JAjsQ8rd+EzGq36/IkiHlD3tqB2zL2ffMFovsM5Lj6YcnONnipgodWSigVeDNpzco65UPt1/dVL+QLnT3QZJoP2tt1m71TWF2wTnZVPi+p9EppIqZ1m73Y8PGEZD9TRv5euDtpzfq7IG5bssNE2TLLG25sR5N1tRExdRVMbPyEt1PHMNs3U+Rvw7Kz4/nKnd8+PIe/xQfgebZf9H1ANy8S+D4w8PwqbUNeRMV1HVfjdA5o4fZv25silWXl6oge4H7KhRK6jyB2IqLi9Fhc3MeIG+EHzQHjcFcmH3kwQFUW1Za9WZdnT1qv2w9l3YbGsP3yjJMrjgP7mlr6bmr7JuTCUw7MQ799/RQh8fvbXRabT/lyPL3np6YemIs+hQZjLa5Ov1wa4bZtpsNhtnaLA0fZpsOfLx975E/qQK5Mn3fbiTgNRMGdfq+R7ZUmum1DqOmLlX1/daT/2yEMLvUojy49Ow8ttU/ggxxM2t7olibAgBMJy9nj58LSz3W634vOVOY7bGsAvbe2Qlvjw0onLQ455ICwQrI4VdyMIusriuZvBxmVVliqCBbBn/u6WmU8yqg20OYAk4Qw2zn+aGVg41qraigXgR1ztsDvxfU7+fkJtX2m5pi5aWlGF9uFmpkqOc82E7aUyOH2Qfv7UGNFd+2XVtafT2K/FzCqWZJXkTVWF4OBZIUxYoam5yq7+xs6AgEF2a/+PAcVZeVVAtKfsn9G3oXHhA6nbTirv12/4HpJ8ejf7FhaJmjvRU1eSkFgha4+PQc3JeVhCwMG1lmCuplauxwLjl8VQ5hrZ+pCUaUmfzD/Rlm225KGGZrszR8mK2Nx3xtI4TZdVdVxp47O7Ck+jr1iTwLBbQIrL6yHG03NFLbdGzxPIgUMX7ca0tL+/aoawqz261vhuUXvRhU2APZgG1WXFIYpx+fQOkUFTC/6koDjhCQf2BmmZEU8SMnwIkWN3Q/RobZup8i1UF5EVR9eWn1fDXN1gYDS4x2io7LtgqyvYJ88iuf/rLYV8DIYXZZr/w4//QMfs3TFb0K/WNfSDu0fvv1TRScmwk/R0+Og00u2OEObNJoAkGF2TdeXoWnTzXcfHVNfRW51fOQUywMmHRsNAbu6+004bvRnicjjUe+Tlt9eQUWnpmFww/2q6FljpsNm+sfDJVhHn1wEO7LSiFPogLwrbWdYbYdZ4FhtjZchtna/AyxMvuXjU3gc9kbE8rPgUf6OhpFWN2VBe69uYPSi/Lg9b+vMarsVNTN2MgpOExhdv/dvTHx6Ej1D0v5ByYLBYISGHagP8YeGYqk0ZNhm+dRRHPwJ4COnJk0k+OqbSDutn/nyNuG6F4Ms0PE5tBKcp6C+7LSePzuofqdQ373cJbidW4Oum37BbUzNsCYstOdpdtO20+jhtlzT09Dr52dkShqErWtWeTwUZxyjnjmjlNOW6h1OrAw+9iDQ2i8pgaef3iG1LHSYVE1XySLniLU+mjNjZddWKS+RK2V0RNjy86wpiqvpcB3AdlOxOvcbPVvZymyGMwjQ121vYf8TIRGkTOAMk1PrLY3udTG/+4G0h+uzLbdrDDM1mbJMFubnyHC7L67fsfMUxP5mZTGZ4HVAdNhKJXTVMf0SouchsQUZk8/Phm9d3ZxmsPunAbYYB098fAIqnh/24bGFQ7+Kb4gB66+uIz9Tc4hefSUup5Nhtm6nh71UqTsogK4/vIKyqWsjDluy/Td4QC92393N2qtrKAO+5KffRb7ChgxzJbQrvD8LOrA4KmVFsAtTQ37Itqx9Xxz0kMWMRxpehmJoyW1453YtBEEAobZG675osW6b9s15UtUCHOrLkfMiLGcZqi7bm9DfR83lExWVh1yz0IBawWarqmFzTfWff8Z8MzaDFXT1tDFC85cs1Lj0bsHgR54zTDb2pkO+nqG2dosGWZr8zNEmD3h6AgM3t/XaT911DiFrG4jgUnHRmHgvj/VP2hk//UYEWPaqGX7N2MKs1df8kGLdXVRMbU7ZlZebP8b8w5OJ+A3jGuVowP6FRvqdGOwtsOmrahW1NyMAomLWFvdodczzHYot9U3M708l+Biicdap/iU3O8gTVsryIHGh5tesnr8rGCdgBHDbFmRLSuzZY9s2SvbmUv1ZWXUJ/Era25B/sSFnXko7LsDBPyG2aavE+S2cniiHKLobEX2Ni7tlRcZ42TBVs/DztZ99jcUBd59fovGq2ti/91dqheL3FejRPIyodijH29dZ1UldY5UYNvQMsy23VQxzNZmyTBbm58hwmzTJv91MjXE6DLTNIqwuisKnHlyEhUWF1JDX+axEYWSFnMqBlOYfeTeYVReWgw5EuTBujq7nWoM7KxjBP7c9Rtmn5qCtLHTY2eDE465aSjfpfOWVvC+sNAptqJimB3KD0swtz90fx88lpdVK452NDim9tp1xsKtFRw3a0YLs2WPbNkrW8quhieRJpQ+IbfVDPJAVFtJukY7pjB7160dkKBMimyl0KfIYKcEePrhCbLPSI64keLhVMtbTjkGdtrxAvJVjqevO44/PIzoEaJjrttydZCu3orpxeuA4qPUF8t+C8Ns280Ww2xtlgyztfkZIsyWz1vkMxcjH2KmcZpZPRiB+Wdm4O89PSFvmZ31ICNTmH3n5V3knp0GCaMmxrFmVznvFPAnsPv2dtTzqaL+u4319iNrvBwuIWTaH7x34QHqoCM9F4bZ+pwd+fuh9KK8uP3qJv4pMRLNs7XTZ0ct6FXheVnVQWWy17EcVsZiPwGjhdmmlczyv6Pyv6fOXgbt76POGelZ6G+0z9PN2YfD/ttZQMLsq48eoviC3Hj49j66FeiDLvl62vmu9m2eLzft62u01mWbqXqrqkAWgclLEK/qa5AlXnZdDlMW7sgCnibZWmNQiTEMs+00SwyztcEyzNbmZ4gw++Sjo/+3GjU31tXZo1GE1V1FQN4sd93WDuuurlJDduaV/aYw+9Pnr+Avpq7yBFs3TlmBU2tFBVx6dt4Q/wCzZvQLz85C9+3t0TRbGwwsMdqaqg6/lmG2w8ktuqFphU+eRAXgW2u7RXX0epFp2x3ZI1X2SmWxn4CRwuxxR4dh6P5+Tn/oo9/ZlsUMPXZ0RMMsLTC01Hj7PQhs2RACEmZXWVgVG6+tNcy5A6Z942UBjCyEYaFAUAJyvkCbDQ0hh54mi5ECi6utQcqYaXQLJluMyBcUhZMWh7fHBobZdpophtnaYBlma/MzRJh95/UtFJibUe11LIe4sFDAnMDB+3vRbkNjtbJC9sYeWXoy5NBHZy1+w+y8c9Lh/pu7PNDIWSfTDv1+8v4xaq+UIPuC+hRwRY1NdriLfpvcdnMjGq32QPlUVTC7ird+OwqAYbb+pmff3V2ovbKi6tiOBseRLnYG/XXSih7Jix15wTOk5Dg0ytrSipq81FoBo4TZe+7sgLwEkTKrylJUSOVmLYUur99+axMa+lbnAXi6nB39dcrn2lz8sq4dokeIgW2eRyBnDzh7qby0KE4+OqYWg+VIkNvZh8P+20ng1OPj8PSpClmZLXuse1VfjQRREtnpbrZpVr5Aky/RksdIhf2Nz/prlNuM2MZYWmGYrc2SYbY2P0OE2R+/fEDqyXGUxN327zSKsLrRBXwue+OXjU3UMCXYm1h+ttOfYu83zK7iXRwnHh7Bmto7kSthPqNPJ8dnRuDx+0eoubwcrr64rA4/XFBtFaKEj+pSbheenUWZRfmQPX4urK+7V9djZ5itr+mR7UVKLsyNu69v449C/dAxT/f/x953x9Xc/v8/7YwyssnKTEOSKJHKyoxEpSIhe+9xm9l7r1Ih0bBlRERDGUlCsiUjW3Jbv9/19j2f2+1G55z3+5zzHtf1z/15fLyv1+v5er6uzjnv53Vdrxe/ACqBhpRVIOUVBpuOwjQrXyUs0CnyMiAGMZus/bYhzfAq9yUGNhqBv1oskDd83j8na4BXt0x9nHK9yHu8FKDmGCCHATrstkTu51xs6RCMDvpdNQeGQ8+kTCcp10nqHtvX+F4HnA7KwI8MHMnYh2HHvEAayJNDIWva+qN4oRKCIOl3t5WpmM1d+qiYzY5LKmaz408UYjahoP6mCnj791tcH5jF7JjTQRn4FQN3X2egTXAzpj72+GYzMKrJJFEQ9aOY7X3EBeSHh5h+bIsiSRoIIut9JpzC2+POhycQTwAAIABJREFU61vMldjtXSKY5nVSG6SkUIPNlVC2aDkk97/H6/CpmM2v9Mw5NxkbLq1kakIe6x3PL3BKojlwKww+ke7MbaTNHXYqaYVOk4cBMYjZ7UMskfLsMppXaYnQn65qy8MBn595/+kd6m4sz2zwpvs84zNUik3DDNgGNwHZ/HA16IvFtus0jIY797KbOkts18HFoC93hqklUTAg2/wmwZB3ZvLuLKTRaGsNkEM9l/vfRbmi5f8HnYrZ3GWRitnsuKRiNjv+RCNmyxoaiaG7OsuU0ul/YKDdruZM0wryg438cBPL+FHMnn56LPxS1mNOyyXwMh4ilhBpHAoyQErNdA9rg/tv78KqaisEdg6HVoGiCloRz+O1N5TFh885vL+9Q8Vs/qy5iJu7MezY95f7yF6xMCrXiD/gWCCR9Rkh8ZC46FAdA0IXs0dHDcTutO3M7TWyVsiGoNiG7LvhxqCnKCGQ04ZiywHf45l+Zhz8rqyDfpnaON47HkXyi+dQwJKEOVieOF9UB3z4vp6Egm/GmfHYemUts9m3os0mdNR3FAr0/+HsEGIFUiLlsHMMTMqbUTFbBRmkYjY7UqmYzY4/0YjZsg7rET1OoGklS5as0OliZED2pVy7dF0c7R0nKmHvRzF73cXlmBc7FUMaj8ZUy3liTCWNSQ4GWgQZMyeyrfVaY1unUFGtdznC/88jrXY0wq2XNxHrcRXVdWopY0Itc6iYrRaa83Ry+n4UXPd3Zp6bb7MSHoYD8pwjlAdIr4jG/vpMvctLXreFAluQOIUsZu+85o/xJ4cyvB/qeQaNKjQRZA7yAi37rozpk4xaperk9Tj9d4kxcOlJIjrtacVEneB9HtWLGeHL12+iYUHWBJV8x5HvOjooA4SByNsH0P9wL2aDb6/TSTTQNRQkMSQGEstWhxC0r/X9Nx0Z9GQ2d+mkYjY7LqmYzY4/0YjZstIKmzrsEOTOIcs00ul5MHDi7hF4HuyBIgW0ENnrHOqWaSAqzn4UsyNuhmDYsX5wrOuMNW23iSpOGox8DJATROQkESmNcKBnNLPupT5c9nXCmQcnEdb9KFNyha+Ditmazww5xdMjrC1TjmqY2ThMbj5b86A4RvC7OpIcu5G8OaGK2deyU9Am2ILJ36LWa+DW0Eu0uewe3hYJmWeZxsikjwodlAEZA+QmJ+k58u7TO6a/wEzbSXj++qOoxOyjdw7C65Az2tfqgq0Ou2jyKQMgG942OxuDlOhbbLsWrgb9BMuK7FbFz7eVqZjNXUqpmM2OSypms+NPNGL2pOgRILvLvq1WwNNoIEtW6HQxMUDKLdgFm+P1x1dYYLMK7obeYgqPieVHMTs+MwY9wtuJsr6l6BKngoBI7wDLQAO8yM3mvXCrgvB/a3JslA92pQUyjWsc6/ZSp2uFfFExWyG6OH+Y9FXovMeG+ftxqu+KlfZbOPfBB4PGW6ohO/c5UrwfoIyWLh8giRKDUMXszqE2uJh1XhKb4oMjPbD/Vig2tA9C59o9RLkOaVCKM5D+8gYcw+zwMvcF895A3h8qlNYSnZhNGsaTxvFmFS2w3+mU4kTRGaJjoPe+joh5cIpp9ujfcY+g4yM9T0jvEx/TkZhuNf9/sVAxm7u0UjGbHZdUzGbHn2jEbFnNr9HmkzHOYjpLVuh0sTBAmvv03teJeSkj14vINSMxjh/FbFJaglybrVFSH+fcU8QYLo3pDwz4xk0HadhiW70dgjpHUK7+j4EFcX9h9YXFzOmqwaajeMsLFbM1l5rnH56h056WePDmHlpVs8POLgc0B0bFnlvvNMPNF2k46ZKEeroGKvYmXfNCFLNDrgdhzIlBKF6oBPMbolyxCqJO4F8xE7AleQ1mWS+Ct8kwUcdKg5OPgQdv7zGbms9ynvxrQ0eMYvajtw/QNKAe9HSqI94jTT6C6FOiZYB8FpLPRNIs8aTbBcFvdu9L34MhRz3RpbYT1rcPpGK2ClYuFbPZkUrFbHb8iUbMDkjZhCmnR6FPw/5Y2Ho1S1bodDEwQK6I99nvyFwfrVyiKqJcEqFTpKQYQvtPDD+K2blfPkB//feTdo+G5YgyXhrUrxnIep8JM//azD9SkerfHJGmqKQ56qBGIzGjxT+nM/i2lqiYrbmMyE4jGZY1QXiP44yYJ9bRa68Dzj6Mxq6uh5i6+nSohgGhidmknIJlgAFzal8q4u66i8swL3Ya7TOimj8BwVl9mpOFrqF2uP/mDtrUcGB6jsiGGMVsEhstOyW4ZaoSwGSDm2x0kyGW3waJWXEgfdXMKzbHXqeo//FGT2Zzt4SomM2OSypms+NPNGL24Yy9GHDEldb8YrkexDKdlBRx2dcZyU8voLRWGezqdghEoBDr+FHMJjEabK7MlFVJ9X6EUlqlxRo2jesnBkZHDcTutO1wbtAHy+02UX5+YODArTD4RLozJUZIqRG+DipmayYzyU8vwmF3C2gX1sE5j6vQ1SqrGSBq8kr6KpD+Cnwvu6MmOlTmRmhiNtnwIxt/9cs0RJRrosp44ZPh0Os7MfKEN3rWd8MK+818gkaxqJkBUiO4c2grplm0ZZWW2N5l7796johVzDbcUpUpp5I24LFoD/2oeSkJ0p1tcBPcyL6G/sZDMbvlYkHG8DNo2c2DKtp6OO95g4rZKsgqFbPZkSq3mJ398g3GzFyLrKcvFPJYsXwZLJs5FLqldRSaJ5SHM7M/CAXqH3GefxwLxzD7/+y8iSI4GoRCDJATRT0j2jNfyOREdki3Q6LvUP+zmG230xzXX6QyL6PkpZQO8TOQln0V9sFNmUAv9LuFisUriz9oBSIkNzRIoy9yCpWcOOHroGK2ZjJDNjrIhodYGz7+zOrss5Ox8fJK/NViAQY2GqEZ0iXgVUhi9o9NH8kJNnKSTQqDNAYmDYJb6tkiuOtBKYRMY/wNA6S8DimzY1rBHLsdD6NYweL/elKsYras7NRpt8uoXbouXR8SZED2m6BumfqI7BUrqsbxv7p5QE9mc7fIqZjNjku5xexn2a/gPtwXDzKfKuRRr3J5BK2egnK6pRSaJ5SHxSJmZ7y6iZbbG6F6yZqIdU8VCv0UJ8cMkA7M5DrR/bd3mR9kexwjUb5YRY698M/cz2K26/4uOH3/BAI7hcOuRnv+AaaIOGeAbODEPjqDwaajMc1qHuf2hW4w/eV12OxojHplDHDSNYm34VAxW/2pIfVRLQMbokD+gsxGkNhPZROG115cCt/Y6fAxHYXpVr7qJ10iHoUkZjvstmZus3Wv2xur2/pJJEPAtecpaLPLAvV1GzLl6OiQJgOy5umkHCF5jyS3On8eYhWznfc64NzDaIR0O4wWVW2kuQAkHLVs7RcqUBiRvc6J7hCUmb8+st4/RmLfm8whNzKomM3dgqdiNjsu5Raz2bkR72yxiNnkaliDzZWYGpc3Bym2YSHe7Eorshe52Wi3qzky3z1kThQFdg6XzHW5n8XssVE+2JUWiMW2a+Fq0E9aC0GC0cpOlpUsUgoJnjegXVhbgiz8OWTZd0QZLV2keD/gLT9UzFZ/aqaeHo1tKRvhYTgA821Wqh+ABjzKSiv0qOeCVW22agCBNFwKRcyWrQepNH38cfWR345GW/QY8fKq90NpLEwa5X8YaB7YkKmTvaj1Grg19PolQ2IVs/8pO7WNaXhJh3QYICUpbXc2Aem5I9Y+CZ32tMKlJ4nY73QKZhUtqJjN8fKmYjY7QqmYzY4/0dTMJjTIrpHcHvxCVNdjWKZYMtNJA1DSCLRVNTv4ddwNrQJFJRP7z2L2koQ5WJ44H2MtpmGM+RTJ8CDVQGXN3EhjQ9LgkI5fMyCEJkdUzFbv6iV1Qpv41wFpnBvnkYpqOjXVC0BD3k7fj4Lr/s6w0bPHjq77NYRC/G6FIGaTpo8tAg3x7MNTpk4qqZcqtSGE7wap5USd8frGTcfaC0vzLFUpVjF77rkpWH9pBS07pc5FxxNfg470wcGMcFGXWZLFuLHDdnTS707FbI7XHhWz2RFKxWx2/IlKzG6yrQ4ev3uEeM806GlXZ8kMnS4kBmT1gomAHetxFRWKVxISfNZYfxazd6T6YcKpYXAx6IsltutY26cG+MvA5uTVmBkzkRHhiBhHx+8ZaBpQD6QZzMV+Gbz9jKBitnpXMNn0I5t/3eo4Y227bep1rkFvsvrIDXQNccLlvAaRiNu1EMTs6WfGwe/KOkk1ffx51Zlvq8vc6vvxGrq4VyaNTsbAj7Xio90uoU7per8lR6xi9qbLqzDr7CQMNh2FabTslGT+OGQ3ckhpndNul0RblpOsbbLGfzzwQ8uMcLfMqZjNjkvWYvad+48RfjgGb9/l/BJJSZ3i6O/aETolirFDytPZYikzQuhtv9sKKU8vYb9TNMwqfm+ERoc0GCCN3UiDt/EW0zHKfLI0gv4hyp/F7BN3DsPzkBNaV2+L7Z33So4PqQRMNu9aBBkzp0rDuh9Fs8rWUgldqTgddrdA8tOLiHQ+B6PypkrZUPUkKmarmuF/7H/68jdM/GqAXLM96ZKEeroG6nOuYU+kv0Rjf32ULVYeyV53NYxGvO75LmbfenkTtjvN8OXbF0ip6ePPK0723XCw5xmYVmgi3gVJI/sXA9/wDR1CrJDy7LJczX/FKmaH39yF4ce8JFcvX8p/DmTzrtV2U+R8fo9tnULRpoaDaOnYdGkVZp2bhP4mQzDbegkTJxWzuUs3FbPZcclKzI5LSsWI6auR8yH3tyhoA0h2CVLnbPcDjjh57yj8O+5B25od1ema+tIgAwduhcMnsg+zo5zQNw2F8xfRIBrNuP5ZzE59loy2Ic1pQyPNpENtXkmZAFIuoFcDDyyz26A2v0J15HGwB6LuHuF1Y1QqZqtvdQVe3YzJ0SMluelHRBy9NSUYsh8Me4d8yKc+4iXkie9iNmmYnZgVB6nXTu970AnH7x5mStS1q9lJQitU2qFuurwas85ORDXtGjjtfinP9wexitlnH0aDlKtrUbU1QrodkvaikED0X799RdcwW1zMOg/Xhv2wuPVaUUct0wkc9Ltic4dgKmZznG0qZrMjVGkx+/OXL5gwZwPOxCdj5th+WOMfwSAJWj0FZcuUxMK1wYhNvIoNC8egcsWy7FDyeLaYTmaPjhqI3WnbmbIKpLwCHdJgQHY99MdaWNKI/J8ofxazs3Ofw3hLNZTSKo1U70dSo0MS8UbcDAFp2lO2aDmcdU+BdmEdScTNJshxUYMRnBaA5fab4Fy/DxtTKptLxWyVUfsfw5aBhrj35jbCux+DReUW6nPME0/kO4J8V1z2uoNyxSrwBJW4YPBZzA6/sQvDj3sxjdPPuadIeg1MPDUc21O3YmHr1ejTsL+4FiGN5pcMkJJj1ttN8PFLLkK6HUaLqjZ5MiVWMTv95Q3Y7DBF3TINcMr1Qp480AeEzcC6i8sxL3YqapTUx3GXeBQrWFzYAeWBnjR/JE0gTcqb4bBzDPM0PZnNXcqpmM2OS6XF7OcvXsNjhC++fv2G9QtGY+bSbbj7IAt+yydCv3plXEy5iYHjl8Cpkw0mDnVBvnziPLUiJjF7Xuw0rLu4DJOaz8Jws/HsVhadLQgGViYtxKL4WbCoZIXwHscFgVkVIH8Ws4kPWUOjjMHZkmqGqQp++WbzRW42Wm43AWleJ+VNHEXzsjBuJlZdWIQpzedgqNlYRaer5XkqZquFZhzO2IsBR1zRuGJTHHCKVo9TnnlpE2wBUi+W1MwmtbPp4J4BvorZ7z+9g1WQEZ7lPMGclkvgZTyE++AFZFFWO3+cxXSMlmCpOgGlijOostu8jnV7YU1bf7nsilXMfvPxNRpsroTSWmVw1fuhXFzQh4TJwNOcLJCN/A+fc5jfPuQ3kNgHidnUrxZzg/uS120qZnOccCpmsyNUaTH7WfYruA/3ZbyT09ezlwUgLf0etiydgIb1akD270W1CjMCd+mS2uyQ8nS2mMRsWSM08qOc/DinQ9wM/Fgv+FjveDQsayzugP8Q3a/E7OYBBrj/9i7TELO6Ti3JciPGwEcc74+wG8Gwr9EBAZ3CxBiiSmLyv7IB086MgbfJMMyyXqQSH2yNUjGbLYN5zyefi6RO6qvclwjsHA676u3zniTCJ1z2dcKZByexs8sBtKpmJ8IINR8SX8Vs0jSY/GauX6YholwTNU+UhhHImma7G3pjgc0qDaOh7lXNwL70PRhy1BOk8d0596soo6Url0uxitkk+FrryzCn1B8N+3UPMbkIog/xngFyo5Pc7HSs64w1baXT9Fp2wEu2vunJbO6WKhWz2XHJiZhNSous9gtHxJEYrJwzArZWpsh69gIew32RP39+pvRIOd1S7JDydLaYxGwi7hCRp3OdHtjQLoinjFNYXDEw5Jgn9t3cI4l6X3lx9isx2zHcHuczY7HHMRKWVVrmZYL+u0AYIDWySa1scjWcdB+vVKKKQJBrHuaB9DD4HHVHlzpOWN8uUPOAfoGAitmqTQtp9thxd0vceX0LfY0GYV6r5ap1yGPrsk2xFfab0bO+G4+RChcaH8Vs2vTxv+vp6J2D8DrkzPTbIX136BAvA2//foPmgQbMzbYFrVfDXYGyMmIWsy0C6uPh2/s473kDVbT1xLsAJBzZ5SdJ6LinJYoWLMYcdCInlaUymgbUAyktFOdxDdV0atAyIxwmnorZ7MhUWswmTR+HTVmJzCfZjFidePkGJs7bgKamDbBkxmDEJqVi6vzNaGxUF2t8R6JYUS12SHk6W0xidsyDU+i9ryMj3BEBjw7xMhByPQhjTgxiBL04z2vQ1RJvXXt5svgrMXvo0b7Ym76b2XknO/B0CJ8Bci3QZkdj5oWDiHBEjKNDfgYSHp9D97A2vP6OoGK2/PlU5kmniPaIe3QG1nqtsaurtBtdzT03BesvrcB0q/nwMR2pDJ10Th4M8FHM7h7eFgmZZ+FU3xUr7bfQHAJIfnoRDrtbwLSCOQ72PE05ETEDY6N8sCstEOYVm2OvU5RCkYpZzO4S2hoXshJwqOcZNKrQRCFe6MPCYIDcSLvy7BImNp+JEWYThAGaI5SOYfY4/zgWET1OoGklSypmc8QrMUPFbHZkKi1mE7eL1gYj9eZdLJs5FKScyKgZa3Au8er/EBEBe9H0QWhtacoOJY9ni0nMvv4iFXY7zVGndD1Eu13iMesUGhsGZJsWxMaqNlvRo54LG3OimPsrMXv22cnYeHklplrOxZDGY0QRp9SDmHV2EjZdXgWzihbY73RK6nQoHP/tV+lMwyc+f0dQMVvhtMo9gTS7I03vSNmlI73OomQRcd64k5cQ8v1AvicGNRqJGS3myzuNPqcAA3wTs8kGN9noZpo+elxFuaLlFYhGvI+SsnVNttVB5RJVkdj3pngDlXhksY/OoGfE97JS5D2R/BZQZIhZzO5/uDcib+9nbiaQGwp0iIsB0vycNEHX06mOeI80cQUnRzQ/H/CiZUbkIE3OR6iYLSdRv3mMlZj9s83cj39j/7FYXLtxF9oliqG7gzVqVqvEDiHPZ4tJzH76Pgum/rVQSqsMUmkDC56vPOXgkY7bnfe0xNu/32KY2ThMbj5bOUMim/UrMXvT5dWYdXYivIwHY07LpSKLWHrhpDy7zNT5LZC/ANNtvlapOtIjgWXEpMSEwebKKFWkNFIHPGJpTTXTqZitGl5XJi7AooTZjIgX2esc/fsBEHpjJ0Ye94YiDdBUkx3xWuWTmP3u0ztYBxmDNMOaZb0Y3iZDxUu8gpF9/voJ1deVRMH8hXB3yCvkQz4FLdDH+c7A318/olWQKdNLRtn3BzGL2ZOjRyLw6mbMt1kFD0NvvqeT4lOAAfLZbxlggOzc59jisAsdanVRYLY4Hp17birWX1rO6Abk75+K2dzllYrZ7LjkVMxmB0WYs8UkZpMM/FzgX5hZoah/xcCL3GxGzCMlFjrqO2JThx2UqP9j4Fdi9sGMcAw60gcd9LtiS4dgypXAGSC3Tsjtk9HmkzHOYrrAo9EcfL5/R1Axm/u1ceLuEXge7MEY3tF1P2z07Ll3IkCLpPkjaQLZoqoNQrodFmAE/IfMJzFbdluLNn389box2qIH8jszxfuB3A0B+b8CKUIZA75x07H2wlJU067BlCdUZohZzF6ZtBCL4mdhjPkUjLWYpgw9dA5PGZA1/JVyGVa/lPWYfnosPI0GwrfVCipmc7hWqZjNjkwqZrPjD2ITs022VsfzD89wyeu2pBobsFwGvJ+e++UDuoe1RfLTC2hSsRl2Ox5GkQLirGOvTDJ+JWaT2nekBl7jik1xwClaGbN0Dk8YIC9g5EWsdum6OO12mSeohAlD1uQoqW86L5tnUjGb23X18UsurIKMQMoIyE7kcOtBuNZuZF+DbXATUHFTdTnki5hNmj622tGICXSf00nmdxQd/2ZAtmFMbj7VLdOA0iMiBm6+uI6Ou62R8/k9s3FHNvCUGWIWs2VlKNwNvbHAZpUy9NA5PGSAbNCRjToyTrleRN0y9XmIUvWQZE1+29XsBL+Ou6mYzSHlVMxmRyYrMZuUFfELPozgvVF48ertL5HoVS7PNIgspyvO2opiE7PJixl5QTvWOx4NyxqzW110Nm8YGHDEFYcz9jK1Tg86n6anZn7KzK/EbNK1mXRvrlSiCohwR4cwGbj35jYsAw0Z8KRONqmXTYfyDHTa0wqXniTisPNZmJRvrLwhFc2kYja3xC5L9MXShLmoplMTcR6p3BoXuDVy5dh4SzWmgfIV7/sCj4af8PkiZpM6wUy94PpuWGG/mZ9kaRiV274uiH5wgmkMSxrE0iEOBsjnnENIC+ZWZ6/67lhmv1HpwMQsZp+8dxTuBxwhE/uUJolO5BUDsoa/3ibDMMt6Ea+wqRMMKdXYPsQSRuUaIbJXLBWzOSSfitnsyFRazP727RsWrg1GUOgxFClcCKZGdaBX6b+NUErqFEd/147QKVGMHVKezhabmN1rrwPOPozGzi4H0KqaHU9Zp7AUYYA07CKNu0izrkPOZ1CzZG1Fpkvi2V+J2SRwvpdUkERyWAbZI7wd4jNj0NdoEOa1Ws7SGp3udcgZ5IRGUOcI2FZvxztCqJjNXUoy3z1EiyBjkNPZ27vsRetqbbkzLhJL9DtCtYnkg5h94FYYfCLdUYJp+piKskXLqTZogVofdWIA9lzfgdVt/NC9Xm+BRkFh/8gA+ex3DGvD3OpsVKEJwrsfY3WrU8xitkzsM61gjoM9T9OFJAIGyEY+2dAnp7GP9DoHrQJFRRCVciH8vHlPa2Yrx+OvZlExmx2XSovZL1+/hdfohXiU9RzrF4yBmXFddkgEOltsYrasW+1K+y1wqu8q0KxQ2DIG3nx8DasgQ6aOIRUjfr8ufidmm/nXRtb7TCR4XkdV7Wp0YQmMgd3Xt2P0iYGoWLwyzvS5zDSvo4MdA+NPDsXOa/5YYrceLg082RlTwWwqZnNHKhHwiJDXpoYDtnUK5c6wiCw12loDzz48xcV+GahQXNwNzzWRNk2L2R8+5zBldp68f4w5rZbCy2iwJmgQhM95sdOw7uIyTLWchyGNRwsCMwX5ZwYGHnHDoYwIVNHWY8Q8cguFzRCzmE0+Ixr766NyiapI7HuTDU10Lg8YYG7iRLRnkEi5vMiPqZBt3mcMzoZ24WIoVaIwnr3+yINsCRsCFbPZ5U9pMftZ9iu4D/dlvIu5jEhe9IpNzP4rZgK2JK/BdKv58DEdmVf49N95zsDYKB/sSgtE+1pdsNVhF8/Rag7e78TsrqG2SMqKR0SPE2hayVJzAKlnhRkgJ4qaBRjgaU4WNrQPQufa3xvY0cGOAdLgiDQ6mtR8FoabjWdnTAWzqZjNDakJmWdBrteSEe+ZBj3t6twYFpmVtruaIfX5FRztHQfDsiYii07z4WhazJ4XOxXrLi6Hga4RjrskaJ4QHiPwu7IO08+MwwCT4ZhpvZDHSCk0eRhYkjAHyxPno1jB4jjgHM30BmA7xCxmE27oTR22K4Qf88kBMNIDgLw/LLZdC1eDfvwApmEUZGP37usMnHNPQZ0ytamYzVE+qJjNjkilxeyPf3/C6L/WIPXGXfgtnwj96pXZIRHobLGJ2auSFmFh/EwMajQSM1rMF2hWKGzCgKyBIbkWFeOezJwWoOPXDPxOzPY56o4D6WFY09YfjnV7UfoExMDKxAVYlDAb9XQNcNIlSUDI+Q3V/8oGTDszBv2MfTC35TLegaViNvuUfMM32O40A2n6NbrpFIxrOo29UZFacN3fBafvn+Bt2R2h065JMfv+mzuw3t4In79+wmHnGJiUNxM6nSrFvz89FIOPeqBLHSesbxeoUl/UuGoZID12SK+d/PnyI6jLXtjo2XPiUOxitvHW6sj+8AxXvR+gtJYuJ5xRI+plgPz+6b23I1NylR4E+zf3ThHtEPcoBiHdDqF1dVsqZnO0NKmYzY5IpcVs4vb4mSSMn70ew/v3QH8XB3ZIBDpbbGJ2yPUgjDkxiCkxQkqN0CFcBlpuN0HGq3RMs/LFYNNRwg1EDch/J2bPPTcF6y+twFTLuRjSeIwakFAXXDBATlU0C2iA95/eYY9jJCyrtOTCLLUBMFeOydVjctKdnHjn26BiNvuMBF3dgknRI5ir5TF9klnVSGWPht8WZHWCl9tvgnP9PvwGK0B0mhSznfd2wLmHp+HcoA+W220SIHvqhZzw+By6h7VB8yotEeoYqV7n1BtnDJBGjxYB9Rl7f7VYgIGNRnBmW+xidptgC1zLTqFlKThbMeo3tPbCUvjGTYeeTnWccElkeiXQ8Z2BEcf7I+xGMNME2bVhHypmc7QwqJjNjkilxew373KwIWAfDhyPxefPX2Bjaco0gvx50AaQ7BKk7tlR9yLhcaA7swu/o+t+dbun/jhigJQBIOUASNMKUuuLjj8z8DsxW3YKlTYPFNYKIieHSe5Ig0LSqJAO7hg4/zgWjmH2aFbZGmHdj3KhyR6bAAAgAElEQVRnmCNLVMxmRyS5QtpxT0u8yn0J/4570LZmR3YGRT6b1glWbYI1JWbLNu1o00f580s+O8g1dP1SdXCmT7L8E+mTvGJgXNRgBKcFoEttJ6xvz+0Je7GL2W77uyL6/nHs7nYEVlVb8SqvFEzeDMhuNJMnI3vFwqhco7wnSeiJhXEzserCIkxsPhNjm06kYjZHuadiNjsilRazZTWzH2Q+/SMCvcrlRV1TW2wns0nHaofd1mhY1hjHesezW110tkYYIFdjmwd+r2231ykK5hWbawSHkJz+Tsw+eucgvA450wZoAkrmvTe3YRloyCA+4XIeDXS//286uGHgzutbaBFkzFvBgorZ7PJMNirIhoVNtTbY0WUfO2MSmL05eTVmxkyEt8kwzLJeJIGI1RuiJsRs0vSRfIeQeqnzWi0H2cymI28Gcj6/R50N5aBdWBvXBz7JewJ9gncMPHr7AE0D6jG4VNH4XOxi9uiogdidtp2WJuTdys4b0JuPr2Eb3ASP3z1ivsvJdzod/2ZAdmuvT8P+WGa/horZHC0QKmazI1JpMfvLl6949eYdvn79+kcE+fPnRymdEihQID87pDydLTYxW/ZDhgigRAilQ3gM9Ahvh/jMGHo1VoHU/U7MTnl2Ge1DLOnmjgJcavpRUueR1HvsWd+NuQpHB7cMvPv0DvU2lod2YR1cH5jFrXEOrFExW3kS/VLWY/rpsYwYFe12CRWLS7MXiiIMRtzcjWHH+qJbHWesbbdNkan0WTkY0ISYPT9uBtZcWEK/9+XIz8+PEDGbiNq3fJ6jaMFiSligUzTJwIRTw7Aj1Q9uDb2wqPUazqGIXcyWfXZMt5oPH9ORnPNHDaqOgX6HeuLYnUOwq94egZ3DVedIwJZlt/fJrddd3fZSMZujXFIxmx2RSovZ7NyKZ7bYxGySGdqNWbjrc/f17Rh9YiAjNMV6pKIMbUAiVzJ/J2Zn5z6H8ZZqKK1VBle9H8pliz6kOQYuP0liSiSQcaHfLSrGqSgV+ut1kfvlA24PfsG7espUzFYu6eRGg+0Ocyava9pug2NdZ+UMSWwWaRLVa68DU5ef1Oeng1sG1C1m336VDuvtJkwQ+51OwayiBbcBidwaubVDbu/EeaSimk5NkUcrrvB+rJV93vMG0zOB6yF2MVu2IUxv6nC9clRrz+/KOkw/M455ZzjpmoSSRUqp1qFAradlX4V9cFPU0zVATJ8LVMzmKI9UzGZHJBWz2fEHMYrZjf1q4UlOFlT1Y4Yl5XT6bxh4mfsClkENQa5KLbRZjT6G/SlXcjLwOzGbTK++Tgefv35GxuBsaBUoKqdF+pgmGOgaaoukrHj4mI7CdCtfTUCQhE/SHIq8+MZ7pDFNcvg0qJiteDa+4Rs67m4JUmasXc1O8Ou4W3EjEp1xPTsVdsHmqFO6PqLdaH8KrpeBusVssjFBNih61u+DFfa06aOi+ewe3gYJmecQ0f0Emla2VHQ6fV6DDEw8NQzbU/3g3rA/FrRerRIkYhezD2fsw4AjLuio3w2bOuxUCYfUKLcMpD6/whyC+fL1M8K6H0PTSvRz63cME53BcEtV6BQuiVuDs6iYzdFSpGI2OyKVFrNJA8itOw/h9Zv3eSKoVrU8bK0ao3rVCsiXL1+ezwvpATGK2eRDnZxwpKdShLQSgVEnBmDP9R0wKW+Gw84xwgKvYbR/ErPJKS1yWotcu69T+nstQTr4x4Ds+htp2HW+7016skKFKeq0pxUuPUnEoZ5n0KhCExV6Utw0FbMV52xL8hr8FTMB5YtVZARZeipJfg5f5GbDaIseSmmVRqr3I/kn0iflYkCdYvaRjH3wPuKC4oVKMDfbyhYtJxdG+tA/DAyO9MD+W6HY1GEHOuo7UmoEwsCPtbJVeatN7GK2rO9U44pNccApWiDZly5MUjavTbAFSK+p8c1mYFSTSdIlQ87IZTcz7w59jsqlSuPZ649yzqSP/Y4BKmazWxtKi9nyNoD8EV47m6aYNa4vtEuIp46aGMXsgUfcQDq5b2gfhM61e7BbYXS2WhiIexQDp4h2jK/jLgkw0DVSi1+xOPmTmN17X0fEPDiF4K4H0VLPViwhiy4OWa34Cc3+wsgmE0UXH58CIk1RSXNU/4570LZmRz5BAxWzFUvH3dcZsN1pjo9fcrGj637Y6NkrZoA+TUuzqXANqEvMJuuflMjIfPeQNn1kkc8ZZ8Zj65W1mNtyGfoZ+7CwRKeqk4HJ0SMReHUz0+yUND1V1RC7mE2axpr61UKlElWQ1DddVTRSuxwxIOuxQ8uEyU9oqx2NcOvlTZzzuAxzPSMqZstP3W+fpGI2OxKVFrOJ27X+EdgQtB8r54yArZXp/5B8+/YNvqu2I/LUeWxYOBbaJYpixmJ/JF6+jjGDnNHfxYEdah7NFqOYTU5oMSe1WizAwEYjeMQ2hfI7BqyCjEBECVqnTbk18icxe8yJQQi5HoQlduvh0sBTOQd0lkoZuPo8Ge12NWd8pHg/oLXiVco2MPHUcGxP3YrFtmvhatBPxd4UM0/FbMX4kpXm8TAcgPk2KxWbTJ9mGDDzr42s95m0Tr8K1oO6xOx1F5dhXuw01C/TEFGuiSqIRBomZTwONxuPSc1nSSNogUdJPrvIZxgZF/tloELxSiqLSOxiNiGO9p1S2fLh1PD5x7FwDLNn3hfIZz65mUZH3gzIDnjtdjyAbgYOVMzOm7I8n6Bidp4U/fEBpcXs12/fY9CEpXj2/BW2rZwEvcrl/+XoYspNDBy/hCkv4jtlAG7cegDvsYvQoE51rPEdiWJFtdgh58lsMYrZGy+vxOyzk6kwypM1lheMpQlzsSzRl/kijnG/AlJmgQ7FGPiTmC3jd7T5ZIyzmK6YYfq0WhgYerQv9qbvRp+G/bFQRbUe1RKIQJwsSZiD5YnzeXktk4rZ8i+iXWmBGBvlg+o6tXDKLYl3zTzlj0SzT7YPsUTKs8s40uscjMv9c7BDs6jE4V0dYjZp9GwZYABy5Ty8+zFYVG4hDvI0EEXo9Z0YecIbveq7Y5n9Rg0goC4VZWDq6dHYlrIRXsZDMKflEkWnK/S8FMTspgH1QMq2qHpjQCHi6cP/YUB2C50e3FNscZDfjOS344o26zGk6UAqZitG3y+fpmI2OxKVFrNlZUaI+6DVU1BO99+dX2X/nj9/PgSumgJyWtt9+PeGXL96nl0YmpstRjH7wK0w+ES6w0G/GzbTBhaaW1xyeM54lY6W202YJ9e3D0SX2k5yzKKP/MzAn8Ts4LQAjIsaDOcGfbDcjjaE4tvqIdfCzbfVZWCddb+CmiW/nzCiQ3UMBKRswpTTo1R+JVmZCKiYLR9rpKxCswADkGvR9LtDPs5+91Sf/d1w6v4xBHWOgG317+W+6OCGAXWI2eSzjHymddDvii0dgrkBLlErp+9HwXV/Z7Su1hbbu+yVKAvCCZs0ciYNncm45HVb5adTpSBmy247Hex5GqYVzIWzGCSE9PG7R2iyrQ60ChRl1r1OkZISip5dqLLDLGMtpmC+/RwqZrOjk5lNxWx2JCotZstOZt97kIUtSyegYb0a/0LyIPMp+o5cgEKFCjLiNRlUzGaXLHXNvpCVgC6hrZkvYfJlTAd/GXA/4IiT947CWq81dnU9xF+gPEf2JzH7zIOTcNnXCS2q2iCk22GeRyI9eOQWCblNYl+jAwI6hUmPAA1ELGuUxscNTypmy7cg1lxYgvlxM2jDYPno+uNTslJUS+02oHcDDw4sUhMyBlQtZpPan6QGKBlxntdQTfvf7zI0E4oxcCP7GmyDm6BhWWMc6x2v2GT6tNoZkH12DTAZjpnWC1XuXwpi9qAjfXAwI5w5DEZ+I9HBPwbIbx/yG8jd0BsLbFbxDyCPEckOeLkaeGKbox8VsznIFRWz2ZGotJhN3JKa2esC9qFHx5aYMqIPtIoUZtCQU9j+IUewfNMeWFsYY/msYXjz9j0jZpcqWQIbF41FSe3i7JDzZLYYT2bLTjpWLF6ZqQFJBz8Z+LFOcJxHKqrp1OQnUAGg+pOYLXvZrVWqDmL6JAsgGulAfPv3W5j56+P9p3cIdTyK5lWspRO8BiNNzIpDt1A7NK1kiYgeJzSI5L+uqZiddzp+LKuwz+kkmlRslvck+sRvGfCNm461F5ZicvPZGGY2jjLFIQOqFrM9D/bAibtHmLyR/NHBjoEXudkw2qKHcsUq4LLXHXbG6GyVMpD+8gZsdnwvi3TF+z50tcqq1B8xLgUxe2bMRGxOXo3ZLRejv/FQlXNKHSjOgOGWqniZ+wKnXC+ibpnvNxPokI8B2e2bVnp2OO5xjIrZ8tH2x6eomM2ORFZi9tt3ORg9cy3iklJRppQ2LBoboHChgkhMvoHMrOfQKVEMa+ePQmOjupCVHTGoWx2LpvugYIEC7JDzZLYYxWxCLW1gwZMF9gcYsnpfXkaDMafVUv4D5jHCP4nZuV8+QH+9LoP+0bAcHkchPWiy+v6GZU1wtHec9AjQUMT33tyGZaAhapTUxzn3FA2h+LVbKmbnnY7pp8fCL2U92tfqjK0OIXlPoE/8kYGtV9Zixpnxaqk5K7VUqFLMjn10Bj0j2qNc0fI453EVxWm/EU6WF31/4IRGlRvxPuICcstqhNkETGw+U+X+iAMpiNmbLq/CrLOT4GM6EtOt5quFV+pEfgZkvULobVv5OfvxyZsvrqP1zsaoU7oeUodco2K2cjT+axYVs9mRyErMJq5zP/6N4Igo+O06jBev3jJoihQuhGZmBhg7yBn6NaqwQ8jz2WIVs5v418bj95lI8LyOqtrVeJ4F6cG78/oWrINMUCB/AST2vanyOndiZ/hPYjaJveGWqniV+wJX+t+DbtFyYqdDEPF9/vqZqfWY9T4Tq9v6oXvd3oLALQaQ7z69Rb2NFRjx5+agp7wKiYrZf07Hg7f3YBVoyDwU7XYR5MYJHewY2HtzN4Ye64vOdXpgQ7sgdsbo7H8xoCox++u3r7ALNsfNF2lYarsevQ08KfMcMUBq0ZKatBf6ZaBi8UocWaVmuGQg+elFOOxugWIFi+OiVwa0C+twaf63tqQgZu9PD8Xgox7oUscJ69sFqoVX6kR+BshtBHIrYYvDLnSo1UX+ifRJhoHXH1/BYHNlFC1YDK8nvqViNgfrgorZ7EhkLWazcy/82WIVszvvaYWLTxIR0f0Emla2FH6iRBbByBMDEHp9B3o18MAyuw0ii0794eQlZrfZ1QzXnl/BEeezMC7fWP0Aqcf/MCATkEg5JLLpVjB/QcqSGhmovq4kPn/9hHtDXqNg/kJq9PxnV1TM/jM/gyLdcPBWBDwMB2C+zUre5E3IQM49Og3niA5oVqUFwhyPCTkU3mFXlZgdkhaIMVE+TG1ncqsnH/LxLnahAuq42xqXn16gv5d4nEDHMHucfxyL8RbTMcp8stqQSkHMTnwch25hdjCv1Bx7e0SpjVvqKG8G4h7FwCmiHSqXqMq8N+TPlz/vSfSJ/zBQfZ0OyIGi7PGvkPvhe4lhOpRngIrZynNHZlIxmx1/EKuY7RPpjgO3wrC+fSC61HZiyRKdziUDj94+QNOAeozJs+5XULNkbS7NS9JWXmK21yFnHL1zEH4dd6NdzU6S5IhvQXcIscKVZ5cwo8V8DGo0km/wRI+HlBkh5UbiPdOgp12dN/FSMfv3qbj8JAkd97RkTtSTZnfqqJHKm4WhQiCyvgrk2m202yUVepKeaVWJ2eQ3FPktFd7jOCwqWUmPWBVGLPu9FNQ5ArbV26nQEzWtDAPnHp6G894OKK1VhhH01FleRwpitqzvFGkmS75n6eAPA7LmnNOsfDHYdBR/gAkMifV2E9x+lY7UwWkoVYA/v/8FRuP/4FIxm13mFBKzSUmRxMvXGY/GDfRxJS0DOR8+/hFBsaJFYN6o/v+aQ7KDy7/ZYhWzZ56diM2XV2Oa1TwMNh3NP+IljGhy9EgEXt1MrzRzuAbyErOnnB6FgJRNmG29BP1NhnDomZpShgHZ6QqtAkWR7H0PJWitU2VoZDWnc6gNLmadx74eJ9GkEn8aCFIx+/dp7Rpqi6SseEywmIGR5pNY5Z9O/ocB0kiKNJTSKVwSaQMfU2o4ZEAVYnbojZ0YedwbJuUb47DzWQ7RUlOEgYmnhmF7qh8Wt14L14b9KCk8Y8Bupzmuv0jVyPudFMRscmK1xrqSTBnIu0Ne01sfPFn/pPQR2cQsmK8QLnndRimt0jxBJjwY5HQ7eQ+LdDsGo9IthBcAzxBTMZtdQhQSs2VNHInLZTOHYMzMdXiQ+ed6mXqVyyNo9RSU0y3FDilPZ4tVzN50aRVmnZvECHdEwKODHwyQTvGN/fXx6cvfOOV6AXXLNOAHMIGjyEvMXntxKXxjp8PHdBSmW/kKPFrhw+970AnH7x7GgEbDMLPFIuEHJMAIZKfv+FZ3kIrZv15MkbcPoP/hXihbtBzO972BIgW0BLjq+AuZr2V3+MuYfMi4FrO/4RvTb4T0HdncIRgO+l3lA0KfkpuBpefnYdn5eWovYSE3QAk/eChjLwYecWWanib0va727wEpiNlkeZn618LT91m41O82yhevKOEVx5/QyTsceZdzMeiLJbbr+ANMgEiGHeuHiJsh8O8SgLbVegowAn5BpmI2u3woJGa/eZeDrTsPMR779GiD67fu05PZ2R/YZYCnsw9lRGDgETc46HfD5g47eYpSerDmnpuC9ZdWwL5GBwR0CpMeASqKOC8xe1/6Hgw56smU3CGld+jQHAPkahu54kYGaX5Kat/RoX4GZDdEFtisgruht/oB/MYjFbN/TYys6dEy+43oVd+dN/kSCxDzbXVBrpfTzyRuM8q1mE02QclmqH6pOjjTJ5lbsNQaw8COVD9MODUMfY0GYV6r5ZQVHjEgu51D8kLyo+4hFTHbYbc1kknd+F7nYFzOVN00U38/MfD8wzOYbP1eDuOEy3k00P3eBJsO5RiYFzsV6y4ux3zbBfAwGKGcETrrfwxQMZvdYlBIzGbnSpyzxXoy+9KTRHTa0wom5c1w2DlGnMkTWFSvcl+CvDDnfH6PA07RaFyxqcAi4C/cvMTsxKw4dAu1Q5OKzbDP6SR/A5EAsknRIxB0dQvdWNBwrpcmzMWyRF+MtZiGMeZTNIzmH/dUzP5vKmTiUv0yDRHlmsibXIkJiMPuFkh+epH5vUR+N9HBDQNci9nkdy35fbvEbj1cGnhyA5Ja+RcDx+4cQr9DPdFBvyu2dAim7PCEgRVJC7A4fjZzo5Pc7NTEkIqY3f9wb0Te3k/77Ghikf3Cp6xUZKtqdtjZ5QBPUAkXht+VdZh+ZhyGmg/HFIuFwg2EJ8ipmM0uEZyL2TkfcnHp6i0GlalhbRQrKu6rrGIVs7PeZ8LMvzbKF6vI1JaiQ/MMjI3ywa60QFhWaYk9jpGaByQiBHmJ2aTWWpNtdVCpRBUk9U0XUeTCCoXUpiWfSx+/5DK1TknNUzo0wwDZUCAbCx6GAzDfZqVmQPzCKxWz/03Kh885aB7YEM9ynjAvceRljg7uGfA82AMn7h5hbkyRm1N0cMMAl2J2QuZZdA9vS3/XcpOa31ohmzpkc4du/quYaAXMZ7xKR8v/u9Gmyd9OUhGzp58eC7+U9czNBE2cgFdgaYj+0buvM2AVZMTEeax3PBqWNRZ9zKoO8HDGXgw44oru9XtgtX2Qqt2J3j4Vs9mlmJWYfTgqARPnbUDbVuZYMHUQ3rx9jyGTluPqjTsMKv3qlbFh4RhUrliWHUoezxarmE0or7KmGMP8o2E5PM6ANKDFZ8agR/j3rvARPU6gaSVLaQSupijzErPp34OaEpGHG9nJIotKVgjvcZwfoCSKgpw6IqeP2tfqgq0Ou3jDAhWz/52K5YnzsSRhDlpUtUFIt8O8yZPYgIyLGozgtACmFiepyUkHNwxwKWa77e+K6PvHMc3KF4NNR3EDkFr5DwNPc7Jg6leLKQFGyu7QoXkGHMPscf5xLIY0Ho2plvM0BkgqYjYpwUBKMQw1G4spzedojG/qGEzJVFI61bFuL6xp608p4YAB0kiclCyyqGKBcMdTHFiUtgkqZrPLv9Ji9se/P2H0X2sQm3gVq+eNgrWFEQ4ej8Pk+ZswwK0TdEuXxOJ1wejZ2QZTRvRBvnz52CHV4OytwYexbONuBoGFaQOs8R35vxPnYhazyUlUciI13iMNejrfa03RoX4Gcr98QKvtpnj49j5Tm5bUqKWDWwbkEbNlfw8JntdRVbsatwCotTwZIE1PTfxq4PXHV9jqEIL2tTrnOYc+oDoGEh/HoVuYHVPuiJQ94sugYvY/mSB1IpsHGDClqU66JKGergFf0iQ6HAvjZ2JV0iJMsJiBkeaTRBefpgLiSsy+kX0NtsFNUKJQCVzwus38lw7VMECabOqt+c7vg2HvkA/Cff9TDUPqtbr96lZMjB6OGiX1Ee16AYUKFFYvgB+8SUXMDrsRjBHH+6N73d5Y3dZPY3xL3XHKs8toH2KJgvkL4az7FehpUy2DizXx4M09NAtsgKo6VZHgQTcs2XJKxWx2DCotZj9/8RoeI3zx8eMnbFs5CXqVy2PGYj8kX8vA1qUT8CH3I/qOXIByZUth46KxKKldnB1SDc0+FXsJC9cEI2j1FJTTLYUp8zczSHwnD2D+K2Yxu0toa1zISkB49+OwqGyloQxQt9POjIH/lQ2orlMLp9yS1N59XAoZkEfM7hpmi6TH8fTvQUMLYmeqP8afGopq2jUQ65lKX5A1lAeZ27uvb8MqyBDVdGogzuOahtH8456K2f9wMenUcASlboVTfTestP/+24UO1TCwNXkdZsSMo03vOKaXKzHb56g7DqSHYUjjMZhqOZdjlNTczwzINv8v9MtAxeKVKEEaYuDZh6ewCjREzqf3ONjzNBpVaKIhJN/dSkXMjn10Bj0j2qN5FWuEOh7VKOdSdi5reDqg0TDMbLFIylRwGvvnr59RfZ0O8x5GNyzZU0vFbHYcKi1mP8t+Bffhvox3IvSS2thDJi+HbmkdLJrug5ev3v7r34kQLMRBxGv9GlXQ38WBgf+zuC1mMXtwpAf23wrF2nbb0K2OsxDTJ3jM5FoguR5Ixn6nUzCraCH4mPgYgDxi9pCjntiXvof+PWgogTY7TJH+8gZzM4HcUKBDswyQ0751NpSDVoGiyBicrVkwP3inYvZ3Mm6/Sof1dhNm8/OcewpT758O1TFw4FYYfCLdMajRSMxoMV91jiRmmQsx+96b27AMNGSYIz1gSC8YOlTLQOdQG1zMOk97W6iW5jytk7q2pL6tl9FgzGm1NM/nVf2AVMRs2WcOOQ1Pvn/pUD8DpIcF6WVBbuHEe15Haa0y6gchYo8mftXxPOcZkvvfQ9mi5UQcqepDo2I2O46VFrPf5+Qy4vXdB1nwWz4RX79+hdfohejRsRVGDXDCg8ynzMnsIkUKIXDVFJQtU5IdUg3MJs0sh01ZCaumRv8Ts1Nv3MWYmWuxbOZQNKxXA29zPmkAmXpcTj01AauTVmCOzQKMNB+jHqfUy/8Y+PD5Ayz8G+HuqzsYYzEBM1vS00SqWh7FtAoi9+8v+Pr1229dzDg9GSvOL8XsVr4Y1XScqqBQu79g4Pido+gR2hkli5TCzSH3ULRgUcoTDxiosKIUPnzKweNRL1CcJ9f2SUmzYloF8P7DZx4wpDkILhE9cOjWAfrdoaYUnM+Mh/2OlmhSqSlO9jmrJq/id1O4UH4A+fD3py9KBzv86GAEXNkKT+P+WN1uvdJ26ET5GXDf1xv7boYj2DEMHWvTkmDyM8fdk0dvH0HPsK6ool0VF/tfRdFC3/sgaXIUL1oQOblf8O3b739raxIfV75zP+ei/HIdaBXUwtPRb7gyS+0owEAzf1Nce56KWS3nYbTFeAVm0kflYaBFgDmuPE1GjEcCTCqYyjOFPvMbBrSLFaLcsGBAaTGb+FzrH4F1AftgZW6IrGcvkfU0G5sWj0OjhrURk5CC4VNXwNLcEMtnDUORwsJLlEzMdu/ZFq0tv/+h/ixms+Ce91NXJqzEqMhRGN50OFZ1oHWa1Z0wwj3JgXEFYyT7JKvbPfX3EwNrzq/B8CPDMdR8KNY4rKH8qJEB+0B7RN2JwvSW0zG79Ww1eqau/sRA7VW1kfEyA+nD01G7TG1KFk8YOHv/LKz9rVG2WFncHnkb2oW1eYJMvDAevX2EqsuqolKJSsgcmyneQAUW2eN3j1F5aWUGNf2cUl/yRkaOxKqEVcxvJfKbiQ71MyD73bSj+w64GrmqH4DEPZZbXA7Pc57j+YTn0C2qK3E21Bu+/2V/eO3zQmXtysgYkcFsKtDBLQOddnbCofRDOOByAJ3qduLWOLVGGVCAAVZi9tt3OZi9PACRp84zDR77OrfH8P49QHo9TvHdjCOnErBwqg8c7IRZGkHqJ7P3p+9Fn73O6FynK3Z026PAsqKPsmUgPjMWbXfYMGYSvC6jAW3cxZbSP86X52T2kYxD6BXuCIfanbDLMVyleKjxfxi4/OQiOoe0Zxo/3hr6EOWLlaf08IQB8hlFPquOuUWjWWVLXqCiJ7MB2+0tkPT4PJbYr8RA08G8yIsUQOgs/t5Y7c34v6UQrlpiZHsye3r0JKxMXIYudRyxvVuIWjBTJ2BusZHbbPRWoWZWw8M3D2CwUZ+5xXZ72CPe3JySyslsknWrAHOkPE1GbN8kGJYz1sxCkKBXcireZHM9kI3MdR02o4+hpwRZUH3II48NgX/yFqxsuxb9TL73kaNDOQboyWzleJPNYiVmy4wQ0bdAgQL/O3395ctXvHrzjrlGVFKnBAoVLMAOpQZnS7lm9qUniei0pxVMypvhsHOMBrMgPdf2wU2Rln0VUy3nYUjj0dIjQM0Ry1MzO/X5FbTd1QwNyxrjWO94NSOUrrvuYW2Q8PgcvE2GYZY1beDCp5VAagSTWsHr2gWga9Dx69cAACAASURBVJ2evIAm9ZrZhzIiMPCIG2itTvUvR4uA+nj49j7iPK8xjWrpYM8Am5rZbz6+RiO/mvj4JReHep7RePM79mwIx0LEzRAMO9YPTvVdsdJ+i3CAiwTpyqSFWBQ/i3f8S6VmNllGpF4zqdsc2DkcdtXbi2Rl8T+MdReXYV7sNNQuXRen3S7zH7BAEa5M8sWi+LkY1WQSxjebIdAo+AGb1sxmlwdOxGx2EPg9++eGj0TcJsN38vddKDE3gHz8PhNN/GujbLHySPa6y+9EiQhd2I1gjDjeHxWLV0aCZxoK5hdeiR6hpUMeMfvFh+cw2loNpYqURuqAR0ILUZB4I28fQP/DvZgyCfEe11FKq7Qg4xAr6L9ixmNL8lrMsJqPQaYjeRGmlMXsL9++wCrIEA/e3MOmDjvRUb8bL3IiFRCO4fY4nxmLPY6RsKzSUiphqzRONmL2isT5WJwwB82rWCPU8ahKcVLj/2bg3KPTcI7oAKuqNtjd7TClR80MNA8wwP23dxHS7RBaVG2tZu+/dyclMXviqWHYnuqH+Tar4EGblqtlDb7KfYlmgfXx9u+32NYpFG1qOKjFrxSd7Erzx9iooejVwAPL7DZIkQLOYqZiNjsqqZgtB39bgw9j2cbdzJMWpg2wxnckihX9Xn9JzGL2N3yD3poSTJx3h7xGwfwF5WCLPsKGgc9fP8EioAGy3mdiVZut6FHPhY05OldOBuQRs4mp6ut08PnrZ2QMzoZWAdqEUE56lXqMCHOttpvizutb+KvFQgxsNFwpO3SS6hiQnYAZ8P9zM7PFQtU5UsCylMVsvyvrMf3MWBiVa4TIXrEKsEYf5YIBchKVnEhdYb8ZPeu7cWFS8jaUFbNzv3yAqV8tkNPZgZ3CYVeDnoxU52K6/TId1jtMUKtUHcT0oT1f1Ml94uM4dAuzYw7EJPVLRz7kU6f7P/qSkpgt20wb0WQCJjabyZsciBnIzLMTsfnyajSp2Az7nE6KOVSNx3b6/lG47neETbU22NFln8bxCBkAFbPZZY+K2ez4E7WYTahpGlAPj94+QKx7KqqXrMmSLTo9Lwa2Jq/DjJhxqKdrgJMuSXk9Tv+dIwbkFbOtt5vg9qt0RLtdRJ3S9TnyTs38igH/Kxsw7cwY6OlUx9k+V+gNBR4uE9ktki51nLC+XSAvEEpVzM75/B7m2+qCnEwiL3HkZY4O9TIwP24G1lxYggkWMzDSfJJ6nYvUm7JiNv0tpdkF8eFzDmpvKIuiBYvhls9zzYKRmPcJp4ZhR6of+CiiSknMDkkLxJgoHzjVd8NK+++3uulQHQPkEBg5DEYOhZHNfLKpT4fqGLjx4gpsdzZDfd2GiHJJVJ0jCVimYja7JFMxmx1/ohezu4bZIulxPMIcj6FZlRYs2aLT/8TAj2IEvaas3rUir5jde18nxDw4iZ1d9qNVNXv1gpSQN3JFkFwVJMLc5g7BcNDvKqHohRPq2YfR6LXXARaVrRDe/TgvgEtVzF4YPxOrkhYxpUVIiRE61M9A4NXNmBw9Em4NvbCo9Rr1AxChR2XEbHJ7ihzEePL+Mb3hpsE1YbC5MtO4OW3gY+gULqlBJNJxTerDG27WA3mf4GPtfimJ2WceRMFlX2daakdNf37Dj3kh/OYudKrtiI3td6jJq3TdvP77OQw20dKbXKwAKmazY5GK2ez4E72YPfioB/anh2J1Wz90r9ubJVt0+p8YWHJ+Lpaf92VEUiKW0qE+BuQVs8kpC3LaYnHrtXBt2E99ACXmiTRvISUszCpaYL/TKYlFL5xwM17dRMvtjVCjZC2cc7/KC+BSFLOff3iGptvqMSeSznlchZ52dV7kQmogSLMv0vSLXrvlLvPKiNl7rm/HqBMDUaF4JZz3vEFL5HGXDoUs2e5sghsvruGkaxLqlTFQaC59WDkG9t7cjaHH+qJxBXMc6HlaOSMqnCUlMTv95XXY7GhMS+2ocD3JTN/Ivgbb4CYokK8A/Q2kBr6Ji4IFgCqrv5fevDfkDf2eZcE7FbNZkAeAitns+BO9mD3n3GRsuLQSUy3nYkjjMSzZotN/x8CL3GxGjCBXM0+4nEcDXUNKlhoZkFfMXpboi6UJczHGfArGWkxTI0LpuMp895Apl0DGkV7nYFzOVDrBCyxScvqrzoZyTP14UkeeD0OKYva4k0MQfG0bvIyHYE7LJXxIgyQxXH+RCrud5qhbpgFOuV6QJAdcB62MmG2zwxTpL29gTqul8DIazDUkak9OBtz2d0X0/ePY2eUAWlWzk3MWfYwNA277uiD6wQkssFkFdx42HZSSmP3+0zvU3VgexQoWR7rPMzZppXPzYEC27vsaDcK8VsspX2pgoFCBfDDf1gD3Xt9FnEcqqunQUrTK0k7FbGWZ+z6Pitns+BO9mO13ZR2mnxmHfsY+mNtyGUu26PTfMTD99Fj4paxnmkaR5lF0qJcBecXskOtBGHNiEHrVd8cy+43qBSkRb8OO9UXEzd1M81PSBJUOfjNAXtbIS9v1gVnQLqyjcbBSE7Of5mQxje7ISPF+gDJauhrPgVQBkPJI9TdVoOIFhwtAUTH76J2D8DrkjFJapZHUN52p2UyHZhgYG+WDXWmBWG6/Cc71+2gGhIS8kprBZv61mYjTBjyGThH+lXaRkphN8kC+D8j3Al/zIYY/j3MPT8N5bwfmsz6h73XoapUVQ1i8j4GI2aTRbOzDWIT3OA6LSla8x8xXgFTMZpcZKmaz40/0Ynbk7f3of7g32tfqjK0OISzZotN/xcDDt/dhEfC9meCFfreYDuR0qJcBecXsmAen0HtfR7SoaoOQbofVC1IC3i5kJTDX9HM+5SDW4yr9WxBAzlvtaIRbL2/ilOtF1C2j+aaoUhOzZU0HXRp4YondegGsGHFDpOIFt/lVVMzuHtYGCY/P0dtT3KZBKWuL42djRdICTGw+EyPMJihlg06SnwFyi5bcpu2k3x0bO2yXf6Ian5SamN16pxluvkhjbuqQGzt0cM9Axz0tcflJEsY3m4FRTWjjZe4Z/rVFImYPOeaB0LQ9WN8+EF1qO6nLtej8UDGbXUoVFrPT7zyE1+iFqFalAjYsHAPtEsXwLPsV3If74kHm03+hqV2zCrYunYCyZfi3O8yOtn9mZ2Z/4MoUL+0kP70Ah93WzFV/cuWfDu4ZmBkzEZuTVzPXYcm1WDrUz4C8YvbtV+mw3m4C/VJ1cKZPsvqBitgjKVlht7Mp7r+5g2lWvhhsOkrE0YontJ4R7RH76Ax2dT0Ea73WGg9MSmJ27pcPzEk80ig12u0S6pSup3H+pQ6A1O0k9TtpuTBuVoIiYva17BS0CbZAaa0yzMGAIgW0uAFBrSjFwI5UP0w4NYwpd0HKXtChWgZk5XUCOoXBvkYH1TpT0rrUxGzX/Z1x+n4UdnTZx/RSoINbBuIexcApoh2KFyqBC/0yoF1Ym1sH1NpvGSBi9ty4yVh1fgVmtJiPQY1GUraUZICK2UoS93/TFBaztwYfxrKNuzFmkDP6uzgwZmRiduaT5yivWwoFChTAh9yPePn6LRZO9YGDnQU7lDyeLXYxm3SDb+yvD92i5XCl/z0eZ0KY0EiN7EZba+Ddp3e05pQGUyivmE3EI/31ukyjC9Lwgg7uGJDV/W1SsRn2OkUhH/JxZ5xaUhkDsg7yK+w3oScPrpJLScwOSNmEKadHoaWeHYK7HlBZjqlh+RlwP+CIk/eOYlunULSp8f03Mh3KM6CImE2aPpLmj8PNxmNS81nKO6UzOWHg+N3D6HvQiRFWicBKh+oYuPQkCZ32tGRKLFzqf4dphMfHITUxW9Y0flHrNXBr6MXHlAgak+v+Ljh9/wQGm47GNKt5go5FaOCJmL316ipMjpqIAY2GY2aLhUILgTd4qZjNLhUKidkf//6E0X+twflLadi0eBwaG31v0iUTs8n/Dlo9BeV0SyEuKRWDJy1DpzaWmDPBC/nyiVOYELuYTXJaZc33moOPhuWwW2109n8Y2JayEVNPj2Z27MnOPR2aYUBeMZugM9qiB9Kwk9an5S5Xx+4cQr9DPZmad9FuF1FVuxp3xqkllTIwL3Yq1l1cjsnNZ2OY2TiV+pLHuJTEbKsgI9x9nYEdXffDRs9eHnroMypmYFL0CARd3YL5NivhYThAxd7Eb15eMTs79zmMt3z/3rjYLwMVilcSPzk8j/Dq82S029UcRuUaIbJXLM/RChve6guLsSDuLwxsNAJ/tVjA22CkJmYvSZiD5YnzadkjFazI1OdX0HZXM8byZa87KFesggq8UJO/Y4CI2ZH3wuCxtw+61umJde0CKFlKMkDFbCWJ+79pConZ5KQ1KTHy5m0Otq2cBL3K5RkzvxKzM+5lMs9WqqCLjYvGoqR2cXZIeTpbCmI2qedM6jqfc7+KGiW/N5qigz0D3/ANloGGTFmFwE7hsKvRnr1RakEpBhQRs9uGNEfqs2QccT4L4/KNlfJHJ/3DABEhrIOM8frjKyy32wjnBu6UHgExsPnyGsw8OwF86SIvFTFbtgFESx7x649lVdIiLIyfiaGNx2KK5Rx+gRMgGnnF7OXnfbHk/Fx0rdsT69rSl2o+pPpZzhM08quJssXKI9nrLh8giRIDOVxh7l8Xf3/9iJg+yahRUp+3cUpNzN5+dSsmRg9HbwNPLLWlPS24XJhDjnli3809cG3YD4tbr+XSNLUlBwNEzE7OjkWb7XZoWtkSEd1PyDGLPvIrBqiYzW5dKCRm/0q0Ju5/9f//7ll2cPk3WwpitmO4Pc5nxmKPYyQsq7TkXxIEiujE3SNMs7tqOjWZZne0rILmEqmImE1OEBMhiTREJY1R6WDHgKymYLuaneDXcTc7Y3S22hk4kB4Gn6Pu6FCrC7Y47FK7/58dSkXMJnUiSb1Ien1Z40vuXwBCb+zEyOPe6FbHGWvbbeMXOAGikUfM/vz1M5r418azD0+x3ykaZhWbCjBS8UEmBzZqrCuJL1+/4O6Q10x5Njq4Z0DWBFgInzlSE7Oj7kbC42B3tKpmj51d9nOffIlafPD2HiwDGzLRx3qkQk+7ukSZ0FzYRMx+9vc9NFxfH9V0aiDO45rmwAjcMxWz2SWQEzH7y5evePXmHYOklE4JFCiQ/5cCNzuo/JwtBTFbtvu5qs1W9Kjnws9ECBCVy77OOPMgCnNaLoWX8WABRiAeyIqI2dPOjIH/lQ2Ybb0E/U2GiIcEDUQSeHUzJkePZOo8xrhfQckipTSAgrpkw0Di4zh0C7ND4wrmONDzNBtTnMyVgpidln0V9sFNmb8XcuKxUIHCnHBHjbBnQNaQyrxSc+ztEcXeoMQtyCNmh90Ixojj/dGwrDGO9Y6XOGP8Cl92szPeIw16OlRw4jo7bz6+RpNtdZDz6T1Oul5A3TL1uXbBqT2pidnXnqegzS4L1C3TAKdcL3DKpZSNkfcG8v7QUb8bNnXYKWUqNBY7EbNLFMuPYvOL0D5SLLNAxWx2BCokZud8yMWwKSuRln4PW5ZOQMN6NX7rPeX6HQwYtxgGdapjje9IFCsqzq7iUhCz556bivWXljMNdUhjHTrYM5D+8gZI53FSIzjF+z7zXzo0x4AiYva6i8swL3YafExHYbqVr+ZAC9wzKa9js8MMH7/k0pq/As7l/Td30TzQAJVLVEVi35saj0QKYjYR7oiAN7rpFIxrOk3jnFMA/zAg+3uooq2H8543KDUsGZBHzCZ1U0n91LVtt6FbXWeWHul0LhnoGmaLpMfxzMYO2eChg1sGlp2fh6Xn5/HmZlRe0UlNzH6Z+wKGW6pCu7AOrg/Myose+u9yMEBKE5r518anL3/jsPNZmNByj3Kwxv0jRMwuVaIwyi3RZcpEXvV+gNJautw7koBFKmazS7JCYjZx5btqB3aEH8eYQc7o7/LrTu3fvn3Dar9wbAw6ALfubTBlhBs7lDyeLQUx2y9lPaafHgtPo4HwbbWCx9kQDjRZkyhvk2GYZb1IOMBFilQRMXv/rVAMjvRAl9pOWN8+UKSMqD4sh93WSH56Ae6G3lhgs0r1DqkHlTHApybBYhezn+ZkwdTve+8K2oRWZUualWE+/T2wCoQHk/MSsy9mnUfnUBuUL1YRl7xu8wAxhfAjA4OO9MHBjHBsaB+EzrV7UHI4ZOD9p3fMqWxyOps02CSNNvk+pCZmk3zor9dF7pcPuDnoKYoXKsH3FPEe36L4WViZtBDWeq2xq+sh3uMVK0CZmG20wQg3sq/hhMt5NNA1FGu4KomLbHZtvLQSqzpRHYgNwQqL2ak37sJ77CIULFgAq+aOgKlhnf/4j0tKxYS5G/Dx70/YtHgcGjWszQYjr+dKQcyOvH0A/Q/3QtuaHeHfcQ+v8yEEcOSHJxEjyI8bUiu7ug5tqqnpvCkiZidlxaNrqC2aVGyGfU4nNQ1dkP5lHd6radfASbckejNBkFn8B7TRFj2QJlTJ/e+hbNFyGo1G7GL2xssrMfvsZLg08MQSO9pQSqOL7TfOyamxrPeZSOqbjkolqvARomAw5SVmDznqiX3pe+jNQZ5mdGbMRGxOXo2Z1gsxwGQ4T1EKE9a6i8sxL3Yq7Kq3R2DncEEEIUUxu0WQMe68voXTbpdRu3RdQeSJryB/3MAhQjYRtOnQDAMyMds+sA3OPDhJb9gqkYaJp4Zje+pWfPvrmxKz6RQZAwqL2eTUtX/IESzftAdaRYrAsYM1Ordpjorly+Dh42fYvT8ah6LiQJ4bPbAn+vXqgHz58omWcSmI2VeeXUKHECtm15/s/tPBjgHZD9A2NRywrVMoO2N0NicMKCJmP373iDkNQ0QKIlbQoRgDl54kotOeVsykQz3PoFGFJooZoE/zjgFSv5nUcT7ukgADXSON4hOzmE02DKyCDJmTeNFul1CndD2Nck2d/5qBLqGtcSErAfudTsGsogWliQUDfxKzn7x/jMb++oz1q94PUVqrDAtPdKoqGNh0eRVmnZ0EH9ORmG41XxUuJGmTHIax2FYfzz88wwGnaDQWSNNTKYrZzns74NzD08wpYiq+svtz3XN9B0adGED1CHY0cjJbJma7h/VFyPUgLLXbgN4NPDixLQUjst43JFYqZrPLuMJiNnFHGj7u2heFFZvDQOpo/zxIfewhnl3Rx6ktChUswA4hz2dLQcwm9amMt1RjXhTICwMd7BggQigRREO6HUaLqjbsjNHZnDCgiJhNHNJr5MrR/uFzDmx3moPUyx7VZBLGN5uhnCE6i1cMuO3viuj7xxHUOQK21dtpFJuYxezxJ4di5zV/eBgOwHyblRrlmTr/PQOkDBUpR7WuXQC61ulJqWLBwJ/EbM+DPXDi7hG4GvTDYtu1LLzQqapiQFaWjfwdkL8HOrhhgDQhJ83IyTsEeZcQypCimD3yhDdCr+/EcvtNcK7fRyip4h1OsonfcrsJnn14is0ddsJBvxvvMEoJkEzMHn90ClP2hbzPkfc6OuRjoEd4O8RnxsDLaDC2dl8n3yT61C8ZUErMllkiZUQuXrmJ2KRUvH2XA+0SxdDUtD7MjOuKtuHjzyxKQcwmMctqfmUMzoZWgaL0z0lJBg7cCodPZB/mRB05WUcHPxhQVMw231YXme8eIsHzOqpqV+NHEAJAMf7UUOxM9WfqqpFbHgXzFxQAagoxLwbGRPkgJC0QC21Wo49h/7weV+m/i1XMvpadgrbBzfD/2LvqgKjS7v2ou2u3KHZgoBiAgVigYicGCoiJ3bX26q61djcGoKIYmGCAioWNiq3YtXZ3/H7n8t1dA2Vm7syNmXP++b6V933POc/7zsy9z3siTdK0iGp5BmmTpjMpjry44QhQGRgqBzOk3Ch0cexj+EI8Ez8is2PuH0fNleXwS+JfsdfnJHKmzs1oqRCBA7f2onFIdZTJVg4hjcJVaKH2TKLGd2X8bUH9E4Ldw1A+e1ymmxbEEsnsCQdHYurhsehVehD6Ow3Twjap0sbBkb3gHzNfyHairCcWZREQyeyJe2eA9qaFXVuMqzxTWaM0ol3kglL/lhoHW51H4WxZNWK5Os2URGar0yV5rbIUMttlmQMuPT7PBf4lHq+Ga6ri8J0ojHWdjpZFfSWuxtONhYC+ZLa4j/RyRi9pLAkjsP1qKFpvaoKkSZJhW/MDXDswYcg0M2LcgT8x/cg49CkzBH3LDFHUbnMls+usqoTj/xwRmjBTM2YW9SKw8MRs/LGnH1oX64jRLlPUa6gGLPsRmU19K6h/RXv7bhhRgZsnqXUrrz29gnKBdsiZJjcOtDyrVjM1Zdey04vw+85umiT1LJHMpot+uvBvXMgT06st1NRZU4uxJ+4dQ53gikiSOAl2eB2FTbrv+7WpxVZLsUMks5ceX4O2mz3glqcW/OuusRT3Dfbz3ae3oDr6t57fEJ5d6BkmW0YOEjUYUAAGkdkvXr7Gui17sffQSaRNkwq1q5RFhTLFkCRJYim2aHKupZDZLTY2xM5r2+BfZzXc8tbW5F4pbfTpBydRfUVZ0E1cdNsr3PRO6Q35Qr++ZHaXba2w/sIqzKy+GO4Fm6nIE3WaQqWKKgYWx9O3TzCy0iS0Ld5ZnYayVQYhQNEyFJnhbdcW4xWOzDBHMlt8GaaMnp3ex5AI5tuHxKADqLJJYtNs7oshfWPiI7PFi1F6ljrQ8hzSJUsvXRGvYBIEPnz6gNyz0whZWFe7POXvLokof/r8Cc4BRXDz+XUsrbcOlXNXl7iivNMtkczef2s3mobUROmszljXOEJewM1A22d8htvyMjj36DR6lxmMfmWGmoFX2ndBJLO3X9wvXDQUtbLHVu6rluDGTjk0BhMPjUKetDaI9D4mZJcxmZ0gbD8doDeZfff+I3QbPA1nL177auEGNcrjjz6tkCzpb9Is0thsSyGzB+7sjsDTCzGq0mS0Kd5JY7ukDnN7bG+HNeeD0MmhF4aVH6MOo9gKAQF9yezR+4di9rHJGFxuJLo69mUUE0DAa0M9RF6PgHP2SljtvoXxMjMEtl7ZJERmVM1TCwEKR2aYG5n94v0LlPMvAroQCmkcjjJZORNE7R+fmHvRqBlcHkUyFcf25gfUbq6q7fuWzP74+SNclzni8pOLGF7+b3Rw6KFq+9k4oKhfTjx+8xAn211DxuRWDIkEBFafX46e231RNFMJbG0eJWElZaZaIplNFw9O/rawTpkVR9vEKgO8hrUuiZmHIZG9kSt1HkT6ROO3xEk17I35mC6S2TG3r6LkYhtkSpEZJ9peNR8HTeAJlYZyWlIYFJ29uM4qVM9bR9DCZLY0sPUms2ctDsFs//UoW7IIhvdpjTdv3+GPCYtw+vwVDO3pg2YNqkizSGOzLYXMnnV0EsZEDUMXx94YUm60xnZJeXOpYYX9wjyCIVxnWfn9+NYCfcls8eGK0v0p7Z/lxwiIKbFU63eX1zFkScm1wcztvFAKaO3gCqp4wTY3Mnv4nt/hd2ImGhbwwKwaS8zt6JilP4/ePEQxv5xCxPBp31tm6aNcTn1LZi89vRADdnZHrjR5EdXytFxmsB4JCFQLcgLV/KfyYnaZiktYiae6LLPHpccXsKhOMGrkras5QCyRzKZN4qbxhh3VB6/vo1yAHV6+f4FV7ltQLnslwxbiWUZHQCSz7z99y+dbR3SHRfbFopg5KJ/DBcENw/6dxWS2jgD+YJheZPar12+EqOyTZ2Mxf0I/OBYrKCy752AMug+ZilL2tpg+sgdSJLecWzNLIbPXX1yFLltboV7+xphbM1DaqbPA2ZMPj8Gkg6NQM199LKy9wgIRULfL+pLZYpoz3arS7SpL/Ahcf3YFVZaXxusPrzCv1lLUtWnEUJkhAv+8vAPHxTawSpEFx9teUdRDcyKzLzw6i8rLSwpNl6NanUbmFNaKYsvKdUcg/9xMwvfepU4PuKSY7rB9N/JLMpsIDef/ZSnw74kEUGWe2mJDQ+y8vg0B9daiau6aMms3H3WhsevQPswLhTIWwQ7PI5p0zFLJ7HIBRXHt2WWhWW3etPk1uXdKGN19e1usPb8CTWy9MM3NTwkTWOcPEPiSzC61pADuvLiFQ63OI3vqnIxZPAhQNjdldZOEex5C4YxF/x3FZLa0I6MXmX3/4RP4dI8rjxA4YzCsMqYT/j+VHmnZfQwSJ0781b9LM00bsy2FzD529xDqrXaFfZZS2Nx0tzY2R0VWFvfLJaSJr2m0FWWzVVSRZWwKIaAvmS3WP6coI4o2YokfAbFpHdUVp/riLOaLgFoij8yJzG4SUhNRt3ZjoPOf6F6yv/keHjP0rNLSEoh9chG7vKNBtc5ZDEPgSzKbAgIoMMDRugw2Ntll2II8S3YE+u/oiuVnFgv9FKivAothCFDPHXr2nFMzAPXzNzFsEYVnWSqZ3Wxdbey9uQvL6q+Ha65qCu+CNtSHXAhGt22tkTZpOuzxOYmMyTJpw3ALsfJLMlt816PfZfp9ZvkaAcqupCxLktk1/NGgQNOvBjCZLe3EGIXM/hHJLc00bcy2FDKb6vw4LMoHq+SZcbwd10TS53SuPrccPcN9YZvBDhFeh/WZymNlQkBfMvvJm8ew88vOaeQ/2R+ReLBOmQ27vI8h9W9pZNpNVqMEAvT7QL8TR9tcAu25UmIuZPam2LXoGNZCqBMZ1eqMUnCyXgMR8FxfF7tv7MDy+hvhkquqgavwNJHMvvzgJsr6F8Gbj6+xqWkkHLKUZnA0goCYmdir1ED0L/uHRqxWl5kR17ag5cZGsElXALtbnFCXcXpYY6lkdr8dXRB0Zgn+dp0On6K+eiBmmUPFPizk/fRqC9G4kKdlAqFir78ks9uFNseWyxvgVysItWwaqNhq+U0Ty5KS5h9d6DKZLW1fmMyWhh8shcwmmMTIu9jOD4W0ZxbdEBCjKSZVnYvmhVvqNolHyYqAvmQ2GVdgrhVefXgJ/jx8v1X0UEMPNyRc507Wo6yYMqqZTbWzKXOHMniUEnMgs4mwewoQ0gAAIABJREFUqxBYXEjb9K+7Bm55aikFJ+s1EIF+EZ0RdNYfE6vMhmeR1gauwtNEMrtOUHXsubFTKFVFJUZYtIMAfQ7o8+BZuBUmVp2jHcNVZCllxlKGLJVaoJILWhVLJbP/6zvVB0PKjdLq9sli9+bYEHQI8xZ0EVZdHPvIopeV6IfAl2T20N19sPjkXIx0mYS2xTrrt5AZjxZ7RsWd5dFC37n4hMlsaYfAIDL7xu17OmvNmS2zWZcesSQym16urzy9xDW/dD79wOG7UWi4uioyJMuII20uImmSZHrM5qFyIWAIme26zAEXH59HpPdx5E8f1z+ABcLtvEhkty/RHSMqjmNYLACBNpubYtuVzVhYeyVq5qunmMfmQGaPixqB6UfHC+nIlJbMoj0Eph75GxMO/IU+pQejr1NcnUQW/REgMnvl2SC039RKmExNH6n5I4t2ENh1fTu8NzTg7zMDt2zfzUh4rKuFnGly40DLswauoo5plkpmi32nqDwMlYlhiR+BdReD0XVr3OXvHxXGoqN9T4ZKpQh8SWbPPDoRY6P+QNeSfTHYeaRKLZbHLApyo+/s3dcihGaPJHQh87NLLCazpe2NXmT2w8fP0GfELNy990hnrdaZM2DyiK7ImN48U8wticwWa34FNdiESjmr6HwGLHkg3S7TLXO3kv0wyPkvS4ZC1b4bQmZ7baiHyOsR4M/Df1sr1rijf6lj4475tZapet/ZOOMhMHBXDwSe8sNolyloXayj8RbWcyWtk9nUNNU5wE7wen/LU8idJp+eCPBwNSAQfG4peod3gEfhFphSdb4aTNKkDe8TPYXjgqJ49OYhR+lpcgeBsw9PwS2ojKYbFyoJvdg7wRxqjlsqmS32nSqRuSRCPfYoeZxUq3vluUD0CY97dhxZaSLaFu+iWlvZMOBLMlssp0q9XajHi6XJyfvRiLwejl3XwnHg9tef7xZ27TCu8oyfQsJktrQToxeZLU2Vec62JDKb02b1O8Nik0CapXQdWf0st7zRhpDZ4ueBy8fEnRcxlZj+f6NCzTGj2iLLO0gW7PG0I+Mw/kBco0IlH2a1Tma33tQE26+GCumIlJbIok0ExGjKCjlcsbJhqDadUIHV/Xd2xPLTgShu5YCwZvtUYBGboC8CYo8RauR2pv1tfadb9PgzD2NQLchJ6ENB7xFaF0sls++/vgf7hXmQPlkGnPK9qfVtNKr9dNk148gEUPQ6yRiXqWhVrINRdfBixkfgSzJbzEIvZV0W65vsML4yla34+M0j7Li2FeFXwrD7ZgToN+5LoWz8KnlqoGqemjo162UyW9oGSyKzX71+i19//QW//pJEmhUanm1JZLZIVvQo+TsGOI/Q8K6Z3nR6cKm1srxQ89SrSBtMqDLL9EpZg8EIGEJmTzk8FhMPjkTv0oPQz2mYwbrNYeKXDS64LqY57Kj+PoiXGUpHomqZzBbT8a1SZBHKKST/JYX+G8EzVIHA1aexKB9YDHnS2mCfT4wqbNKaEeKFANm93fMgimQspjUX2N7/IcA9dww7CrWDK+LEvaM/bBxm2KrKzbJUMpsQt5mTUWhge6nTA/5tR1zGxuRDYxAau+7fA0nvyvTOzKJ+BL4ksx+8vo8SC3MLJVVjfG+o33gDLaQMMSoDuPT0wu9WqJizMlxzVUelXFX0flZhMtvADfnfNL3J7M+fPyMy6gT+nLwE9x48QeLEiVCiSH6MGtAOeXJaS7NGg7Mticxecz4IPba3g3vBZphZfbEGd0s+k8UH0JLWTljlHsa1suWD3iBNhpDZYkpcM1sfTHabZ5BerU+idKod17aBmtuQUFogpQeyWB4CIhHrkqsqltffqBgAWiazywUUxbVnlzG92kI0LuSpGIas2DgIiATerW6vjLOgha1C5Xao7E5/58HoVZLrjmt5+8Xvtr0+J5E3bX4tuyKb7SvOBqBvRCezKs9iyWR25eWOuPDoHCK8DsM2Q1wpMUuUp2+foO+OzgiL/a8fSLviXdGtVF9kTmF5PJJWz8CXZDb5YDs/C56/ey5k31AWjrnJghMzMOngaDx/90xwrVDGIqgikNducMpWThLPw2S2tNOiN5l99OQFdB44GW/evkPmjOnw8dMnPHj0FNmyZILfpP6gho+WJJZEZh+8sw+N1lRDaWtnrGsSYUnbrJev3ba1QciFlUKt000ekcJNJYu6ETCEzN57cxeojjzdxq5osFndDhrRuq1XNmHb5U0Ivbwez94+/XdlatRCDVtYLBMBMR26YIbC2Ol1VDEQtEpm04XQmKhhoAvQDU12KoYfKzYeApRWTllaJ9pdQ6bkVsZb2AJWos8CfSYKZbDFYd8YPH/13gK8Nl8XG62tjoO392K1+1Y4Z69ovo4aybMX71+gfIAdKOLRnPqyWDKZ3XJjI0Rc24LFdVahet46Rjop2lrm8pOL8F7fANefXxUMb1usM3qUGQCr5JbFHWlr1+K39lsyWwzi29Q0Eg5ZSpuDi4IP4VfDMHzP76BsOxJqQD3AeTgaFvAwmo9MZkuDUi8y+8PHjxg8ZgE2RxxAr/ZN4OtVB58+fcaMRWuxYNkmeLlXxeAeLZAoUSJpVmlotiWR2bdf3ETpJQWRPXVOHGp1XkO7JJ+pIiGRJmlaockHR6DIh70UTYaQ2VeeXkKFwOLIl64A9rQ4IUW96udeenwBS2LmYu35FaCoClHoR71+gcaoV6AximYqoXo/2EDTIUA15Ir65RAiMpSsi6pFMvveq7tw9rcTUpC3NNuPYlb2ptsoXlk2BGoHV8CJe8cQ6rEXJTI7yqZX64rOPTqNqsvjXoYjvPegdPayTGZrfFO7bm2NdReDhaxOyu5k+TkCf+4diPnHp6NyrupYWv+/Mgxax82Syewhkb1BJfn+rDgeviW6aX0r9bb/yN0D8NnoLgTBZEuVA8HuofyOrDeK6pnwLZktfsebU2bhlssb0C60uQA68Tr9nIaCsgiMLUxmS0NULzL76fOX6Pj7JNz55yEWTRkAm9zZBO2nz1+Fb9/xyJ3TGvPG90Xa1CmlWaWh2ZZEZtO2cNrsjw+nWIaFRqxptBVls3H0iVY+yoaQ2UQ8UQ28ZEmSI7bzQ624qpeddKYDY/xAzT1EyZIyK9wLeqBu/kZmdfuuFzA8OF4ExN+Hy50fSUq5kwKvFsls8SXA266tUBuVxTwQaB/mJdQDXVh7BWrmq28eTsnghRjB2L5Ed0yqPglIlIjJbBlwN6WKUfsGY070VKGpLTW3ZfkxAhS9WnFpXHDATq9jKJjB1mzgsmQym8oUjNgzQCDD/qo0wWz2VBdHqLljl62thKHUzDegfghHY+sCnIrHfEtmi32kepUaiP5l/1Cx5bqZRoFbLkvthew6zyKtMaTcKKGBqymEyWxpqOpFZt9/+AQ+3ccIGgNnDIZVxriaOD/6d2mmaWO2pZHZTv62uPn8Og60OoucqXNrY5NksPKvvYMw7/g0QdOMaovQqFDcTR6LNhAwhMwmz6jhBaWBUsMLcysnQ7UaqWYjSYpfUqJ2/gZoUshbKKvCwgjEh0DZgMK48eya0LyQovaVEK2R2ZR6Tyn4qX9Lg/0tT5vd94gSZ0AtOv/Y3R8LT86y2Eg8Q/bhy6js422vIF/G7ExmGwKkyubQ54A+D1RWYKRLXI8NlvgR8NpQD5HXI9CyaHuMdY17rzAXsWQye8vljWgX2gw18tbFojrB5rKlCfoReMoPA3f1EMZReZXZNfy5AWaCqKl/wLdkNmXeUGBGgwJNhT3WulCPOAroKp/DBcENw0zqDpPZ0uBlMlsafrA0Mrvx2hqgpm9c9y7u4FCzrg6h3jj1IK7MxMQqs4UbPBZtIWAomV1zZTnE3D+Orc2jzKbMxusPr+Ab6glq6EcE29+Vp6NWvvqKRdpq6yRZtrX1V1fG0bsHsbbxdjhlLa8IGFojs6sElcL5h2cEgoeIHhbzQUCMxOtg3wPDK/xtPo6Z0BOx54hPUV/87TodqZP/wmS2CfGWa+lNsWvRMawFatk0gF+tILnUak7Ptiub0WZzU6T6NRX2tzqDjMkyac6HnxlsyWT26QcnUX1FWRTOWBThnofMal+/debY3UPYeGktNl5agzsvbgl/pkybERXHmbXfluTct2T2yfvRqLWyvPAuTO/EWpYd17YKJXFI9rc8JfRAM6UwmS0NXYPI7JevXqOHb2OkSRVXTuTZi5eY7rdG+P9f/jv9d4rkSVHa3hbJkv4mzVKVzrY0MrtXeHusOrcMU9zmw8O2hUp3RR6zgs8txaCdPYU6p/nTF8T8msuF7rYs2kPAUDKboiwo2oKiLCjaQutCUebe6+sLlzNUTmRlw1AUSF9I626x/TIh0CHMG5tjQzC3ZiDq5W8sk9av1WiJzF4UMwfDIvsKaeSUTs5iXgjQZ4E+E7VtGmJBreXm5ZwJvKGsP8r++/IFkslsEwCtwJJ0yUmXnfS7QL8PLN8j8PzdM1QPKis0xzPXciyWTGZTrejCC7IKmY4XO903y4/A3OhpWHB8Bu6+vP2vf0Ted3Toiaa23mbps6U69S2Z/fzdc9jOz4KUv6bChY73NAsLNd+l8iJ0hqm0SBfHPib3hclsaRAbRGbfuK37Ic2ZLfNXJUmkmau+2ZZGZk86OAqTD49BP6dh6F16kPo2RAaL6IFzwM7uoBpgJG2Kd8Kw8mM4clUG7E2lwlAyW0wjH1VpsnAOtCxUp9FrQ32hTIRNugJY0XCz0KSFhRHQFQHx80DRNxSFo4Rohcx++OYBygcUBf2ecI8FJU6K6XWeuHcUtYMrCr0FNjWNNL1CjWsQG6Q1LOCBWTWWCN4wma3xTf2f+VR31H5hHiHS+KTvdfNwyohe/PPyDjw31BOydHKkzoWDrc4ZcXX1LGXJZDbtApHZRGqbY2nC7VdD0XpTE+Gw5Ulrg4YFmsK9UHMh2IvF/BD4lswmD+0X5cX9V/8guu1lZE5hrUmn++/oiuVnFqNIxmLY7nlQFh+YzJYGs15k9pu373D4+Dm8ev1WZ60cma0zVJoYuPJcIPqEd0Tzwi0xqepcTdhsTCMpdarTVh/cen5D6Gw7zc1PqAHGom0EDCWzKQph5L5B6OzQC0PLx/UT0KJcfRqLuqtc8PjNIxSzskdQg00ma3ShRXzYZt0QmH1sCkbvH4JODj0xrPxY3SYZeZRWyOx+EZ0RdNafIxWNvP9qWu7eq7twWJQPVimygOo/s/wYAbrcKbO4kJDpttPrKApmKCwMZjLbfE5NgblWePXhJc53vCeU0WCJQyD2yUU0X1cHt1/cFJriUUacuWZ5WjqZLZYmDPXYgxKZS5rNR4Ca5VVaWkLoIcTlNs1mW3/qSHxktvsaNxy6sx9rG22DU7YKmgNi381IeKyrJdgd1myf0KxUDmEyWxrKepHZ0lSZ52xLi8zef2s3mobURIUcrsIDlyXJ9KPjMS5qhOAyfUnPrrEE1imzWRIEZuuroWQ21YPrtMUH9fM3wZyacc0StSb0EFonuBKuPL2EktZOCGqwUUgTY2EE9EUg5MJKUM1b94IemFk9LrJSbtECmX3i3jHUDq4gZPPs84lB1lTZ5YaJ9cmEQPaZKQRNt7q9kkmjNtVMOPAXph75G1Vz10RAvbX/OsFktjb3Mz6rqwU54czDGGxrfgB2mYqbj2MSPKE6s17r6wmBBHSBs7z+BrP+PbB0Mrt9mBdCY9dhfq1lqGMTV5PXHKTtZg9svbLpu+9vc/CNfYgfgfjI7L4RnbDibIAmLzTefnyDSkvtQeXO5O5zwmS2tE8Zk9nS8LO4BpAUwVk+sJhQDJ+K4luCUN2kbtvaIurWbsHdAc4j0KPk75bgusX4aCiZTZH69Va7orS1M9Y1idAkXk1Cagpnm1JbKRWeoghZGAFDEBCjGpyzV8Jq9y2GLCF5jhbI7DqrKuH4P0fwe9nh6FlqgGSfeQH1IlAuoKjQKDqq5WnkSpNXvYYqaNnL9y9QeklB0MUq/Y7S76koTGYruDFGVt0utDm2XN4g1I+nOvKWLntu7ASRgBStTg2T/eutEZpum7NYOpn9195BmHd8mlnVRF99bjl6hvsK2RaRLY5zkJc5f4C/8C0+MlvMztRitvKMoxPwd9RwoUROuOdBJP8lLhBBDmEyWxrKTGZLw8/iyOwPnz4gz+y0SJI4Ca52eYpESCQRQXVPj7i2Bd23tRVesqh+8LyaS+FoXUbdRrN1eiNgKJl9+8UtlF5SAFlTZsORNpf01qv0hG7bWiPkQrDQkCa02V5u9qj0hmhc/8XH5+C6zBF509lgb4sYRbxRO5kddGYJ+u3oguypc2Kvz0n8ljipIjixUnkQoEw2ymgLdg9D+ewu8ijVmJZ50dPw175BKGVdFuub7PjKeiazNbaZPzFXJPIGlxuJro59zccxAzwJi12PTltb4sOn90Lz8Lm1Ai3it8DSyezFJ+di6O4+8LFrh78rzzDg5KhrCpXSovIi1PxvfOWZ8LZrqy4D2RqTIRAfmb05dh06hHkJ5VcX14nrK6YFoTJnTkts8frDK2xoslPIUpZTmMyWhjaT2dLwszgym+AquTi/0OX1SOuLZp0OJzYjIp/r2jTCxKqzzT5qQuLHQbPTDSWzyWGtppHPPDoRY6P+EPaMamRXyllFs/vHhqsDAbGbebIkyRHb+aEiRqmZzKYu6eX8i4AenBfWXoGa+eorghErlQ8BilijyLWpbgvQ1NZbPsUa0uS42AbUAC+wXgiq5K7xleVMZmtoIxMwNeDUAgza1VMgvIj4slQRLzTJ/5ZF22Os6zSLgcLSyewd17bCZ6M7XHJVxfL6GzW/7+JlbfkcLghuGKZ5f9gB3RGIj8ymBrZVgkoJgVG7vKN1X0zhkWIPG7pYXFQnWHZrmMyWBjmT2dLws0gyu+Hqqjh8Nwobm+wyyyhl+jKmJo8XHp0VIlZHu06Bh20LiSeFp6sZASlktpO/rVBj63DrC0L0vhaEavZR7T6SCVVmwatIGy2YzTZqAAGxyde5Dv8g9W+pZbdYzWT2H7v7Y+HJWRbZc0L2g6ASheMP/IlpR8ZxSZkf7Meso5MwJmoYCmcsinDPQ9+NYjJbJQfZCGbsvrEDnuvrWvT3n3jeCc6+TkPRp/RgIyCrnSUsncy+9PgCXJbZwyZdAexucUI7GxePpYtOzsaw3f2Ecgy7vI8JpQpZLAeB+Mhsqjudb04GAQSt9Ak5/eAkqq8oK9hMPWyozIjcwmS2NMSZzJaGn0WS2WJpglk1lqBhAQ+JCKpr+vqLq9BlayvBqKKZSmB+7WVCfXAW80ZACpktdm/+ttanmhETI+E6OfTEsPJj1Wwq26YxBCjlNPbJRSEqg6Iz5Ba1ktl0OVp5eUkBjkjv48ifvqDc0LA+BRAQozAtPRo1PugXnJiBEXviasZT00dq/vitMJmtwKE1kcrrz67AOcAOOdPkxoGWZ02kRb3Ljt4/BFRTloSisSkq29LE0snsNx9fw2ZORmHbtUL2xXdGqc674yIbPH/3DKMqTUab4p0s7ShbvL/xkdkEihjgFdXqDHKlzqN6nBqvrYEDt/egbbHOGOkySRF7mcyWBjuT2dLws0gye1zUCEw/Oh6DnUeia0nzqXtHdS0pZYpE7k62Eo8hT5eIgBQyu9u2Ngi5sBKza/ijQYGmEi0x/XRqPEcN6NIny4BTvjdNr5A1WBQCLTY0xM7r235ITpkaDLWS2WKj1Y72PfFHBb5AMvU5UMv6u26Ew3t9fbjmdMOyBhvUYpbidnxZ5upnv51MZiu+VUY1QKtl2aSCMGrfYMyJniosM7dmIOrlbyx1SU3Ot3QymzbNfmEe3H99T9OlOv1j5mNwZC8UyVgM2z0PavIsstHSEPgRmU3ZN5SFQ2V0qJyOmmXblc1os7mpUEI2quUZ4b1YCWEyWxrqTGZLw88iyeylpxdiwM7uaGHXDuPMoIEFHQFK/aq7qpJwy9zM1geT3eZJPBk8XUsISCGzKUWaUkeHlBuFLo59VO+2GB3E51z1W6VJA6m5ETU5+rPiePiW6Ca7D2okszdeWoNOW3yQKbkV9rU8jVS/ppIdF1aoDAIXH5+H6zIHFMxgi51ex5QxQmVaxYAIMmteraVCT5IfCZPZKts8ieaUCyiKa88uC81v86bNL3E19U8/8zAGvbd3wKkHJ4RyDNQUrWLOyuo33EQWMpkN1F9dGUfvHkRI43CUyVrOREibdtnygcVw9Wks94IwLcyqXv1HZDZdctBlhxYi9sXfIwowoUATpYTJbGnIM5ktDT+LJLN3Xd8O7w0NzCbS6NGbh6gTXAmUAkkPmSsabJZ4Kni61hCQQmaLTY1aF+uI0S5xKaRqFvHHO75mW2q2m23TBgJiHUVKO6WHWblFbWT23pu70HO7r9A0eYrbfO6/IPeBUFjfy/cvUHBeZqH/xsVO9xW2Rnn1A3f1QOApP8EQXZqgMpmt/J4Z0wKvDfUQeT0Cy+qvh2uuasZcWnVrTTw4ElMOx2XhOGQpLRB/ll5eislsQMzmnFFtERoVaq66c5uQQfT5pc8xXc6faHctoeH8dzNF4EdkNvWFof4wSpbt0AVyscxZrjR5EdXytC5TTDaGyWxp0DKZLQ0/iySzxQYW9FBGtT+1LNSsoGlILeGWvFDGIljfeKciTcu0jKE52C6FzBa7k2uhK71Yt5ciQ893vGcOW8c+qAwBKjFCpUaIqCDCQm5RC5lNl76TDo3GsbtxTe3K53BBcMMwueFgfSpAoKhfDjx+8whn299BmqRpVWCR/CbQpc6QyF5CFhwJRahWz1snQUOYzE4QIk0NEC8zxrhMRatiHTRlu67GftlEnuZoJWtPV/+kjGMyGxAzU34vOxw9S8X1DNCSiKXkqHkpNTFlsUwEfkRmK/0OoOtu2Pllx5M3j1VR9onJbF13Lf5xTGZLw88iyWyxgYU5RBp13tISGy6tRuYU1gj12IOsqbJLPBE8XYsISCGzbzy/hrL+hZE9dU4canVe1e5TlBBFC1HjVmrgysIIGBuBK08voUJgcaEjOHUGl1uUJrP33YwElfI5cS+upARF5PUsPQDV8tSWGwrWpxIEqgU5gcoNhHseQuGMRVVilTxm3Hp+A3/uHYjNsSGCQuuU2TC56jyda2kymS3PPsmlZW70NIzcN8hs+9I8f/ccbkGlcfP5dZTIXBLTqvkp0ghZrv3UVw+T2YDYFNijcAtMqTpfXwgVHU+lRajECMnxtldglSKLovawcuUQ+BGZTWWkKANYDRHPP0JHrDCglvJvTGZLO8dMZkvDzyLJbIJMbGAR43sDGZLFdWbWmlBdV6rvSqT8+qY7hEYWLJaJgBQymxDLPzcTXn94JUQ7q7kebo0VzkLtxoTqlFrmKWCvjYWAkk2+lCSz15wPQo/t7QQYqWRV95K/CxHZLJaNADUYokZD/nXXwC1PLYsBY9qRcRh/4E/B35S/pkKPUr+jvX03JE2STGcMmMzWGSpNDNxyeSPahTZDjbx1sahOsCZs1sfIDmHewsWNU9byWNt4uz5TLWIsk9kAXXh7rKuFstkqYk2jrZra92GRfbEoZg4aF/LE9GoLNWU7G2tcBH5EZpMWJd8BdPGyb0QnrDgbALVkRzCZrcuu/XgMk9nS8LNYMrvuKhdE/3MYoR57USKzo0QU5Z/+9O0TlA0ojGdvnyKg3lpUzV1TfiNYo2oQkEpm1w6uIERibmoaKURiqlGuP78KZ/8igmlUu5UucVgYAVMg4BxgJ/Qg2N/yFHKnyWcKFT9cUykyO+isP/pFdBbsGl95Jrzt2srqNytTLwJDIntjScw8jHWdBipHZQkiRh+Sr9RPgtLRDQl8YDLbvE7L2Yen4BZURijrt8PziFk5t/JcIPqEdxQubnZ4HUGO1LnMyj9jOMNkNiBmc9L5ONjqnDFglWUNyjpwXJQPrz68xJZm+1HMyl4WvaxEnQj8jMyutLQEYp9cxC7vaFVmphRekFXgf9TSiJjJbGlnnMlsafhZLJndaYsPNl5ag/m1lqGOjbtEFOWfLt4uU+r3krqr5TeANaoKAalkdq/w9lh1bhkmVZ2L5oVbqso30Zh5x6fhr72DhDqlVK+UhREwFQJKNvlSgswmopIIS5K/XafDp6ivqaDldTWIwOxjU4TSM10c+wj1c81d7ry4BddlDnjx/oXkRn9MZpvXaaEMNspkS5YkOWI7PzQb5y4/uYjqK5yFDD1q9NjU1ttsfDOmI0xmx6Gp9sjV+PZcbOxXJms5hDQON+ax4LU0iMDPyOxWmxoj/GqYzr0x5HRfLDFil6k4tjU/IKfqH+piMlvaNjCZLQ0/iyWziRQjcmxY+THo5NBLIoryTqeaX5WWxt0o725xXKjtymLZCEgls2cdm4Qx+4ehvX13jKgwTpVg1l9dWWh0OqXqPHgU9lGljWyUeSAwaFdPBJxagJGVJqFt8bhoZblEbjJbLFeVCIkwo/oiuBdsJperrEcjCKy7EIyu21qjQcGmmF3dXyNWG25ms3W1QQ0fjeEvk9mG74NaZxZfmBsPX9/H0TaxsE6ZVa1m6mzX+4/vUCO4HKjxIwfI/Bw2JrPj8CnjXwjUT2BvixjkTaf+d9DP+CzUQaaMu7k1AlGvQGOdPx880DwR+BmZPWLvACw4PgNDy49GZ4e4QA+1SO+Ijgg+G4gBZUcIpc/UIExmS9sFJrOl4WexZLb4At+meCeMqjRZIoryTvfZ6I4d17YKJAuRLSyMgFQyO/xKKFptbgKXXG5YXn+D6gC99+ouHBfZIHGixDjT4Y6q63qrDjw2SG8E5kdPx5/7BqJdiS74q+JEvedLmSAnmS02M6PP1ZyaAahr00iK6TzXTBE4fCcKDddURemszljXOMJMvYxzizKUKFMpXbL02NfilPC/UoTJbCnoqXNuvdWuOHb3ENY22g6nbOXVaaQeVonETcZkmbDH5yTSJk2nx2zLGspkdtzeomglAAAgAElEQVR+Nwmpgahbe7CiwSZUzFlF9Ydg+9VQtN7UBFlTZRca3dMzD4tlI/AzMjvglB8G7eoBL7s2mFB5lmqA+vj5I4rMzypkjR1ufQHZUuVQhW1MZkvbBiazpeFnsWQ2pY9QGonWmrjsvrEDnuvrIvVvaRDV8gzSJ8sg8QTwdHNAQCqZLdbAowe9I60vqg6SpacXYsDO7qiUswqCGmxSnX1skHkhIP4+UC8C6kkgp8hFZk86OAqTD48RXFtQazlq2zSU003WpSEEqOxGqSUFhBq6WqqRqi/E91/fg8tSe1BPkrk1A1Evv/ToPSaz9d0F9Y+nJrnULNccynHsubETzdfXEUBfXn8jXHJVVf8GKGghk9lx4P++sxuWnV6EriX7YrDzSAV3RDfV9N5M789Dyo1GF0d1Rdrq5gGPMjYCPyOz99/ajaYhNeGcvRJWu28xtmqD1xNLjBS3ckBYs30Gr2PsiUxmS0OUyWxp+FksmX3x8XmhJmL+9AUR6X1cIoryTa+83BEXHp3D8Ap/o4N9D/kUsyZVIyCVzCbnqA4k1Us81+GucFmiJhEfRLmer5p2xXxtufT4AlyW2cMmXQHsbnFCVkflILNH7x+K2cfiMpKo5wKllrMwAj9DQIs1UvXdUd8wT4TFrjdqkAOT2frugvrHixeBvUsPQj+nYeo3+CcWNl5bAwdu74EWs1SVAJ7J7DjUxQCThgU8MKvGEiW2Qmed4vs+1bk/1jaWMw90Rs68B/6MzL778jZKLs6PLCmz4libWNUA0TeiE1acDcDQ8mPQWUUlcpnMlnZEmMyWhp/FktmfPn9CgblWePPxNc51+Aepf0stEUnTTxdLo1B01D6fGPyS+FfTK2UNmkDAGGR27eAKOHHvmJBGTunkahHqQG63IBvoMxvd9jKsUmRRi2lsh5kiQKl8uWalRpJESXC963NZvTQ1mT10dx/Qb8lviZMisH4IKuRwldU/VqZNBEovKYjbL24KKdrZU+fUphM/sXrjxTXotNVHuMjd6xODTMmtjOIjk9lGgVFVi4ilaLRA5P0MuCtPL6FCYHH8kvgXHG97lTM9dThlTGbHgRT9zxHUXVUJedPlx94WJ3VATrkhA3d2R+DphWhh1xbjKs9UzhDWrCoEfkZmk6F5Z6fHu09vcaXLY+F5WWlRa4kRwoXJbGmng8lsafhZLJlNsHmsq4V9NyM1kVr37O1TlA0oLKS/+tUKQi2bBhJ3nqebEwLGILOpTii9pE2oMgteRdqoBh5K56W03tLWzljXxLzrtaoGdDYETv62uPn8Og60OoucqXPLhogpyeyBu3og8JQfUvySUiif4py9omx+sSJtI+C+xg2H7uwXvoPpu9ic5O3HNyizpBAevL5v9NIRTGab00mJ8+XI3QNosLoKHLKUxqamkZp1cMSeAVhwYgbcC3pgZnV1R9eqBWQms//bCTFb50LHe0j5ayq1bNFXdtC7s8OifELg2k6vYyiYwVaVdrJR8iOQEJntFlQGZx+ewpZm+1HMyl5+A7/RuPP6NrTY0BD2WUphc9PditvzpQFMZkvbDiazpeFn0WT2uKgRmH50vJAmSOmCahYxrbFM1nIIaRyuZlPZNgUQMAaZLTaD8y3RDX9WHK+AF/GrbBfaHFsub+DSOqrZEcswhOqIUj3RFQ02o2LOyrI5bSoy+6+9gzDv+DSheeryBhtR0tpJNp9YkfYR6LatDUIurMTsGv5oUKCp9h36wgO/EzMxfM/vsMtUHNuaHzCqb0xmGxVOVSxGtdXtF+YBNUw86XtdFTYZYoSdX3Y8efNYeKegdwuWhBFgMvs/jKqvKIvTD05ibePtcMqqzkao9MxDzz7cbyfhs21pIxIiszuGtcCm2LVG658hFd8+4R2x8lwg/qgwFh3te0pdzqjzmcyWBqdFkNmDxy7A+q3/FXrv09ED7Tz/q3F5/+ET+HQfgxu37wlozhzTE5XLOfyL7MKgUEyeFyz8t5NDYeHvKZInE/779sPX0nZAw7PFJl+Vc1XH0vrrVOsJ3SyXXlJA6F4rN7GiWlDYsK8QMAaZLd76qumh79WHlyi6ICcock7uCFk+YpaNgBjFLHeddlOQ2WKDV9rRUI+9KJHZ0bI3l73XGwGxzrraajXq7cg3E+i3xWmJLYig9K+7Bm55akld8qv5TGYbFU7VLEZlCun55HzHe8IFodYk5EIwum1rrbm+QUrjzGT2fzvQL6Izgs76469KE9CueFeltyZe/ZTRfOPZNQTWC0GV3DVUaSMbpQwCCZHZf0cNx4yjEzDAeQR6lPxdGSO/0Fp4QVYQH3S49QVkS5VDcXu+NIDJbGnbYfZk9qvXbzBqaiB6d2gKq4zpcPr8Vfj2HY8xg9sLhDX9vdvgaShfpphAcNPf+4yYhckjusKuUB7s3B+NcTODEDhjsDCfiHGSMYPaC/9ryWT2ozcPUcwvp1Avm+pmq1UmHxqNSYdGo2imEtjaPEqtZrJdCiJgDDKbHvjowS9zSmtEt7msoDf/qd4cuw4dwrxgZ1UC25rx2VfFpliIEXOip2DUviHo4NADw8v/LZvXpiCz+0R0wsqzAWhZtD3Guk6TzRdWZD4ILImZhyGRvdGqWAeMcZlqNo7Ni56Gv/YNMklUNoHEZLbZHJWvHBFT0Lc224+iKkhB1xdl97VuOHR7P/6sOAG+JdRJROrrkxzjmcz+D2XxN6FxIU9Mr7ZQDvj10hEaux7twzyRK01e7G95ComQSK/5PNi8EUiIzA4+G4jeER2hhvMdcXULWm5qBEfrMtjYZJfqNobJbGlbYvZk9rfwxEdej5i0BLPH9hLI6m//TuS1TZ7s/0Zyf0tuWzKZTdiKt7aR3tHIn76QtNNogtkv379AqSUFhNu4gLprUTVPTRNo4SW1joAxyGzCIM+cdHj/8R0udrov1NVVWsTU9v5Ow9BL5aWAlMaK9RsXgS2XN6JdaDNUz1sHi+usMu7iP1nN2GT2rec3UC7QDokSJcbhVue5gapsO2leirZfDUXrTU2EyGWKYDYHoajskovz4/GbR/Cvsxpuef/LeDSWf0xmGwtJda1Dvw30GzGv5jLUze+uLuMSsEZs/EhNzU76XhOanrLohgCT2f/hdPTuIdRf7YoC6W2xy/uYbgDKOKpxSHUcuLUXf1WciHYlusiomVVpAYGEyOzDd6LQcE1VOGQphU0K16juFd4Bq84txfAK49DBvrvq4GUyW9qWWByZLZYUGdDNU4jM/pacJjjF6OuhvXy+itqmv30buW3pZHbXra2x7mIwprn5oYmtl7TTaILZ046Mw/gDf6K4lQPCmv1XasYEqnhJDSNgLDK7zqpKOP7PEdU0+bKdnwXP3z3nxi0aPptaNf3Co7OovLwkCmYojJ1eR2Vzw9hktpgK3LpYR4x2mSKbH6zIvBA49+g0qi4vjSIZi2G750GzcE7sE1Eic0mEeuwxiU9MZpsEVsUXHblvEOj8DCk3Gl0ceytujz4GiI0fPQq3wJSq8/WZavFjmcz+7whQU0WbORmFf4jt/BDJkiRXzfmgxn2UPUGZ10fbxKq2QaVqALNAQxIis6mfAPUVSJs0Hc60v60oQjVXlkPM/eM41iYWWVJmVdSW+JQzmS1tSyyOzP62TAiR2YGrtn1VB/tbMtunafV/a2h/S2Z/+PhJ2g5ofPaMQ9PRZ1tv+Dq2x5zac1XlzYt3L5B3em48efMEaz1CUK9gfVXZx8aoBwEiwD59Bj5//izJqHYb2iDgZABm1ZqNDiU7SlpL6uStsVtQN6gOcqXNjdju8pQ9+fjpM35Jkliq6TzfDBB4+/EtUo5JjqRJkuLlYHl7S9Dnmc6iVLn+9DoKzsyPxIkS43KPq7BOZS11SZ5vYQh8+EjfiYnw+M1jWE3IiPTJ0uN+/4eaR+HNhzfIPTUnHr5+iI3NN6FWAeNHZRNIif6X2S7xp1nzeJubA3OOzEb3sG7wdWiPuXXnacY9+l3LNskaT98+xZ42++Ccw1kztqvBUPptfvv+I+h/WQCH+SVw6t4pRLbajXI51dMEssMmXyw+vhjdy/TA5Op8ic9n9XsE6BOcOIFnbbs5hXHh4QUc73gSdlZ2isC4/NRytFrng2r5qiPUK0wRGxJSyu/NCSH0879rmswmIprqXccn3zZqpDFEUt+99+gr4lpqZPY/j99I2wGNzz529xBqB7ugSKZi2OF1SFXeTD8yAWP2/yFEBka2OMr1vlS1O+oyJn3q3/D81XsQ8SBFZh2bgpF7B6Ntic4Y4zJZylKS5/aL6Iqlpxehe6l+GFJupOT1dFvg83/sg24TeJQZI+CwMD/uvLiFI20uIEeanLJ4miRRImRI/RvuP3srWV+f8M5YfnoJ2hTvhLGV+YVOMqAWuECiz4nwOVHc70qemRlA0XhXuz1SVRSeIdsy62jcb11Rq+II9zJdpHmqpL8Ivykv3rw3xEyeo1IEdl7bDs919VEhpytWN1InwRAfdMFnl6HHNl/YZiyCXS3kyzhS6TbqbZZVmqR49PwtLDwO7F/cem5vj5Vnl2K0yyTVlPKgiNriC/MKJRMPtDqN3Gnz6r3PPMH8EaBL+jQpfsWj5+9+6Kz4Hkrvw/RerIS4r6mGqFt7Mb/WUtQv0FgJExLUSRkrLIYjoGkyWx+34yOyaT5FWnPNbH2Q/Hrsh0/vYTM3Ez59/ijUCVZLmhS9MDosyifUyp5faznq2DQ03EmeafYIGKvMiNhkonx2FwS7K/eC9hmfheasVMt0s8ce2GcuafZ7yA6qD4EmITUQdWsPVjYMRYUcrrIYaKwyI1wrW5btsiglVHaHyu9Q2R26ZNeqfFkre1n99XDNVc1krnCZEZNBq+jCV57EosLSYsiROhcOtjqnqC36KKcasFQLlpq4UjNXFv0Q4DIjX+O16OQcDNvdFx6FfTClqjoyFKYfGY9xB0bI3u9Ev5PEo5VGIKEyI2RfyIWVoN5NxMEQFyO3iP0NqK/BKd8b+CXxr3KboJM+LjOiE0w/HGQRZPa3pUW+RCO+hpB9RszC5BFdYVcoz3c1tb9dy9JrZhOW9VdXxtG7B7HafSucs1eUdiKNNHtO9FSM2jdY9nqtRjKfl5EZAWOR2USAlfEvBKvkmXG83VWZvfhP3aE7++G+xg3WKbPhaJtLitnBii0bgf47umL5mcWYWGU2PIu0lgUMY5HZv+/shmWnF4FrZcuybRahxHtDA+y6vh3L62+ES66qmvVZrJVd0toJG5rsNKkfTGabFF5FF88+M4Wg/1a3V4raoavyi4/Pw3WZgxC0Q893VE+YRT8EmMz+Gq8jdw+gweoqKJyxKMI91ZHd7OxfBNefX8WKBptRMWdl/TaYR1sMArqQ2fde3RUCCzMky4gY3xuyYyP2ZvAt0Q1/Vhwvu35dFTKZrStS8Y8zezJbbPh44/a9rxD4sgzJt2Nmjun5b41smrQwKBST5wUL878tX8JkNjB8T3/4nZiFAWVHoEep36WdSCPMpqjs0osL4tGbh5hd3R8NCjY1wqq8hDkjYCwymzAqMNcKrz68xGnfW0iXLL0isI3Y+zsWHJ8ppC1SJ3IWRkAJBGYdm4Qx+4ehs0NvDC0/WhYTjEFmc1S2LFtlcUrEC5LxlWfC266tJv3/Mio7qMFGVMppWlKeyWxNHhOdjHYOKILrz65ij/cJ5EtfQKc5Sg6iCFqKpPWya4MJlWcpaYpmdTOZ/fXWvf7wCgXnZRb+8Urnx4pHjh69ewj1V7siU3IrHGt7GUkSJdHsWWPDTYuALmQ2WUAZOJSJs735QaEkrVxClQOK+uXE83fPsKfFCeRLp97fGCazpZ0KsyezpcGT8Gwms4ENl1aj85aWqklJWnkuEH3CO8ImXQHsbnEi4U3kERaPgDHJ7DqrKuH4P0ewttE2OGWroAi2Tv62uPn8uqI2KOI4K1UVAmGx6+Eb5onaNg2xQKYUQ2OQ2YMje8E/Zj7aFu+CkZX4MkhVh0rDxkw/Oh7jokagV6mB6F/2D016Ima9lbIui/VNdpjcByazTQ6xYgo819fF7hs7YOpSNcZwkC5x7BflFUoXhjXbh+JWDsZY1uLWYDL7+y0Xy09tbrob9llKKXomhu3uh0UnZ0PtkayKgsTKBQR0JbP7RXRG0Fl/jHSZhLbF5KubLXJT9Jmiz5aahclsabvDZLY0/MBkNgTSjMgzpdJIvt3Cxmtr4MDtPZjsNg/NbH0k7jBPtwQEjElm00UKXaiMdZ2GlkXbyw7fqQcnUGOFs2o+j7IDwApVg8CZhzGoFuQkawqtVDKbSIsSC/MI0Rx7fU4ib9r8qsGTDdE2AmvOB6HH9nZoauuNqW4LNOcMfTYo6+3hmwdY5b4F5bJXMrkPTGabHGLFFAzc1QOBp/w0UX969bnl6Bnui2JW9tjSbL9imGldMZPZ3+8g/SbQb8PfrtPhU9RX0S0usTA3Hry+L5B/ShPrigLByhNEQFcye+35Fei+vS1q2TSAX62gBNc11oCmITWx/9ZujKs8Ay3s2hlrWZOsw2S2NFiZzJaGH5PZ/8OPms1RWY99PqeQJ20+iagaPp3qfFG9r6RJkiHG9zpS/prK8MV4psUgYEwye270VIzcN1hoDkRNguSWcQf+xPQj44Q0dkpnZ2EElELg3ae3yDs7PX5LnBRXujyWxQypZLbYsMYxS2lsbBopi82sxDIQoBcresEiEpjIYK2JWDbIIUtpbJLps8FkttZOie72zomeglH7hqC9fXeMqDBO94kKjBR7A2m5RJACsH2nksns73eBSgJSaUCly9fsvhEBz/X1kDVVdhxpfVENx4VtUDECupLZ91/9I2S1pE2aDqfb30IiJDK5V2KQJXFBp9rfQIpfUppcpxQFTGZLQQ9gMlsafkxm/w+/tps9sPXKJsysvgTuBT0komr49CmHx2LiwZFwL9gMM6svNnwhnmlRCBiTzN55fRtabGgI5+yVsFoBwqLyckdceHQOyxpsgGtON4vaR3ZWfQhQ8xdqAnO87RVYpchicgOlktleG+oh8noEJlSZBa8ibUxuLyuwHATEy/bcafJhf8tTmnL85fsXKOtfWAhaWNNoK8pmk6fZN5PZmjomehm75fJGtAttppoShT8yXmz8SA0fqY6w2okRvTZB5sFMZn8PuNiwXemofzGrtHfpQejnNEzmk8HqtIaArmQ2+eUcYIfrz65gW/MDsMtU3OSujt4/BLOPTUETWy9Mc/MzuT6pCpjMloYgk9nS8GMy+3/4zTg6AX9HDUeb4p0wqtJkiagaPl3swry03jpUzl3d8IV4pkUhYEwyW7wRpuaP1ARSTol9chGVlpZAql9T4UyHO9y8RU7wWVe8CLivdcOh2/uxxn0bymY3fQ15KWT2Py/voOTi/PgtSVJNRHPwkdMWAh8+fUCe2WmRJHESXO3yVJYIJWMhNPPoRIyN+kP2qHIms421g+pbR3xWypoyG460uaQ+A/9n0dDdfbD45FyhbByVj2MxHAEms7/HjppA5p+bSWj+GNvpgSJNIKlZXpEF2UGXlnTRSheuLIzAzxDQh8zuE9EJK88GYHiFcejw/5k4phQ6yxREQxfvq923wjm7PBfvUnxiMlsKehyZLQ09gMns/yG471YkPEJqoURmR4R67JWMqyELHLy9D43WVkPGZJkQ3e4KE3mGgGihc4xJZhOEBeZa4dWHlzjR9ioypYjrVC6HiJdKjQo2x4zqi+RQyToYgZ8iID7ETqoyB82LtDI5WlLI7KmHx2LCwZFoWMADs2osMbmtrMDyEHBYnA/3Xt5FdJvLyJzSWhMAEMFBlzxUR57Ki1CZEbmEyWy5kFZGj+18a+FcnfS9Ljy7q02oVFZxv9yCjTs8j6BQxiJqM1FT9jCZHf92uSxzwKXH5xHmsRfFMzvKvqebY9ehQ5gX7KxKYFuzKNn1s0LtIaAPmb3q3FL0Cu8gSxbOxotr0GmrD3KmyY0DLc9qAlgms6VtE0dmS8OPyez/4UfEHRF4JJc7PxJqVsst/XZ0QdCZJeho3xN/VBgrt3rWp2EEjE1m113lguh/Dst+K+y+xg2Usriw9krUzFdPwzvCppsLAmJEZ/eS/THQ+U+TuyWFzC4XUBTXnl3GigabUTFnZZPbygosDwHxt4Eu/enyXwsy6+gkjIkahgo5XLGyYaisJjOZLSvcsiujkmxUms2/7hq45aklu/6EFIqNH0taO2FDk50JDee/J4AAk9nxA0QN8qhR3sSqc+BZ2PSX/t9a0SHMG5tjQ4R3Z3qHZmEEEkJAHzJbzMJJ/VsanOtwN6GlJf3dN8wTYbHrMdh5JLqW7CtpLbkmM5ktDWkms6Xhx2T2F/hVC3LCmYcxWNckAqWtnSUiq9/0tx/foMTCPEL0RLjnIRTOWFS/BXi0RSNgbDK7X0RnBJ31x2iXKWhdrKMs2IZcCEa3ba1RIH0h7PKOlkUnK2EEEkJgU+xadAxrgXr5G2NuzcCEhkv+u6Fk9sE7+9BoTTVkS5UDh1tfkGwHL8AIxIdApy0+2HhpDRbUWo7aNg1VDxJFZTv52+Lxm0fY2GQXHK3LyGozk9mywi27sgkH/sLUI39DrXV6xcaPU90WoKmtt+z4mJtCJrPj39EFJ2ZgxJ4B8Cnqi79dp8u67c/fPYft/Lh+JkfbXIJ1ymyy6mdl2kRAHzKbPCy9pCBuv7iJrc2jUDRTCZM4Lb5vUF+DqFZnkCl5XJCl2oXJbGk7xGS2NPyYzP4CvwE7u2Pp6YXoUfJ3DHAeIRFZ/aavv7gKXba2gm0GO0R4HdZvMo+2eASMTWYvPDkLf+zuL0RHU5S0HCI22PCrFYRaNg3kUMk6GIEEETj94CSqrygLuZobGUpm943ohBVnAxT5/UoQRB5gNghQ3WnKVqBnJHpWUrtQEyVqpkTNhKmpsNzCZLbciMurb9uVzWizuSmq5K6BwHoh8ipPQNv5h2dQJagU0iRNKzQwViLjVFWAGMEYJrPjB/Hg7b1otLY67LOUwuamu42AtO5LiNkHSjWt191SHqkmBPQls3uFt8eqc8vwZ8Xx8C3Rzeiu0KUM9YyihvMTq8yGZ5HWRtdhqgWZzJaGLJPZ0vBjMvsL/NZdDEbXra2FmnJUW05O8V5fH7tuhHOKlJygm5EuY5PZ91/9A/tFeQWEDrU6j+ypc5oULbpEosskuQhDkzrDi5sVAmJzI4qUuNjpvsl9M4TMpuhTqov65uNrbn5k8h2ybAWU/kppsDXy1sWiOsGqB0O8JA1uGIbyOVxkt5fJbNkhl1UhNd11XGwDJRpmJ+So2PixXfGu+KvShISG8991QIDJ7PhBEkt10oUJleqUU7w21EPk9QiMrzwT3nZt5VTNujSMgL5k9spzgegT3lEoJ0VlpYwtYkBlmazlENI43NjLm3Q9JrOlwctktjT8mMz+Aj8q9UEdZJ++fYKwZvtQ3MpBIrq6Tb//+h7sF+YRBh9vdxVWyeVruKebhTxK7QgYm8wmf+lihy54TF0rmD53Zf2LCLfRFDlHEXQsjICaECjjXwifP38Wao5mTZXdpKYZQmYHn1uK3uEd4JStAtY22mZS+3hxy0bg1vMboM9D5hTWiG57WdVgHP/nCOqsqiSknVP6uRLCZLYSqMurky7+KQDgYKtzyJE6l7zKf6CNLjbtF+YVShdS2TYq38YiHQEms3+MIUWVxj65KOv788M3D1DcL+4zd7b9HSELgYUR0AUBfcnsG8+voax/YaT6NRXOd7yniwqdxxy9exBUEopkd4sTsElXQOe5ahjIZLa0XWAyWxp+TGZ/g9+w3f2w6ORs4XaXbnnlkLnR0zBy3yDF0mDl8JF1mBYBU5DZR+4eQIPVVZAhWUbE+N4wmQPi+XfKWh5rG283mR5emBEwFAGxudC8WktR16aRocvoNM8QMrvx2ho4cHsPprjNh4dtC5308CBGwFAEivnlxKM3D4XSBVYp4mqVqlGGRfbFopg56OLYB0PKjVLERCazFYFdVqVUZoTKjcyvtQx1bNxl1f0jZWIUIT9XGXc7mMz+MZ6DI3vBP2Y+Wti1w7jKM4wL/A9WEzOqq+etg8V1Vsmik5WYBwL6ktnktVg329gNsCsvd8SFR+fQv+wf6FVqoOYAZjJb2pYxmS0NPyazv8Hv4uPzcF3mAEopj253RbiBM7WQPtI7s/oSuBf0MLU6Xt8METAFmU0wUa1gqhk8s/piuBdsZnTkKDWxzJJCQnMuinotae1kdB28ICMgFQHxwqWDfQ8Mr/C31OV+Ol9fMvv6syugUgokFzreQ0oZfrNMCgAvrnoEWmxoiJ3Xt2FJ3dWolqe2au0VSfedXsdQMIOtInYyma0I7LIqnXJ4LCYeHKnopcm3DtdY4YxTD05gRrVFaFSouax4mLMyJrN/vLtExhEplyxJciFrx9RR0pR1UGmpvZDVudp9K5yzVzTno8e+GRkBQ8jsnuG+oBrtQ8uPQWeHXkaxiBoIUyPh/OkLItL7uFHWlHsRJrOlIc5ktjT8mMyOB7+Gq6vi8N0oTKgyC15F2khE+OfTQ2PXoX2Yl0Can/C9JjwEsDAC+iJgKjJbLF9Q2toZ65pE6GtWguPpBZBeBNXYPClB43mAxSBw6M5+uK9xg6k+B18CqS+ZTQ/B9DDc1NYbU90WWMyesKPKISCeud6lB6Gf0zDlDPmJ5h3XtsJnozvsMhXHtuYHFLORyWzFoJdNMV3s0AUP1WSn2uxKy4l7x1A7uILJs+qU9lMJ/Uxm/xz1piE1sf/WbpM1yftSe7+Izgg66y8E2lDADQsjoA8ChpDZQWeWoN+OLqiauyYC6q3VR128Y689u4xyAUWFv2k5oIvJbGlHgclsafgxmR0PfmJn5BKZSyLUY49EhH88/c6LW0Kn8Wdvn6JHyd8xwHmEyXTxwuaNgKnIbKpnTfUg6Yxu9zyIIhmLGQ1IisZ28rcFNa8jsoFIBxZGQIFVOLQAACAASURBVI0I0Ocg35wMgmm3ur0yqYn6ktlEshPZzpFJJt0WXvwLBLZe2YS2mz1UfQkp9nygTArKqFBKmMxWCnn59Ip1e01RS9UQL/pGdMKKswGqihQ3xA81zmEy++e7suXyBrQLbY7cafIJzahNJXtv7kKzdbWRNmk67PWJES5uWBgBfRAwhMwWMyELZSyCdY0iJGcfNFpbHQdv70XLou0x1nWaPuaraiyT2dK2g8lsafgxmR0Pfl8SeOGeh1A4Y9ytmbFF/BLjpl3GRtby1jMVmU1IjokahllHJxm9jjxFzVH0HNUgplrELIyAmhEQ07ZN3RxYHzI78noEvDbUQ67UeRDV6oya4WPbzAiBf17egeNiG9VGftIFaTG/XKBnOaWbajOZbUYH/yeuUFNUao6qdPMuCjygAAQ6+wdanUXO1LktYwNk8pLJ7ISBLrWkAChYa2n9daicq3rCE/Qc8frDK7guc8TN59e5T4ie2PHw/xAwhMym2eK7K2WlUXaaoSJmPlMz7T0+J2Upa2uorQnNYzI7IYR+/ncms6Xhx2T2D/ATG0Ga6rZMrJGULll67PA8giwps0rcSZ5uyQiYksy+/eKm0PTCmHXwum1rjZALwaDzv6XZfn7hsuTDqxHfB+7qgcBTfhjtMgWti3U0mdX6kNneGxpg1/XtQh1vJaNPTQYGL6xaBOwX5sH91/dwsNU55EidS1V2rjkfhB7b28ElV1Usr79RUduYzFYUftmU+4Z5Iix2veI1qv1OzMTwPb8bLQ1eNgA1oojJ7IQ3ioJfKAjGVOUDxca+HAiW8F7wiB8jYCiZfezuIdRb7SpkBRxufcGgPjUPXt9HpaUl8PTtEyysvRI189XT9FYxmS1t+5jMloYfk9k/wO/co9Ooury00AjydIeb+C1xUolI/zc9+p/DqL+6Mj5//oxg9zCUy17JaGvzQpaJgCnJbEK0XWgzbLm8ESMqjEd7+26SQB4S2RtLYuYJn62QJuEomqmEpPV4MiMgBwLBZwPRO6IjGhfyxPRqC02mUlcyW0x3TP5LCiH6VI5mxSZzmhfWHAItNzVGxNUwzKu5DHXzu6vKfs/19bD7RoTwOaXPq5LCZLaS6Mune/qR8Rh3YATaleiCvypOlE/xN5rKBxbD1aex8K+zGm551ducVTGAJCpmMjthAJ+8eQyHRfnw/tM77GsZI5QcMZbQ+3O9Va74NfFviPSJFrLSWBgBQxAwlMwmXWJt+AFlR6BHqd/1Vt9tWxuEXFiJ6nnrYHGdVXrPV9sEJrOl7QiT2dLwYzL7J/gR4Xz07kFMdpuHZrY+eiMdc/84jtw5gPzpCyF3urzCj+7zd8/hFlRaSI/q6zQUfUoP1ntdnsAIfIuAqcnsfTcj4bGuFvKmzY+9PicN3oB5x6fhr71xaVkrGmxGxZyVDV6LJzICciJw6fEFuCyzl/wZSMhmXcnsQbt6IuDUArQt1hkjXSYltCz/nREwKgKTD4/BpIOj0LVkXwx2HmnUtaUsRtHiFDWe8tdUiPG9jqRJkklZTvJcJrMlQ6iJBXbf2AHP9XVRyros1jfZoYjN4nNa9tQ5cajVeUVsMHelTGbrtsO9Izog+OxStC/RHSMqjtNtkg6jKgQWx5Wnl9C/7B/oVWqgDjN4CCMQPwJSyGzxuzZ9sgxCdDYFlegq4lx6Rtnd4jisU2bTdapqxzGZLW1rmMyWhh+T2T/BT2wEWdLaSegyq48sPb0QA3Z2/25KmqRphWZ6ROIRmcfCCBgDAVOT2WSj6zIHXHx8HisbhqJCDle9zaZbaLqNJplTMwD18zfRew2ewAgoiUDhBVmF7+8z7W8LKYamEF3IbEpNdFxkgzcfX2OfTwzypLUxhSm8JiPwQwSo3wHVjlTbs4xYZqGprTemui1QfAeZzFZ8C2QxgKJR7fyyC+XYYjs/lEXnt0o6hHljc2yIcLlEl0wsxkeAyWzdMKVgrporywkN8qLbXhY+F1Lk+vOraL/ZE6cenEDBDLbY6XVMynI8lxGAFDKb4KNSI1Ry5I8KY9HRvqdOiNIzO9V7v/HsGv52nQ6for46zVP7ICazpe0Qk9nS8GMy+yf40ZcOpUoRedHFsTcKZCiMYlb2P20ISXMG7uyBVeeWCSuXyVoOiRMlwf1XdxH75KLwb3QLt83zADImyyRx93g6IxCHgBxkNtULprrBjtZlsLHJLp2hp5e8wNN++DtquDBnVKXJaFO8k87zeSAjoBYEvNfXx64b4VhWfz1cc1UziVm6kNlihkO1PLWxpO5qk9jBizICP0Pg4ZsHKO6XSyArzra/oxqwaq0sj5P3ow2+dDW2I0xmGxtR9a7nHGAHKv8U4XUYthnsZDX0/qt/hMaPJDG+N4TmrCzGR4DJbN0xFbObx1eeKTSQN1Qirm1B162t8fzdM2RLlQNL661DoYxFDF2O5zECAgJSyWzxQt8qeWYcaH1Wpwub0fuHYvaxyYpm8Jhi+5nMloYqk9nS8GMyOwH8xEYTXw6jG+YSmR1RIktJgdwualUCBTMUFurUtQ1thvMPzwj1gKdVW4DaNg2/0nDj+TUkRmJQGiALI2AsBOQgs199eAmnJbZ49OYhmhduiUlV5/7UfCqlMzd6KoJO+wsRpCTdSvbDIOe/jOU2r8MIyIrAxIMjMeXwWKE8FJWJMoXoQmaX8S+EW89vILhhGMrncDGFGbwmI5AgAtQYmBoEqyU7gAIGqKkSBQwcbXMpQfvlGMBkthwoq0NHpy0+2HhpDSZWnQPPwq1kNYp+l+j3yb1gM8ysvlhW3ZakjMls3Xd73cVggYQm4nlDk10G9fWgRpLUUJKEnnWoRwOVdmBhBKQiIJXMJv01VjgL2QK6BGlRIAwFxJDs8o5GgfSFpLqgmvlMZkvbCiazpeHHZHYC+FH00dbLG3HuwRnE3I8GpU69/vDqu1lUL0n895xpcgsF/QtnLCpxd3g6I6AbAnKQ2WQJ1ZD3CKktkNM9Sv6OAc4jvjOQIpPG7h+ODZf+ixilCNL29t2ZeNNtO3mUShEQIzFcc7phWYMNJrEyITI7LHY9fMM8hcg/igBkYQSUQqBdaHNsubwBs2v4o0GBpkqZ8a/efju6IOjMEnRx7IMh5UYpbg8ZwGS2KrZBFiPmRE/FqH2DhdRxSiGXUxwX2+Cfl3ewrkkESls7y6naonQxma3fdlP/AupjUNzKAUENNiFdsvQ6LUCZBlSqc+uVTcJ4yo4eUm60TnN5ECOgCwLGILPF5/EsKbPiWJvY79RSn7TV55Yh4NR8XHh0Tvh779KD0M9pmC4mamYMk9nStorJbGn4MZltAH7Xnl3G6fsnceh2FA7d2YcT9/6r3VUueyUsqBWk8w+2Aep5CiPwHQJykdmkePvVULTeFFfverTLFLQu1vFfe6ghGDUGI6HGW80K+6CDQ3ehaR4LI6B1BB6/eYSifjmE7/fTvrdM4k5CZHajNdVw8M4+ITOCMiRYGAGlEJhxdIJQPqqDfQ8Mr/C3UmYIel+8fwGHhXlBGUSR3seRP31BRe0RlTOZrYptkMWIqFt70CSkhkDchTXbJ4tOUiI2FOMLTtNDzmS2fhhTTWHvjQ2Ecp1U65qyyaxSZPnhIhQoM+fYVMw4MgFvP74RGvlOdZv/XZazflbwaEbgewSMQWbTqpWXOwpENWXF5P2ifw1lrYVcCBbOMQll9FMvgzo27ma3HUxmS9tSJrOl4cdktkT8aDr9+B67exixjy+YTTF/I8DCS8iIgJxkNrm18lwg+oTHkdhzawYixa8pMXRXH1CTFhKK0iOim9MBZTwErEoWBMoHFhNKSu1pcQL50hUwus6fkdmUzkhpjVQPleqisjACSiIQeT0CXhvqwSlreaxtvF1JU7D45FwM3d0HFFCwyn2LorZ8qZzJbNVshckNoQuVQvMyC3pudfs+g9NUBlCjPcoanew2D81sfUylhtf9/+blTGbrfwwuPb6AZutq4+7L20Kz6uCGofGW2qT3inFRI4QMA5Ka+ephaPnRHAyjP+Q8QwcEjEVmE2HdbVvrH2qsmrsmOjr0NOvMZCazdThwPxnCZLY0/JjMlogfT2cE1ICA3GQ2+SxG5X3pf47UuTCuykxQGQYWRsAcEei2rQ1CLqzENDc/NLH1MrqLPyOziTgkArFXqYHoX/YPo+vmBRkBfRCg5r52ftmFHiEXO93XZ6rRx7ossweRJgtrr0DNfHF1KdUgTGarYRfks4FqtlPt9lCPPSiRuaTJFYdfDUOrTY1Bz14HW8WlsbOYDgEmsw3D9t6ru2i2rg4uPDoLKskw2Hkknr1/isevHgoLUgQ31RQmoSbzw8qPQZms5QxTxrMYAR0QMBaZTaqmHx2P9x/efaU1UeLEqJG3LuwyFdfBGm0PYTJb2v4xmS0NPyazJeLH0xkBNSCgBJlNfg+O7AX/mPkCBJQ+1bfMEKG8CAsjYK4IiBGgrYp1wBiXqUZ380dktpjCTp+vg63PgTqoszACSiPg7F9EyMjZ6XVMSCNXQvbc2Inm6+sIJEl8dSuVsEnUyWS2kujLr1u87Py97HD0LDXA5AbUWlkeJ+9HCzW6qVY3i2kRYDLbcHyfv3sGnw3uOHw3Kt5FbNIVwOByo4SIbBZGwNQIGJPMNrWtal+fyWxpO8RktjT8mMyWiB9PZwTUgIBSZDb5Pnr/UDS19UbBDIXVAAXbwAiYFIET946idnBFFLOyx5Zm+42u60dktltQGZx9eAp9nYaiT+nBRtfLCzIChiDQIcwbm2NDMNVtgfA7oIS03ewhNAqTi0DUx0cms/VBS/tjxSbBdOlIvw+mvOCJuLYFLTc2QuYU1ohue1n74GnAAyazpW9S/x1d8f7TO+RKmxe50+RF7rR5kStNHuEcszACciHAZLbxkGYyWxqWTGZLw4/JbIn48XRGQA0IKElmq8F/toERkAuBD5/ew2ZuJnz6/FEorZAsSXKjqo6PzA445YdBu3oIkaf7fGKQ/JcURtXJizEChiIw8+hEjI36Q2gETH0S5BZqsuTkb4vEiRLjeNurquvTwGS23CdCeX0DdnbD0tOLQA0ZtzTbh1+T/GYSo6h/AvVRGF5hHDrYdzeJDl70awSYzOYTwQiYBwJMZhtvH5nMloYlk9nS8GMyWyJ+PJ0RUAMCTGarYRfYBktBoN5qV6HG49pG2+GUrbxR3f6WzKamYmWWFMTTt08wrZofmhQyfp1uozrAi1kUAntu7EDz9XXhkKUUNjXdLbvvo/YNwZzoKWhYwAOzaiyRXX9CCpnMTggh8/v7249v4LrUUSi/09mht9DEztgi1sqmZsCH21ww+qWqse01l/WYzDaXnWQ/LB0BJrONdwKYzJaGJZPZ0vBjMlsifjydEVADAkxmq2EX2AZLQWD4nv7wOzFLaFLUyaGXUd3+lsz+c99AzI+ejqKZSmBr8/hrTRrVAF6MEdADAaqDajvfGr8k/hVXOj8WIqTlknef3qK4Xy48f/cc6xpHoHRWZ7lU66yHyWydoTKrgRQxXSe4Ij5++ogNTXYKTe2MKWJU9kDnP9G9ZH9jLs1r/QQBJrP5eDAC5oEAk9nG20cms6VhyWS2NPyYzJaIH09nBNSAAJPZatgFtsFSEFh/cRW6bG2FOjbumF9rmVHd/pLMvv7sCpwD7IT1iRApae1kVF28GCNgDATKBxbDw9f3sd3zIHKmzm2MJXVaY+W5QPQJ74jCGYsi3POQTnPkHsRkttyIq0ffnOipGLVvMLKmyi40SE39W2qjGLfz+ja02NAQaZKmxZHWF5Hy11RGWZcXSRgBJrMTxohHMAJaQIDJbOPtEpPZ0rBkMlsafkxmS8SPpzMCakCAyWw17ALbYCkI3Hh+DWX9CyPVr6mw3esQcqXOYzTXvySzW29qgu1XQ1VbQsFoTvNCmkZgcGQv+MfMRz+nYehdepBsvlRfURanH5zExKpz4Fm4lWx69VHEZLY+aJnf2KYhNbH/1m7UzFcPC2uvlOzgg9f30SykNs49Os3NgCWjqf8CTGbrjxnPYATUiACT2cbbFSazpWHJZLY0/JjMlogfT2cE1IAAk9lq2AW2wZIQ6LatDUIurIRDltLY1DTSaK6LZPbqk2Fovr4OkiZJhr0+J5EtVQ6j6eCFGAFjIkDEWtXlpWGdMhuOtrlkzKV/uNbRuwdRf3VlITo1uu1l1dYMZjJbluOgWiV3X95G5eUl8eztUxT4v/buPt7r+e4D+DvZdSl3KZG7So0Ww9xMltqUTdOFlpseMYyEXYRiQi6uMIUJ5X5hdmkzXGZzn9mY+4zLXSJEMUlK0o3cxPX4/rZz5nSjU5/fOedzznl+/2E738/n+/4835/fo7x+3/P9rtcpRu42Jr6zSfdVqvepGU/EkXcfFDMXzogWa6wXjx8yqbT/HbUnIMyuPWtXIlCTAsLs8ukKs9MshdlpfsLsRD/DCeQgIMzOoQtqaEwCCz9bEL1+1zVe/+DVOHbHk2LYd84py/KLMPu9T6bEHuN6xTvz347BO50aJ+9yZlnmNgmBmhKoeCnqr/e6Nb7ffs+aukxp3o8+Wxg/vKlrvDbnlTjqW8fHf3c7r0avlzK5MDtFr2GMffCt++P48QNi9qJZpQX12eKAGN79/NigeZtqL/DqZ0fH2Y/847cetttgh7h6z9/U6iN9ql1oAz9RmN3AG2x5jUZAmF2+Vguz0yyF2Wl+wuxEP8MJ5CAgzM6hC2pobALFHam9b+oeHy9eFDf96O7otuluyQRPvPNQHHr7frHg0wXRqdVWcdcBD0Wz1Zsnz2sCAjUpcPPL42LI/UdFz3a94oa9b6vJS8Wg+w6L2165ufTbCvf1fyLWW6NljV4vZXJhdopewxk7/9P5cdGEc6MIpYuj+eprxmHbHh29O/Yp/XbP8o7i5aaD7z8y7n399tIph3xzYJy325iGA1PPViLMrmcNUy6B5QgIs8u3NYTZaZbC7DQ/YXain+EEchAQZufQBTU0RoEbJl4Tpz54fOkuuz8f9LdouUarVWa4dfKNcfyfjiiN79F2j7hqz3Gl53I7COQusGjxR7H9dR1Kj1OY8JOXY9O129ZIyb958boY+sCg0tz14aWowuwa2Qb1dtLipb5nPXJq3Pv6HZVr6NBii9i3U//Yr1P/aLvO5lGc89jbD8djf/9rTJr1Qrw0e2Ip/L6g5+XRd8t+9XbtDaFwYXZD6KI1EIgQZpdvFwiz0yyF2Wl+wuxEP8MJ5CAgzM6hC2porAJH33Nw3Dnl96UAetw+f/hKhlfefynun3pPrN98g9iw+UaxwZobRuvmG8b/TBwboyb8vDT2mG8fG6d3+UVj5bTueipw5kMnx7XPXx4n7HRKDN3lv8u+iuJlj8VLH4vjrO4XxMDt/hFq53wIs3PuTt3VNmH6I3HVM6PjvjfuqlJE8Qzs4guhLx87tukSF/a8MrZs+Y26K9iVSwLCbBuBQMMQEGaXr4/C7DRLYXaanzA70c9wAjkICLNz6IIaGqtA8SvkP/jtzvHmvKnRr/PBsX+nH8eum36vCsfEWc/FxU+OrPx18eVZnd9jTJzUbVC8O2dRY+W07noq8Mr7L0eP3+5Q+nLm2QFvlHUVxeMW9rixS+kztmfHPnHNnjeWdf6amkyYXVOyDWPe4t0L41+/K25/9ZbKYLt1sw2iR/s9So/s6b5pz9LLHh15CAiz8+iDKgikCgizUwX/NV6YnWYpzE7zE2Yn+hlOIAcBYXYOXVBDYxZ44b1nSy+lqzg2W6dd7LflgbFlq85x68s3xp+n3Vv5s2+3+U40XW310v9e8Om8mLnw3dJL7a7qNS56tv9+FJ9nYXZj3k31d+373vqDmPDOo6WwuQidy3UccXf/0hdB7dbpEOP7Px5r/9va5Zq6RucRZtcob4OavAi235o7rfSuBEeeAsLsPPuiKgIrKyDMXlmx5Z8vzE6zFGan+QmzE/0MJ5CDgDA7hy6oobELTJ//9yhehHfzpHEx7cPXl+I4aKvD47idflZ6LuryjqarNRFmN/aNVI/Xf9srN8Wg+w6P727WM27sc2fySorH91z4xDnx6pzJ8e9N14g7+/01tmq1TfK8tTWBMLu2pF2HQM0LCLNr3tgVCNSGgDC7fMrC7DRLYXaanzA70c9wAjkICLNz6IIaCPxLoLg79ZZJ40rPx+7bqX8cs+OJUfz6+IoOYfaKhPw8d4Gtr9kkPlg0Jx4/9MWv/OLmq9Yx/o074/wnhsfk2ZNKp63frHWct9uYst7tXRuOwuzaUHYNArUjIMyuHWdXIVDTAsLs8gkLs9MshdlpfsLsRD/DCeQgIMzOoQtqIJAuIMxONzRD3Qqc/chpcfWzo+OYHU6M07v+46Wm1Tn+Pu/NuO+NO+OBaX+Kv0wbXxqy0VqbxKAdfxaHbXN0dabI7hxhdnYtURCBVRYQZq8ynYEEshIQZpevHcLsNEthdpqfMDvRz3ACOQgIs3PoghoIpAsIs9MNzVC3Am/MfS263bBtqYjN1/16HND5x7FfpwNj07XbLlXY7EWz4rpnr4jiTuyXZk+s/HnbtduXfpvhkG8OrNvFJF5dmJ0IaDiBjASE2Rk1QykEEgSE2Ql4SwwVZqdZCrPT/ITZiX6GE8hBQJidQxfUQCBdQJidbmiGuhc4//Hhcf3Eq+PDj+dWFrPzRl2jfYsOMe2DN+L1D16N9z6aWaXQ4qWOe3XcN/ps2S+6b9aj7hdRhgqE2WVANAWBTASE2Zk0QhkEEgWE2YmAXxouzE6zFGan+QmzE/0MJ5CDgDA7hy6ogUC6gDA73dAM+Qjc+/od8fvJv4u7pty2zKKKO7e/teEOsfcW+0evzffKp/AyVSLMLhOkaQhkICDMzqAJSiBQBgFhdhkQ/zmFMDvNUpid5ifMTvQznEAOAsLsHLqgBgLpAsLsdEMz5Ccw75MP4w+v3BxNmjSJdut0iHYtNo/iUSIN/RBmN/QOW19jEhBmN6ZuW2tDFhBml6+7wuw0S2F2mp8wO9HPcAI5CAizc+iCGgikCwiz0w3NQCAXAWF2Lp1QB4F0AWF2uqEZCOQgIMwuXxeE2WmWwuw0P2F2op/hBHIQEGbn0AU1EEgXEGanG5qBQC4CwuxcOqEOAukCwux0QzMQyEFAmF2+Lgiz0yyF2Wl+wuxEP8MJ5CAgzM6hC2ogkC4gzE43NAOBXASE2bl0Qh0E0gWE2emGZiCQg4Awu3xdEGanWQqz0/yE2Yl+hhPIQUCYnUMX1EAgXUCYnW5oBgK5CAizc+mEOgikCwiz0w3NQCAHAWF2+bogzE6zFGan+QmzE/0MJ5CDgDA7hy6ogUC6gDA73dAMBHIREGbn0gl1EEgXEGanG5qBQA4CwuzydUGYnWYpzE7zE2Yn+hlOIAcBYXYOXVADgXQBYXa6oRkI5CIgzM6lE+ogkC4gzE43NAOBHASE2eXrgjA7zVKYneYnzE70M5xADgLC7By6oAYC6QLC7HRDMxDIRUCYnUsn1EEgXUCYnW5oBgI5CAizy9cFYXaapTA7zU+YnehnOIEcBITZOXRBDQTSBYTZ6YZmIJCLgDA7l06og0C6gDA73dAMBHIQEGaXrwvC7DRLYXaanzA70c9wAjkICLNz6IIaCKQLCLPTDc1AIBcBYXYunVAHgXQBYXa6oRkI5CAgzC5fF4TZaZbC7DQ/YXain+EEchAQZufQBTUQSBcQZqcbmoFALgLC7Fw6oQ4C6QLC7HRDMxDIQUCYXb4uCLPTLIXZaX7C7EQ/wwnkICDMzqELaiCQLiDMTjc0A4FcBITZuXRCHQTSBYTZ6YZmIJCDgDC7fF0QZqdZCrPT/ITZiX6GE8hBQJidQxfUQCBdQJidbmgGArkICLNz6YQ6CKQLCLPTDc1AIAcBYXb5uiDMTrMUZqf5GU2AAAECBAgQIECAAAECBAgQIECAAAECtSAgzK4FZJcgQIAAAQIECBAgQIAAAQIECBAgQIAAgTQBYXaan9EECBAgQIAAAQIECBAgQIAAAQIECBAgUAsCwuxaQHYJAgQIECBAgAABAgQIECBAgAABAgQIEEgTEGan+RlNgEADELj2xrtjytS3Y8RpRzaA1VgCgcYn8OLkqTHwpAviw/kLS4vfbOMN4oZLh0XrVi0aH4YVE6jnAkt+nrts3zkuG3FCNG+2Rj1fmfIJNF6BhR8tikHDRpcAfJ4b7z6w8vor8N7sD+KQ40bEW9NnVi5inbWaxzWjhsbWndrX34WpvN4KCLPrbesUToBAqsADjz1T+RfrPr12FWanghpPoI4Eis/y69PeiSMO7F2qYNjIsTFj5vv+g7mO+uGyBFIEii+YO7TbKHp03b7y81z8iy+cU1SNJVB3AhVB9oRnXgpfTtVdH1yZQIpARZh9yqADK/98TpnPWAKpAsLsVEHjCRCo9wLuzK73LbQAAlUEinD7/MtudHe2fUGgAQgUf0Y/+uQLvpxqAL20hMYpUHzB3LH9JqXF+yw3zj1g1fVfQJhd/3vY0FYgzG5oHbUeAgRWWkCYvdJkBhDIWkD4lXV7FEeg2gIVd3S22aClO7OrreZEAvkIFEF2cRS/WeHP5nz6ohICKyuw5GNGPGJkZQWdX24BYXa5Rc1HgEC9ExBm17uWKZjAcgWK5+2eOPzyuGj4sZ7hZ58QqMcCRQj2x/GPeixBPe6h0hu3wJJ/vxZmN+79YPUNS6D4PN9yx4N+C7JhtbVerUaYXa/apVgCBGpCQJhdE6rmJFD7AhUvjhsx7EjP86t9flckUCMCArAaYTUpgRoXqPhCaskLeW52jdO7AIEaFyju1D7mtEti+EmHuXmkxrVdYFkCwmz7ggCBRi8gzG70WwBAAxAQZDeAJloCgWUIFJ/t4aOujytGDo7WrVowIkCgngr4YqqeNk7ZBJYhIMy2LepaQJhd1x1wfQIE6lxAmF3nLVAAgSQBjxZJ4jOYQFYCI8aMiz69ulXe6VXcPAKF5gAADhJJREFU3Tlj5vteAJlVlxRDYOUFhNkrb2YEgVwEiperF0ePrtuX/unznEtnGm8dwuzG23srJ9DoBYo/lAcNG13F4bIRJ3g8QaPfGQDqm0DxF+qLrr55qbJ9nutbJ9VLIGLJP5s9ksCuINAwBIRfDaOPVtE4BSp+A/LD+QtLAJttvIHnZTfOrZDNqoXZ2bRCIQQIECBAgAABAgQIECBAgAABAgQIECCwPAFhtr1BgAABAgQIECBAgAABAgQIECBAgAABAtkLCLOzb5ECCRAgQIAAAQIECBAgQIAAAQIECBAgQECYbQ8QIECAAAECBAgQIECAAAECBAgQIECAQPYCwuzsW6RAAgQIECBAgAABAgQIECBAgAABAgQIEBBm2wMECBAgQIAAAQIECBAgQIAAAQIECBAgkL2AMDv7FimQAAECBAgQIECAAAECBAgQIECAAAECBITZ9gABAgQIECBAgAABAgQIECBAgAABAgQIZC8gzM6+RQokQIAAAQIECBAgQIAAAQIECBAgQIAAAWG2PUCAAAECBAgQIECAAAECBAgQIECAAAEC2QsIs7NvkQIJECBAgAABAgQIECBAgAABAgQIECBAQJhtDxAgQIAAAQIECBAgQIAAAQIECBAgQIBA9gLC7OxbpEACBAgQIECAAAECBAgQIECAAAECBAgQEGbbAwQIECBAgAABAgQIECBAgAABAgQIECCQvYAwO/sWKZAAAQIECBAgQIAAAQIECBAgQIAAAQIEhNn2AAECBAgQIECAAIHMBL744ov41U33xOixt8agAX1jQP/e0bTpatWqct78hTFk+OUx+bU344qRQ2Kbzh2qNc5JBAgQIECAAAECBHIXEGbn3iH1ESBAgAABAgQILFdg2Mix8cfxj1ZL6MSj+8U+e3SNQ44bUTr/hkuHRetWLao1trZPen7SlDh66KjotdvOcfrgQ+JrqzddqRKmz5gVPz3lolhzzWZx5cgh0WLdtVZqvJMJECBAgAABAgQI5CggzM6xK2oiQIAAAQIECBColkBDDLMXffxJnHz2lTFl2vQYe+HJsUmb9atlseRJjz01MQYNGx3HHt43jjiw9yrNYRABAgQIECBAgACBnASE2Tl1Qy0ECBAgQIAAAQJJAu/N/qB05/XGG7aKy0acEM2brZE0X10MfnjCC3Hc6ZfE0GMPioP67r7KJVSE4m9OnxnXjhoa67dcd5XnMpAAAQIECBAgQIBADgLC7By6oAYCBAgQIECAAIGyCKwozF740aLS3crFURF2V4zZbuuO0aPr9nHFr/8Yb7w5Pb62+urR54fdYvCR+8e0t2bEVTfcHk88PSk+/eyz2GLzTePcUwdG5y3aVal7ztx5ccX1f4i7/vxEzP1wQSlM33+v78VxA/pWK1gvnpV9xgXXxZPPvBTXXXxKbLpR6yrzL178efzpoacqayx+uHnbjaN/n57xox/uutQ1imD8hDPGxM9PGRi9d+9SFmOTECBAgAABAgQIEKgrAWF2Xcm7LgECBAgQIECAQNkFUsLst6bPXGY9bVq3jJmz58Tnn39R5eedOm5WegxIq/XWKf3/Fc+pLh4PsuSx67e/GZecPWiFgfas9+fGocePiB222TLOGTogmjRpUmWq62++N0ZdddNStRQnFeF8EcZ/+Xj3vTlx2OCRseO2nZY5X9kbYEICBAgQIECAAAECNSggzK5BXFMTIECAAAECBAjUrkBKmD393VmlO5yPOnjvUkD9zMRX44QzLo33P5gX227VMc4ccmhs2WGzmL/gozjxrMvj6ecmx5XnnRjf2Wnr+Gzx4hg2Ymzc//DT8Z8/6VOaZ+21mscHc+fHpdf9Pm675+EYfc7x0b3LNl8J8uLkqTHwpAtiyFEHRL99elQ5d+68BaWXQn7++edxyVmDYuM268enny2OKVPfjl/fPD727LlzfHeX7aqMKeoaes5VMXvOh3HFyCGxZvP699iV2t1BrkaAAAECBAgQIJCzgDA75+6ojQABAgQIECBAYKUEUsLsHbbZIkacdmTl9SqC4NemTo/rLzk1WrZYu/JnxaM+Bp95WeXd0MVd3YedcF707LZ9DDv+4Cp3VM947/049LgRsVvX4mc//sr1PPDYM3H8f40pBc/du2xb5dwFCxfFMaddHMXd1sVd3t/4ettq2YwY85t46Inn4oZLh0XrVi2qNcZJBAgQIECAAAECBHIUEGbn2BU1ESBAgAABAgQIrJJAOcPsooBhI8fG/73w6lJBcBE6F8/erni0R8Ud1R/OX7jcuvv02rVKWL6sE4t5izu8rxk1NLbu1H6pU+7761Nx6rlXx8effFq6e3zLjpvFnj26xO7ddogW6661zGtfe+PdccsdDwqzV2lHGUSAAAECBAgQIJCTgDA7p26ohQABAgQIECBAIEmgoYfZBc47M9+P8Q8+GY88+UJMemVq6UWTxR3XV51/4jLv1hZmJ20pgwkQIECAAAECBDISEGZn1AylECBAgAABAgQIpAnUVZhd8ZiRvffoGoOP3H+VF1HcmT3kzMsqn8W9oom++OKLuPsvE+L0kWOj3z49l/kYk0vG/m/c+8CT7sxeEaafEyBAgAABAgQIZC8gzM6+RQokQIAAAQIECBCorkBdhdkVL4B84LFn4+hD9o79/uO7sd66a8fixZ/H2zNmle6kXnedtaLf3rt95VK+6gWQxdrOHT0u9tmja+yy41bRvNkapfmfen5yDD7j0th7j12XCrO9ALK6O8d5BAgQIECAAAEC9UFAmF0fuqRGAgQIECBAgACBagnUVZhdFDd9xqz46SkXxZRp05dZ64lH94sjDuz9leuYM3deDBhyfmzdafM4Z+iAKi+SrFhbcRf4kkfxcspf/uJn0XmLdlV+VLws8rDBI2PHbTstNV+1QJ1EgAABAgQIECBAICMBYXZGzVAKAQIECBAgQIBAmkBdhtlF5fMXfBS/HHdH3Hn/41EEyaut1iQ2b7tx7Nu7e/yoV7flvqSxYtXFY0POuOC6ePKZl+K6i0+JTTdqXQlS3IX9t+dejutvuieefv7VWPjRotLd2V227xxDjto/OrbfZCm8hye8ECecMSZ+fsrA6L17lzRcowkQIECAAAECBAjUsYAwu44b4PIECBAgQIAAAQIEvixQBNDHnX5JDD32oDio7+6rjPPpZ4vj1HOvjtemvh3Xjhoa67dcd5XnMpAAAQIECBAgQIBADgLC7By6oAYCBAgQIECAAAEC/xRY9PEncfLZV5YeVzL2wpNjkzbrr5LNY09NjEHDRsexh/dd4eNNVukCBhEgQIAAAQIECBCoZQFhdi2DuxwBAgQIECBAgACBFQk8P2lKHD10VPTabec4ffAh8bXVm65oSJWfVzy/e801m8WVI4es8PEmKzW5kwkQIECAAAECBAjUkYAwu47gXZYAAQIECBAgQIDA8gSKZ2f/6qZ7YvTYW2PQgL4xoH/vaNp0tWqBzZu/MIYMvzwmv/ZmXDFySGzTuUO1xjmJAAECBAgQIECAQO4CwuzcO6Q+AgQIECBAgAABAgQIECBAgAABAgQIEAhhtk1AgAABAgQIECBAgAABAgQIECBAgAABAtkLCLOzb5ECCRAgQIAAAQIECBAgQIAAAQIECBAgQECYbQ8QIECAAAECBAgQIECAAAECBAgQIECAQPYCwuzsW6RAAgQIECBAgAABAgQIECBAgAABAgQIEBBm2wMECBAgQIAAAQIECBAgQIAAAQIECBAgkL2AMDv7FimQAAECBAgQIECAAAECBAgQIECAAAECBITZ9gABAgQIECBAgAABAgQIECBAgAABAgQIZC8gzM6+RQokQIAAAQIECBAgQIAAAQIECBAgQIAAAWG2PUCAAAECBAgQIECAAAECBAgQIECAAAEC2QsIs7NvkQIJECBAgAABAgQIECBAgAABAgQIECBAQJhtDxAgQIAAAQIECBAgQIAAAQIECBAgQIBA9gLC7OxbpEACBAgQIECAAAECBAgQIECAAAECBAgQEGbbAwQIECBAgAABAgQIECBAgAABAgQIECCQvYAwO/sWKZAAAQIECBAgQIAAAQIECBAgQIAAAQIEhNn2AAECBAgQIECAAAECBAgQIECAAAECBAhkLyDMzr5FCiRAgAABAgQIECBAgAABAgQIECBAgAABYbY9QIAAAQIECBAgQIAAAQIECBAgQIAAAQLZCwizs2+RAgkQIECAAAECBAgQIECAAAECBAgQIEBAmG0PECBAgAABAgQIECBAgAABAgQIECBAgED2AsLs7FukQAIECBAgQIAAAQIECBAgQIAAAQIECBAQZtsDBAgQIECAAAECBAgQIECAAAECBAgQIJC9gDA7+xYpkAABAgQIECBAgAABAgQIECBAgAABAgSE2fYAAQIECBAgQIAAAQIECBAgQIAAAQIECGQvIMzOvkUKJECAAAECBAgQIECAAAECBAgQIECAAAFhtj1AgAABAgQIECBAgAABAgQIECBAgAABAtkLCLOzb5ECCRAgQIAAAQIECBAgQIAAAQIECBAgQECYbQ8QIECAAAECBAgQIECAAAECBAgQIECAQPYCwuzsW6RAAgQIECBAgAABAgQIECBAgAABAgQIEBBm2wMECBAgQIAAAQIECBAgQIAAAQIECBAgkL2AMDv7FimQAAECBAgQIECAAAECBAgQIECAAAECBITZ9gABAgQIECBAgAABAgQIECBAgAABAgQIZC8gzM6+RQokQIAAAQIECBAgQIAAAQIECBAgQIAAAWG2PUCAAAECBAgQIECAAAECBAgQIECAAAEC2Qv8Pwmp8h02vFr/AAAAAElFTkSuQmCC;clipPath=inset(17.74% 33.33% 13.44% 3%);" parent="iIbCbDASA3NtXTrynj2I-34" vertex="1">
          <mxGeometry x="35" width="1459" height="488.8539867022669" as="geometry" />
        </mxCell>
        <mxCell id="iIbCbDASA3NtXTrynj2I-6" value="" style="ellipse;whiteSpace=wrap;html=1;aspect=fixed;fillColor=#e51400;fontColor=#ffffff;strokeColor=#B20000;" parent="iIbCbDASA3NtXTrynj2I-34" vertex="1">
          <mxGeometry x="463" y="92" width="10" height="10" as="geometry" />
        </mxCell>
        <mxCell id="iIbCbDASA3NtXTrynj2I-7" value="" style="ellipse;whiteSpace=wrap;html=1;aspect=fixed;fillColor=#e51400;fontColor=#ffffff;strokeColor=#B20000;" parent="iIbCbDASA3NtXTrynj2I-34" vertex="1">
          <mxGeometry x="769" y="72" width="10" height="10" as="geometry" />
        </mxCell>
        <mxCell id="iIbCbDASA3NtXTrynj2I-8" value="" style="ellipse;whiteSpace=wrap;html=1;aspect=fixed;fillColor=#fad7ac;strokeColor=#b46504;" parent="iIbCbDASA3NtXTrynj2I-34" vertex="1">
          <mxGeometry x="215" y="397" width="10" height="10" as="geometry" />
        </mxCell>
        <mxCell id="iIbCbDASA3NtXTrynj2I-9" value="" style="ellipse;whiteSpace=wrap;html=1;aspect=fixed;fillColor=#fad7ac;strokeColor=#b46504;" parent="iIbCbDASA3NtXTrynj2I-34" vertex="1">
          <mxGeometry x="518" y="403" width="10" height="10" as="geometry" />
        </mxCell>
        <mxCell id="iIbCbDASA3NtXTrynj2I-10" value="" style="ellipse;whiteSpace=wrap;html=1;aspect=fixed;fillColor=#e51400;fontColor=#ffffff;strokeColor=#B20000;" parent="iIbCbDASA3NtXTrynj2I-34" vertex="1">
          <mxGeometry x="147" y="49" width="10" height="10" as="geometry" />
        </mxCell>
        <mxCell id="iIbCbDASA3NtXTrynj2I-11" value="" style="ellipse;whiteSpace=wrap;html=1;aspect=fixed;fillColor=#e51400;fontColor=#ffffff;strokeColor=#B20000;" parent="iIbCbDASA3NtXTrynj2I-34" vertex="1">
          <mxGeometry x="1068" y="81" width="10" height="10" as="geometry" />
        </mxCell>
        <mxCell id="iIbCbDASA3NtXTrynj2I-12" value="" style="ellipse;whiteSpace=wrap;html=1;aspect=fixed;fillColor=#e51400;fontColor=#ffffff;strokeColor=#B20000;" parent="iIbCbDASA3NtXTrynj2I-34" vertex="1">
          <mxGeometry x="1384" y="73" width="10" height="10" as="geometry" />
        </mxCell>
        <mxCell id="iIbCbDASA3NtXTrynj2I-13" value="" style="ellipse;whiteSpace=wrap;html=1;aspect=fixed;fillColor=#fad7ac;strokeColor=#b46504;" parent="iIbCbDASA3NtXTrynj2I-34" vertex="1">
          <mxGeometry x="830" y="425" width="10" height="10" as="geometry" />
        </mxCell>
        <mxCell id="iIbCbDASA3NtXTrynj2I-14" value="" style="ellipse;whiteSpace=wrap;html=1;aspect=fixed;fillColor=#fad7ac;strokeColor=#b46504;" parent="iIbCbDASA3NtXTrynj2I-34" vertex="1">
          <mxGeometry x="1137" y="432" width="10" height="10" as="geometry" />
        </mxCell>
        <mxCell id="iIbCbDASA3NtXTrynj2I-15" value="" style="ellipse;whiteSpace=wrap;html=1;aspect=fixed;fillColor=#fad7ac;strokeColor=#b46504;" parent="iIbCbDASA3NtXTrynj2I-34" vertex="1">
          <mxGeometry x="1453" y="421" width="10" height="10" as="geometry" />
        </mxCell>
        <mxCell id="iIbCbDASA3NtXTrynj2I-16" value="Amplitude" style="text;html=1;align=center;verticalAlign=middle;whiteSpace=wrap;rounded=0;fontSize=25;rotation=-90;fontStyle=0" parent="iIbCbDASA3NtXTrynj2I-34" vertex="1">
          <mxGeometry x="-35" y="210" width="130" height="60" as="geometry" />
        </mxCell>
        <mxCell id="iIbCbDASA3NtXTrynj2I-17" value="Time (s)" style="text;html=1;align=center;verticalAlign=middle;whiteSpace=wrap;rounded=0;fontSize=25;fontFamily=Helvetica;" parent="iIbCbDASA3NtXTrynj2I-34" vertex="1">
          <mxGeometry x="755" y="485.85" width="151" height="40" as="geometry" />
        </mxCell>
        <mxCell id="iIbCbDASA3NtXTrynj2I-18" value="" style="endArrow=classic;startArrow=classic;html=1;rounded=0;exitX=0.5;exitY=1;exitDx=0;exitDy=0;dashed=1;" parent="iIbCbDASA3NtXTrynj2I-34" source="iIbCbDASA3NtXTrynj2I-6" edge="1">
          <mxGeometry width="50" height="50" relative="1" as="geometry">
            <mxPoint x="495" y="210" as="sourcePoint" />
            <mxPoint x="465" y="400" as="targetPoint" />
          </mxGeometry>
        </mxCell>
        <mxCell id="iIbCbDASA3NtXTrynj2I-19" value="" style="endArrow=none;startArrow=none;html=1;rounded=0;exitX=0.5;exitY=1;exitDx=0;exitDy=0;dashed=1;entryX=0.507;entryY=0.818;entryDx=0;entryDy=0;entryPerimeter=0;startFill=0;" parent="iIbCbDASA3NtXTrynj2I-34" source="iIbCbDASA3NtXTrynj2I-7" target="iIbCbDASA3NtXTrynj2I-1" edge="1">
          <mxGeometry width="50" height="50" relative="1" as="geometry">
            <mxPoint x="772" y="91" as="sourcePoint" />
            <mxPoint x="769" y="389" as="targetPoint" />
          </mxGeometry>
        </mxCell>
        <mxCell id="iIbCbDASA3NtXTrynj2I-20" value="" style="endArrow=classic;startArrow=classic;html=1;rounded=0;exitX=1;exitY=0.5;exitDx=0;exitDy=0;dashed=1;" parent="iIbCbDASA3NtXTrynj2I-34" source="iIbCbDASA3NtXTrynj2I-8" edge="1">
          <mxGeometry width="50" height="50" relative="1" as="geometry">
            <mxPoint x="255" y="407" as="sourcePoint" />
            <mxPoint x="465" y="400" as="targetPoint" />
          </mxGeometry>
        </mxCell>
        <mxCell id="iIbCbDASA3NtXTrynj2I-21" value="" style="endArrow=classic;startArrow=classic;html=1;rounded=0;exitX=0.295;exitY=0.511;exitDx=0;exitDy=0;exitPerimeter=0;dashed=1;" parent="iIbCbDASA3NtXTrynj2I-34" source="iIbCbDASA3NtXTrynj2I-1" edge="1">
          <mxGeometry width="50" height="50" relative="1" as="geometry">
            <mxPoint x="545" y="270" as="sourcePoint" />
            <mxPoint x="775" y="250" as="targetPoint" />
          </mxGeometry>
        </mxCell>
        <mxCell id="iIbCbDASA3NtXTrynj2I-22" value="ΔT" style="text;html=1;align=center;verticalAlign=middle;whiteSpace=wrap;rounded=0;fontSize=25;" parent="iIbCbDASA3NtXTrynj2I-34" vertex="1">
          <mxGeometry x="325" y="369" width="60" height="30" as="geometry" />
        </mxCell>
        <mxCell id="iIbCbDASA3NtXTrynj2I-23" value="PWA" style="text;html=1;align=center;verticalAlign=middle;whiteSpace=wrap;rounded=0;fontSize=25;rotation=-90;" parent="iIbCbDASA3NtXTrynj2I-34" vertex="1">
          <mxGeometry x="412" y="258" width="60" height="30" as="geometry" />
        </mxCell>
        <mxCell id="iIbCbDASA3NtXTrynj2I-24" value="PPI" style="text;html=1;align=center;verticalAlign=middle;whiteSpace=wrap;rounded=0;fontSize=25;rotation=0;" parent="iIbCbDASA3NtXTrynj2I-34" vertex="1">
          <mxGeometry x="561" y="212" width="60" height="30" as="geometry" />
        </mxCell>
        <mxCell id="iIbCbDASA3NtXTrynj2I-33" value="" style="group" parent="iIbCbDASA3NtXTrynj2I-34" vertex="1" connectable="0">
          <mxGeometry x="805" y="20" width="230" height="100" as="geometry" />
        </mxCell>
        <mxCell id="iIbCbDASA3NtXTrynj2I-27" value="" style="rounded=0;whiteSpace=wrap;html=1;" parent="iIbCbDASA3NtXTrynj2I-33" vertex="1">
          <mxGeometry y="3.8461538461538463" width="230.00000000000003" height="96.15384615384617" as="geometry" />
        </mxCell>
        <mxCell id="iIbCbDASA3NtXTrynj2I-28" value="" style="group" parent="iIbCbDASA3NtXTrynj2I-33" vertex="1" connectable="0">
          <mxGeometry x="20" width="198" height="55.28846153846154" as="geometry" />
        </mxCell>
        <mxCell id="iIbCbDASA3NtXTrynj2I-25" value="&lt;span style=&quot;color: rgba(0, 0, 0, 0); font-family: monospace; font-size: 0px; text-align: start; text-wrap-mode: nowrap;&quot;&gt;%3CmxGraphModel%3E%3Croot%3E%3CmxCell%20id%3D%220%22%2F%3E%3CmxCell%20id%3D%221%22%20parent%3D%220%22%2F%3E%3CmxCell%20id%3D%222%22%20value%3D%22%22%20style%3D%22ellipse%3BwhiteSpace%3Dwrap%3Bhtml%3D1%3Baspect%3Dfixed%3BfillColor%3D%23e51400%3BfontColor%3D%23ffffff%3BstrokeColor%3D%23B20000%3B%22%20vertex%3D%221%22%20parent%3D%221%22%3E%3CmxGeometry%20x%3D%22364%22%20y%3D%22472%22%20width%3D%2210%22%20height%3D%2210%22%20as%3D%22geometry%22%2F%3E%3C%2FmxCell%3E%3C%2Froot%3E%3C%2FmxGraphModel%3E&amp;nbsp; &amp;nbsp;&lt;/span&gt;Detected Peaks&amp;nbsp;&lt;span style=&quot;color: rgba(0, 0, 0, 0); font-family: monospace; font-size: 0px; text-align: start; text-wrap-mode: nowrap;&quot;&gt;%3CmxGraphModel%3E%3Croot%3E%3CmxCell%20id%3D%220%22%2F%3E%3CmxCell%20id%3D%221%22%20parent%3D%220%22%2F%3E%3CmxCell%20id%3D%222%22%20value%3D%22%22%20style%3D%22ellipse%3BwhiteSpace%3Dwrap%3Bhtml%3D1%3Baspect%3Dfixed%3BfillColor%3D%23e51400%3BfontColor%3D%23ffffff%3BstrokeColor%3D%23B20000%3B%22%20vertex%3D%221%22%20parent%3D%221%22%3E%3CmxGeometry%20x%3D%22364%22%20y%3D%22472%22%20width%3D%2210%22%20height%3D%2210%22%20as%3D%22geometry%22%2F%3E%3C%2FmxCell%3E%3C%2Froot%3E%3C%2FmxGraphModel%3E&lt;/span&gt;" style="text;html=1;align=center;verticalAlign=middle;whiteSpace=wrap;rounded=0;fontSize=25;" parent="iIbCbDASA3NtXTrynj2I-28" vertex="1">
          <mxGeometry x="12" width="186" height="55.28846153846154" as="geometry" />
        </mxCell>
        <mxCell id="iIbCbDASA3NtXTrynj2I-26" value="" style="ellipse;whiteSpace=wrap;html=1;aspect=fixed;fillColor=#e51400;fontColor=#ffffff;strokeColor=#B20000;" parent="iIbCbDASA3NtXTrynj2I-28" vertex="1">
          <mxGeometry y="23.798076923076923" width="9.478021978021978" height="9.478021978021978" as="geometry" />
        </mxCell>
        <mxCell id="iIbCbDASA3NtXTrynj2I-29" value="" style="group" parent="iIbCbDASA3NtXTrynj2I-33" vertex="1" connectable="0">
          <mxGeometry x="20" y="42.307692307692314" width="200" height="55.28846153846154" as="geometry" />
        </mxCell>
        <mxCell id="iIbCbDASA3NtXTrynj2I-30" value="&lt;span style=&quot;color: rgba(0, 0, 0, 0); font-family: monospace; font-size: 0px; text-align: start; text-wrap-mode: nowrap;&quot;&gt;%3CmxGraphModel%3E%3Croot%3E%3CmxCell%20id%3D%220%22%2F%3E%3CmxCell%20id%3D%221%22%20parent%3D%220%22%2F%3E%3CmxCell%20id%3D%222%22%20value%3D%22%22%20style%3D%22ellipse%3BwhiteSpace%3Dwrap%3Bhtml%3D1%3Baspect%3Dfixed%3BfillColor%3D%23e51400%3BfontColor%3D%23ffffff%3BstrokeColor%3D%23B20000%3B%22%20vertex%3D%221%22%20parent%3D%221%22%3E%3CmxGeometry%20x%3D%22364%22%20y%3D%22472%22%20width%3D%2210%22%20height%3D%2210%22%20as%3D%22geometry%22%2F%3E%3C%2FmxCell%3E%3C%2Froot%3E%3C%2FmxGraphModel%3E&amp;nbsp; &amp;nbsp;&lt;/span&gt;Detected Valleys&lt;span style=&quot;color: rgba(0, 0, 0, 0); font-family: monospace; font-size: 0px; text-align: start; text-wrap-mode: nowrap;&quot;&gt;%3CmxGraphModel%3E%3Croot%3E%3CmxCell%20id%3D%220%22%2F%3E%3CmxCell%20id%3D%221%22%20parent%3D%220%22%2F%3E%3CmxCell%20id%3D%222%22%20value%3D%22%22%20style%3D%22ellipse%3BwhiteSpace%3Dwrap%3Bhtml%3D1%3Baspect%3Dfixed%3BfillColor%3D%23e51400%3BfontColor%3D%23ffffff%3BstrokeColor%3D%23B20000%3B%22%20vertex%3D%221%22%20parent%3D%221%22%3E%3CmxGeometry%20x%3D%22364%22%20y%3D%22472%22%20width%3D%2210%22%20height%3D%2210%22%20as%3D%22geometry%22%2F%3E%3C%2FmxCell%3E%3C%2Froot%3E%3C%2FmxGraphModel%3E&lt;/span&gt;" style="text;html=1;align=center;verticalAlign=middle;whiteSpace=wrap;rounded=0;fontSize=25;" parent="iIbCbDASA3NtXTrynj2I-29" vertex="1">
          <mxGeometry x="12" width="188" height="55.28846153846154" as="geometry" />
        </mxCell>
        <mxCell id="iIbCbDASA3NtXTrynj2I-32" value="" style="ellipse;whiteSpace=wrap;html=1;aspect=fixed;fillColor=#fad7ac;strokeColor=#b46504;" parent="iIbCbDASA3NtXTrynj2I-33" vertex="1">
          <mxGeometry x="21" y="67.0673076923077" width="9.478021978021978" height="9.478021978021978" as="geometry" />
        </mxCell>
      </root>
    </mxGraphModel>
  </diagram>
</mxfile>
